<?xml version="1.0" encoding="utf-8" standalone="no"?>
<!DOCTYPE svg PUBLIC "-//W3C//DTD SVG 1.1//EN"
  "http://www.w3.org/Graphics/SVG/1.1/DTD/svg11.dtd">
<svg xmlns:xlink="http://www.w3.org/1999/xlink" width="720pt" height="360pt" viewBox="0 0 720 360" xmlns="http://www.w3.org/2000/svg" version="1.1">
 <metadata>
  <rdf:RDF xmlns:dc="http://purl.org/dc/elements/1.1/" xmlns:cc="http://creativecommons.org/ns#" xmlns:rdf="http://www.w3.org/1999/02/22-rdf-syntax-ns#">
   <cc:Work>
    <dc:type rdf:resource="http://purl.org/dc/dcmitype/StillImage"/>
    <dc:date>2026-05-13T10:52:30.741333</dc:date>
    <dc:format>image/svg+xml</dc:format>
    <dc:creator>
     <cc:Agent>
      <dc:title>Matplotlib v3.10.9, https://matplotlib.org/</dc:title>
     </cc:Agent>
    </dc:creator>
   </cc:Work>
  </rdf:RDF>
 </metadata>
 <defs>
  <style type="text/css">*{stroke-linejoin: round; stroke-linecap: butt}</style>
 </defs>
 <g id="figure_1">
  <g id="patch_1">
   <path d="M 0 360 
L 720 360 
L 720 0 
L 0 0 
z
" style="fill: #ffffff"/>
  </g>
  <g id="axes_1">
   <g id="patch_2">
    <path d="M 47.435 318.76 
L 709.2 318.76 
L 709.2 10.8 
L 47.435 10.8 
z
" style="fill: #ffffff"/>
   </g>
   <g id="patch_3">
    <path d="M 77.515227 318.76 
L 83.531273 318.76 
L 83.531273 303.323409 
L 77.515227 303.323409 
z
" clip-path="url(#pcd58699b01)" style="fill: #1f77b4; fill-opacity: 0.5; stroke: #000000; stroke-width: 0.507273; stroke-linejoin: miter"/>
   </g>
   <g id="patch_4">
    <path d="M 83.531273 318.76 
L 89.547318 318.76 
L 89.547318 266.275589 
L 83.531273 266.275589 
z
" clip-path="url(#pcd58699b01)" style="fill: #1f77b4; fill-opacity: 0.5; stroke: #000000; stroke-width: 0.507273; stroke-linejoin: miter"/>
   </g>
   <g id="patch_5">
    <path d="M 89.547318 318.76 
L 95.563364 318.76 
L 95.563364 207.616541 
L 89.547318 207.616541 
z
" clip-path="url(#pcd58699b01)" style="fill: #1f77b4; fill-opacity: 0.5; stroke: #000000; stroke-width: 0.507273; stroke-linejoin: miter"/>
   </g>
   <g id="patch_6">
    <path d="M 95.563364 318.76 
L 101.579409 318.76 
L 101.579409 152.044812 
L 95.563364 152.044812 
z
" clip-path="url(#pcd58699b01)" style="fill: #1f77b4; fill-opacity: 0.5; stroke: #000000; stroke-width: 0.507273; stroke-linejoin: miter"/>
   </g>
   <g id="patch_7">
    <path d="M 101.579409 318.76 
L 107.595455 318.76 
L 107.595455 99.560401 
L 101.579409 99.560401 
z
" clip-path="url(#pcd58699b01)" style="fill: #1f77b4; fill-opacity: 0.5; stroke: #000000; stroke-width: 0.507273; stroke-linejoin: miter"/>
   </g>
   <g id="patch_8">
    <path d="M 107.595455 318.76 
L 113.6115 318.76 
L 113.6115 62.512581 
L 107.595455 62.512581 
z
" clip-path="url(#pcd58699b01)" style="fill: #1f77b4; fill-opacity: 0.5; stroke: #000000; stroke-width: 0.507273; stroke-linejoin: miter"/>
   </g>
   <g id="patch_9">
    <path d="M 113.6115 318.76 
L 119.627545 318.76 
L 119.627545 40.901353 
L 113.6115 40.901353 
z
" clip-path="url(#pcd58699b01)" style="fill: #1f77b4; fill-opacity: 0.5; stroke: #000000; stroke-width: 0.507273; stroke-linejoin: miter"/>
   </g>
   <g id="patch_10">
    <path d="M 119.627545 318.76 
L 125.643591 318.76 
L 125.643591 31.639398 
L 119.627545 31.639398 
z
" clip-path="url(#pcd58699b01)" style="fill: #1f77b4; fill-opacity: 0.5; stroke: #000000; stroke-width: 0.507273; stroke-linejoin: miter"/>
   </g>
   <g id="patch_11">
    <path d="M 125.643591 318.76 
L 131.659636 318.76 
L 131.659636 25.464762 
L 125.643591 25.464762 
z
" clip-path="url(#pcd58699b01)" style="fill: #1f77b4; fill-opacity: 0.5; stroke: #000000; stroke-width: 0.507273; stroke-linejoin: miter"/>
   </g>
   <g id="patch_12">
    <path d="M 131.659636 318.76 
L 137.675682 318.76 
L 137.675682 37.814035 
L 131.659636 37.814035 
z
" clip-path="url(#pcd58699b01)" style="fill: #1f77b4; fill-opacity: 0.5; stroke: #000000; stroke-width: 0.507273; stroke-linejoin: miter"/>
   </g>
   <g id="patch_13">
    <path d="M 137.675682 318.76 
L 143.691727 318.76 
L 143.691727 43.988672 
L 137.675682 43.988672 
z
" clip-path="url(#pcd58699b01)" style="fill: #1f77b4; fill-opacity: 0.5; stroke: #000000; stroke-width: 0.507273; stroke-linejoin: miter"/>
   </g>
   <g id="patch_14">
    <path d="M 143.691727 318.76 
L 149.707773 318.76 
L 149.707773 59.425263 
L 143.691727 59.425263 
z
" clip-path="url(#pcd58699b01)" style="fill: #1f77b4; fill-opacity: 0.5; stroke: #000000; stroke-width: 0.507273; stroke-linejoin: miter"/>
   </g>
   <g id="patch_15">
    <path d="M 149.707773 318.76 
L 155.723818 318.76 
L 155.723818 74.861855 
L 149.707773 74.861855 
z
" clip-path="url(#pcd58699b01)" style="fill: #1f77b4; fill-opacity: 0.5; stroke: #000000; stroke-width: 0.507273; stroke-linejoin: miter"/>
   </g>
   <g id="patch_16">
    <path d="M 155.723818 318.76 
L 161.739864 318.76 
L 161.739864 87.211128 
L 155.723818 87.211128 
z
" clip-path="url(#pcd58699b01)" style="fill: #1f77b4; fill-opacity: 0.5; stroke: #000000; stroke-width: 0.507273; stroke-linejoin: miter"/>
   </g>
   <g id="patch_17">
    <path d="M 161.739864 318.76 
L 167.755909 318.76 
L 167.755909 108.822356 
L 161.739864 108.822356 
z
" clip-path="url(#pcd58699b01)" style="fill: #1f77b4; fill-opacity: 0.5; stroke: #000000; stroke-width: 0.507273; stroke-linejoin: miter"/>
   </g>
   <g id="patch_18">
    <path d="M 167.755909 318.76 
L 173.771955 318.76 
L 173.771955 121.171629 
L 167.755909 121.171629 
z
" clip-path="url(#pcd58699b01)" style="fill: #1f77b4; fill-opacity: 0.5; stroke: #000000; stroke-width: 0.507273; stroke-linejoin: miter"/>
   </g>
   <g id="patch_19">
    <path d="M 173.771955 318.76 
L 179.788 318.76 
L 179.788 136.608221 
L 173.771955 136.608221 
z
" clip-path="url(#pcd58699b01)" style="fill: #1f77b4; fill-opacity: 0.5; stroke: #000000; stroke-width: 0.507273; stroke-linejoin: miter"/>
   </g>
   <g id="patch_20">
    <path d="M 179.788 318.76 
L 185.804045 318.76 
L 185.804045 148.957494 
L 179.788 148.957494 
z
" clip-path="url(#pcd58699b01)" style="fill: #1f77b4; fill-opacity: 0.5; stroke: #000000; stroke-width: 0.507273; stroke-linejoin: miter"/>
   </g>
   <g id="patch_21">
    <path d="M 185.804045 318.76 
L 191.820091 318.76 
L 191.820091 167.481404 
L 185.804045 167.481404 
z
" clip-path="url(#pcd58699b01)" style="fill: #1f77b4; fill-opacity: 0.5; stroke: #000000; stroke-width: 0.507273; stroke-linejoin: miter"/>
   </g>
   <g id="patch_22">
    <path d="M 191.820091 318.76 
L 197.836136 318.76 
L 197.836136 173.65604 
L 191.820091 173.65604 
z
" clip-path="url(#pcd58699b01)" style="fill: #1f77b4; fill-opacity: 0.5; stroke: #000000; stroke-width: 0.507273; stroke-linejoin: miter"/>
   </g>
   <g id="patch_23">
    <path d="M 197.836136 318.76 
L 203.852182 318.76 
L 203.852182 189.092632 
L 197.836136 189.092632 
z
" clip-path="url(#pcd58699b01)" style="fill: #1f77b4; fill-opacity: 0.5; stroke: #000000; stroke-width: 0.507273; stroke-linejoin: miter"/>
   </g>
   <g id="patch_24">
    <path d="M 203.852182 318.76 
L 209.868227 318.76 
L 209.868227 198.354586 
L 203.852182 198.354586 
z
" clip-path="url(#pcd58699b01)" style="fill: #1f77b4; fill-opacity: 0.5; stroke: #000000; stroke-width: 0.507273; stroke-linejoin: miter"/>
   </g>
   <g id="patch_25">
    <path d="M 209.868227 318.76 
L 215.884273 318.76 
L 215.884273 207.616541 
L 209.868227 207.616541 
z
" clip-path="url(#pcd58699b01)" style="fill: #1f77b4; fill-opacity: 0.5; stroke: #000000; stroke-width: 0.507273; stroke-linejoin: miter"/>
   </g>
   <g id="patch_26">
    <path d="M 215.884273 318.76 
L 221.900318 318.76 
L 221.900318 216.878496 
L 215.884273 216.878496 
z
" clip-path="url(#pcd58699b01)" style="fill: #1f77b4; fill-opacity: 0.5; stroke: #000000; stroke-width: 0.507273; stroke-linejoin: miter"/>
   </g>
   <g id="patch_27">
    <path d="M 221.900318 318.76 
L 227.916364 318.76 
L 227.916364 226.140451 
L 221.900318 226.140451 
z
" clip-path="url(#pcd58699b01)" style="fill: #1f77b4; fill-opacity: 0.5; stroke: #000000; stroke-width: 0.507273; stroke-linejoin: miter"/>
   </g>
   <g id="patch_28">
    <path d="M 227.916364 318.76 
L 233.932409 318.76 
L 233.932409 232.315088 
L 227.916364 232.315088 
z
" clip-path="url(#pcd58699b01)" style="fill: #1f77b4; fill-opacity: 0.5; stroke: #000000; stroke-width: 0.507273; stroke-linejoin: miter"/>
   </g>
   <g id="patch_29">
    <path d="M 233.932409 318.76 
L 239.948455 318.76 
L 239.948455 238.489724 
L 233.932409 238.489724 
z
" clip-path="url(#pcd58699b01)" style="fill: #1f77b4; fill-opacity: 0.5; stroke: #000000; stroke-width: 0.507273; stroke-linejoin: miter"/>
   </g>
   <g id="patch_30">
    <path d="M 239.948455 318.76 
L 245.9645 318.76 
L 245.9645 247.751679 
L 239.948455 247.751679 
z
" clip-path="url(#pcd58699b01)" style="fill: #1f77b4; fill-opacity: 0.5; stroke: #000000; stroke-width: 0.507273; stroke-linejoin: miter"/>
   </g>
   <g id="patch_31">
    <path d="M 245.9645 318.76 
L 251.980545 318.76 
L 251.980545 247.751679 
L 245.9645 247.751679 
z
" clip-path="url(#pcd58699b01)" style="fill: #1f77b4; fill-opacity: 0.5; stroke: #000000; stroke-width: 0.507273; stroke-linejoin: miter"/>
   </g>
   <g id="patch_32">
    <path d="M 251.980545 318.76 
L 257.996591 318.76 
L 257.996591 257.013634 
L 251.980545 257.013634 
z
" clip-path="url(#pcd58699b01)" style="fill: #1f77b4; fill-opacity: 0.5; stroke: #000000; stroke-width: 0.507273; stroke-linejoin: miter"/>
   </g>
   <g id="patch_33">
    <path d="M 257.996591 318.76 
L 264.012636 318.76 
L 264.012636 257.013634 
L 257.996591 257.013634 
z
" clip-path="url(#pcd58699b01)" style="fill: #1f77b4; fill-opacity: 0.5; stroke: #000000; stroke-width: 0.507273; stroke-linejoin: miter"/>
   </g>
   <g id="patch_34">
    <path d="M 264.012636 318.76 
L 270.028682 318.76 
L 270.028682 266.275589 
L 264.012636 266.275589 
z
" clip-path="url(#pcd58699b01)" style="fill: #1f77b4; fill-opacity: 0.5; stroke: #000000; stroke-width: 0.507273; stroke-linejoin: miter"/>
   </g>
   <g id="patch_35">
    <path d="M 270.028682 318.76 
L 276.044727 318.76 
L 276.044727 269.362907 
L 270.028682 269.362907 
z
" clip-path="url(#pcd58699b01)" style="fill: #1f77b4; fill-opacity: 0.5; stroke: #000000; stroke-width: 0.507273; stroke-linejoin: miter"/>
   </g>
   <g id="patch_36">
    <path d="M 276.044727 318.76 
L 282.060773 318.76 
L 282.060773 272.450226 
L 276.044727 272.450226 
z
" clip-path="url(#pcd58699b01)" style="fill: #1f77b4; fill-opacity: 0.5; stroke: #000000; stroke-width: 0.507273; stroke-linejoin: miter"/>
   </g>
   <g id="patch_37">
    <path d="M 282.060773 318.76 
L 288.076818 318.76 
L 288.076818 275.537544 
L 282.060773 275.537544 
z
" clip-path="url(#pcd58699b01)" style="fill: #1f77b4; fill-opacity: 0.5; stroke: #000000; stroke-width: 0.507273; stroke-linejoin: miter"/>
   </g>
   <g id="patch_38">
    <path d="M 288.076818 318.76 
L 294.092864 318.76 
L 294.092864 278.624862 
L 288.076818 278.624862 
z
" clip-path="url(#pcd58699b01)" style="fill: #1f77b4; fill-opacity: 0.5; stroke: #000000; stroke-width: 0.507273; stroke-linejoin: miter"/>
   </g>
   <g id="patch_39">
    <path d="M 294.092864 318.76 
L 300.108909 318.76 
L 300.108909 278.624862 
L 294.092864 278.624862 
z
" clip-path="url(#pcd58699b01)" style="fill: #1f77b4; fill-opacity: 0.5; stroke: #000000; stroke-width: 0.507273; stroke-linejoin: miter"/>
   </g>
   <g id="patch_40">
    <path d="M 300.108909 318.76 
L 306.124955 318.76 
L 306.124955 284.799499 
L 300.108909 284.799499 
z
" clip-path="url(#pcd58699b01)" style="fill: #1f77b4; fill-opacity: 0.5; stroke: #000000; stroke-width: 0.507273; stroke-linejoin: miter"/>
   </g>
   <g id="patch_41">
    <path d="M 306.124955 318.76 
L 312.141 318.76 
L 312.141 284.799499 
L 306.124955 284.799499 
z
" clip-path="url(#pcd58699b01)" style="fill: #1f77b4; fill-opacity: 0.5; stroke: #000000; stroke-width: 0.507273; stroke-linejoin: miter"/>
   </g>
   <g id="patch_42">
    <path d="M 312.141 318.76 
L 318.157045 318.76 
L 318.157045 287.886817 
L 312.141 287.886817 
z
" clip-path="url(#pcd58699b01)" style="fill: #1f77b4; fill-opacity: 0.5; stroke: #000000; stroke-width: 0.507273; stroke-linejoin: miter"/>
   </g>
   <g id="patch_43">
    <path d="M 318.157045 318.76 
L 324.173091 318.76 
L 324.173091 290.974135 
L 318.157045 290.974135 
z
" clip-path="url(#pcd58699b01)" style="fill: #1f77b4; fill-opacity: 0.5; stroke: #000000; stroke-width: 0.507273; stroke-linejoin: miter"/>
   </g>
   <g id="patch_44">
    <path d="M 324.173091 318.76 
L 330.189136 318.76 
L 330.189136 290.974135 
L 324.173091 290.974135 
z
" clip-path="url(#pcd58699b01)" style="fill: #1f77b4; fill-opacity: 0.5; stroke: #000000; stroke-width: 0.507273; stroke-linejoin: miter"/>
   </g>
   <g id="patch_45">
    <path d="M 330.189136 318.76 
L 336.205182 318.76 
L 336.205182 290.974135 
L 330.189136 290.974135 
z
" clip-path="url(#pcd58699b01)" style="fill: #1f77b4; fill-opacity: 0.5; stroke: #000000; stroke-width: 0.507273; stroke-linejoin: miter"/>
   </g>
   <g id="patch_46">
    <path d="M 336.205182 318.76 
L 342.221227 318.76 
L 342.221227 297.148772 
L 336.205182 297.148772 
z
" clip-path="url(#pcd58699b01)" style="fill: #1f77b4; fill-opacity: 0.5; stroke: #000000; stroke-width: 0.507273; stroke-linejoin: miter"/>
   </g>
   <g id="patch_47">
    <path d="M 342.221227 318.76 
L 348.237273 318.76 
L 348.237273 294.061454 
L 342.221227 294.061454 
z
" clip-path="url(#pcd58699b01)" style="fill: #1f77b4; fill-opacity: 0.5; stroke: #000000; stroke-width: 0.507273; stroke-linejoin: miter"/>
   </g>
   <g id="patch_48">
    <path d="M 348.237273 318.76 
L 354.253318 318.76 
L 354.253318 297.148772 
L 348.237273 297.148772 
z
" clip-path="url(#pcd58699b01)" style="fill: #1f77b4; fill-opacity: 0.5; stroke: #000000; stroke-width: 0.507273; stroke-linejoin: miter"/>
   </g>
   <g id="patch_49">
    <path d="M 354.253318 318.76 
L 360.269364 318.76 
L 360.269364 300.23609 
L 354.253318 300.23609 
z
" clip-path="url(#pcd58699b01)" style="fill: #1f77b4; fill-opacity: 0.5; stroke: #000000; stroke-width: 0.507273; stroke-linejoin: miter"/>
   </g>
   <g id="patch_50">
    <path d="M 360.269364 318.76 
L 366.285409 318.76 
L 366.285409 300.23609 
L 360.269364 300.23609 
z
" clip-path="url(#pcd58699b01)" style="fill: #1f77b4; fill-opacity: 0.5; stroke: #000000; stroke-width: 0.507273; stroke-linejoin: miter"/>
   </g>
   <g id="patch_51">
    <path d="M 366.285409 318.76 
L 372.301455 318.76 
L 372.301455 300.23609 
L 366.285409 300.23609 
z
" clip-path="url(#pcd58699b01)" style="fill: #1f77b4; fill-opacity: 0.5; stroke: #000000; stroke-width: 0.507273; stroke-linejoin: miter"/>
   </g>
   <g id="patch_52">
    <path d="M 372.301455 318.76 
L 378.3175 318.76 
L 378.3175 303.323409 
L 372.301455 303.323409 
z
" clip-path="url(#pcd58699b01)" style="fill: #1f77b4; fill-opacity: 0.5; stroke: #000000; stroke-width: 0.507273; stroke-linejoin: miter"/>
   </g>
   <g id="patch_53">
    <path d="M 378.3175 318.76 
L 384.333545 318.76 
L 384.333545 303.323409 
L 378.3175 303.323409 
z
" clip-path="url(#pcd58699b01)" style="fill: #1f77b4; fill-opacity: 0.5; stroke: #000000; stroke-width: 0.507273; stroke-linejoin: miter"/>
   </g>
   <g id="patch_54">
    <path d="M 384.333545 318.76 
L 390.349591 318.76 
L 390.349591 303.323409 
L 384.333545 303.323409 
z
" clip-path="url(#pcd58699b01)" style="fill: #1f77b4; fill-opacity: 0.5; stroke: #000000; stroke-width: 0.507273; stroke-linejoin: miter"/>
   </g>
   <g id="patch_55">
    <path d="M 390.349591 318.76 
L 396.365636 318.76 
L 396.365636 306.410727 
L 390.349591 306.410727 
z
" clip-path="url(#pcd58699b01)" style="fill: #1f77b4; fill-opacity: 0.5; stroke: #000000; stroke-width: 0.507273; stroke-linejoin: miter"/>
   </g>
   <g id="patch_56">
    <path d="M 396.365636 318.76 
L 402.381682 318.76 
L 402.381682 303.323409 
L 396.365636 303.323409 
z
" clip-path="url(#pcd58699b01)" style="fill: #1f77b4; fill-opacity: 0.5; stroke: #000000; stroke-width: 0.507273; stroke-linejoin: miter"/>
   </g>
   <g id="patch_57">
    <path d="M 402.381682 318.76 
L 408.397727 318.76 
L 408.397727 306.410727 
L 402.381682 306.410727 
z
" clip-path="url(#pcd58699b01)" style="fill: #1f77b4; fill-opacity: 0.5; stroke: #000000; stroke-width: 0.507273; stroke-linejoin: miter"/>
   </g>
   <g id="patch_58">
    <path d="M 408.397727 318.76 
L 414.413773 318.76 
L 414.413773 306.410727 
L 408.397727 306.410727 
z
" clip-path="url(#pcd58699b01)" style="fill: #1f77b4; fill-opacity: 0.5; stroke: #000000; stroke-width: 0.507273; stroke-linejoin: miter"/>
   </g>
   <g id="patch_59">
    <path d="M 414.413773 318.76 
L 420.429818 318.76 
L 420.429818 309.498045 
L 414.413773 309.498045 
z
" clip-path="url(#pcd58699b01)" style="fill: #1f77b4; fill-opacity: 0.5; stroke: #000000; stroke-width: 0.507273; stroke-linejoin: miter"/>
   </g>
   <g id="patch_60">
    <path d="M 420.429818 318.76 
L 426.445864 318.76 
L 426.445864 303.323409 
L 420.429818 303.323409 
z
" clip-path="url(#pcd58699b01)" style="fill: #1f77b4; fill-opacity: 0.5; stroke: #000000; stroke-width: 0.507273; stroke-linejoin: miter"/>
   </g>
   <g id="patch_61">
    <path d="M 426.445864 318.76 
L 432.461909 318.76 
L 432.461909 309.498045 
L 426.445864 309.498045 
z
" clip-path="url(#pcd58699b01)" style="fill: #1f77b4; fill-opacity: 0.5; stroke: #000000; stroke-width: 0.507273; stroke-linejoin: miter"/>
   </g>
   <g id="patch_62">
    <path d="M 432.461909 318.76 
L 438.477955 318.76 
L 438.477955 309.498045 
L 432.461909 309.498045 
z
" clip-path="url(#pcd58699b01)" style="fill: #1f77b4; fill-opacity: 0.5; stroke: #000000; stroke-width: 0.507273; stroke-linejoin: miter"/>
   </g>
   <g id="patch_63">
    <path d="M 438.477955 318.76 
L 444.494 318.76 
L 444.494 309.498045 
L 438.477955 309.498045 
z
" clip-path="url(#pcd58699b01)" style="fill: #1f77b4; fill-opacity: 0.5; stroke: #000000; stroke-width: 0.507273; stroke-linejoin: miter"/>
   </g>
   <g id="patch_64">
    <path d="M 444.494 318.76 
L 450.510045 318.76 
L 450.510045 312.585363 
L 444.494 312.585363 
z
" clip-path="url(#pcd58699b01)" style="fill: #1f77b4; fill-opacity: 0.5; stroke: #000000; stroke-width: 0.507273; stroke-linejoin: miter"/>
   </g>
   <g id="patch_65">
    <path d="M 450.510045 318.76 
L 456.526091 318.76 
L 456.526091 309.498045 
L 450.510045 309.498045 
z
" clip-path="url(#pcd58699b01)" style="fill: #1f77b4; fill-opacity: 0.5; stroke: #000000; stroke-width: 0.507273; stroke-linejoin: miter"/>
   </g>
   <g id="patch_66">
    <path d="M 456.526091 318.76 
L 462.542136 318.76 
L 462.542136 309.498045 
L 456.526091 309.498045 
z
" clip-path="url(#pcd58699b01)" style="fill: #1f77b4; fill-opacity: 0.5; stroke: #000000; stroke-width: 0.507273; stroke-linejoin: miter"/>
   </g>
   <g id="patch_67">
    <path d="M 462.542136 318.76 
L 468.558182 318.76 
L 468.558182 309.498045 
L 462.542136 309.498045 
z
" clip-path="url(#pcd58699b01)" style="fill: #1f77b4; fill-opacity: 0.5; stroke: #000000; stroke-width: 0.507273; stroke-linejoin: miter"/>
   </g>
   <g id="patch_68">
    <path d="M 468.558182 318.76 
L 474.574227 318.76 
L 474.574227 312.585363 
L 468.558182 312.585363 
z
" clip-path="url(#pcd58699b01)" style="fill: #1f77b4; fill-opacity: 0.5; stroke: #000000; stroke-width: 0.507273; stroke-linejoin: miter"/>
   </g>
   <g id="patch_69">
    <path d="M 474.574227 318.76 
L 480.590273 318.76 
L 480.590273 312.585363 
L 474.574227 312.585363 
z
" clip-path="url(#pcd58699b01)" style="fill: #1f77b4; fill-opacity: 0.5; stroke: #000000; stroke-width: 0.507273; stroke-linejoin: miter"/>
   </g>
   <g id="patch_70">
    <path d="M 480.590273 318.76 
L 486.606318 318.76 
L 486.606318 309.498045 
L 480.590273 309.498045 
z
" clip-path="url(#pcd58699b01)" style="fill: #1f77b4; fill-opacity: 0.5; stroke: #000000; stroke-width: 0.507273; stroke-linejoin: miter"/>
   </g>
   <g id="patch_71">
    <path d="M 486.606318 318.76 
L 492.622364 318.76 
L 492.622364 315.672682 
L 486.606318 315.672682 
z
" clip-path="url(#pcd58699b01)" style="fill: #1f77b4; fill-opacity: 0.5; stroke: #000000; stroke-width: 0.507273; stroke-linejoin: miter"/>
   </g>
   <g id="patch_72">
    <path d="M 492.622364 318.76 
L 498.638409 318.76 
L 498.638409 312.585363 
L 492.622364 312.585363 
z
" clip-path="url(#pcd58699b01)" style="fill: #1f77b4; fill-opacity: 0.5; stroke: #000000; stroke-width: 0.507273; stroke-linejoin: miter"/>
   </g>
   <g id="patch_73">
    <path d="M 498.638409 318.76 
L 504.654455 318.76 
L 504.654455 312.585363 
L 498.638409 312.585363 
z
" clip-path="url(#pcd58699b01)" style="fill: #1f77b4; fill-opacity: 0.5; stroke: #000000; stroke-width: 0.507273; stroke-linejoin: miter"/>
   </g>
   <g id="patch_74">
    <path d="M 504.654455 318.76 
L 510.6705 318.76 
L 510.6705 312.585363 
L 504.654455 312.585363 
z
" clip-path="url(#pcd58699b01)" style="fill: #1f77b4; fill-opacity: 0.5; stroke: #000000; stroke-width: 0.507273; stroke-linejoin: miter"/>
   </g>
   <g id="patch_75">
    <path d="M 510.6705 318.76 
L 516.686545 318.76 
L 516.686545 312.585363 
L 510.6705 312.585363 
z
" clip-path="url(#pcd58699b01)" style="fill: #1f77b4; fill-opacity: 0.5; stroke: #000000; stroke-width: 0.507273; stroke-linejoin: miter"/>
   </g>
   <g id="patch_76">
    <path d="M 516.686545 318.76 
L 522.702591 318.76 
L 522.702591 312.585363 
L 516.686545 312.585363 
z
" clip-path="url(#pcd58699b01)" style="fill: #1f77b4; fill-opacity: 0.5; stroke: #000000; stroke-width: 0.507273; stroke-linejoin: miter"/>
   </g>
   <g id="patch_77">
    <path d="M 522.702591 318.76 
L 528.718636 318.76 
L 528.718636 318.76 
L 522.702591 318.76 
z
" clip-path="url(#pcd58699b01)" style="fill: #1f77b4; fill-opacity: 0.5; stroke: #000000; stroke-width: 0.507273; stroke-linejoin: miter"/>
   </g>
   <g id="patch_78">
    <path d="M 528.718636 318.76 
L 534.734682 318.76 
L 534.734682 312.585363 
L 528.718636 312.585363 
z
" clip-path="url(#pcd58699b01)" style="fill: #1f77b4; fill-opacity: 0.5; stroke: #000000; stroke-width: 0.507273; stroke-linejoin: miter"/>
   </g>
   <g id="patch_79">
    <path d="M 534.734682 318.76 
L 540.750727 318.76 
L 540.750727 312.585363 
L 534.734682 312.585363 
z
" clip-path="url(#pcd58699b01)" style="fill: #1f77b4; fill-opacity: 0.5; stroke: #000000; stroke-width: 0.507273; stroke-linejoin: miter"/>
   </g>
   <g id="patch_80">
    <path d="M 540.750727 318.76 
L 546.766773 318.76 
L 546.766773 312.585363 
L 540.750727 312.585363 
z
" clip-path="url(#pcd58699b01)" style="fill: #1f77b4; fill-opacity: 0.5; stroke: #000000; stroke-width: 0.507273; stroke-linejoin: miter"/>
   </g>
   <g id="patch_81">
    <path d="M 546.766773 318.76 
L 552.782818 318.76 
L 552.782818 318.76 
L 546.766773 318.76 
z
" clip-path="url(#pcd58699b01)" style="fill: #1f77b4; fill-opacity: 0.5; stroke: #000000; stroke-width: 0.507273; stroke-linejoin: miter"/>
   </g>
   <g id="patch_82">
    <path d="M 552.782818 318.76 
L 558.798864 318.76 
L 558.798864 315.672682 
L 552.782818 315.672682 
z
" clip-path="url(#pcd58699b01)" style="fill: #1f77b4; fill-opacity: 0.5; stroke: #000000; stroke-width: 0.507273; stroke-linejoin: miter"/>
   </g>
   <g id="patch_83">
    <path d="M 558.798864 318.76 
L 564.814909 318.76 
L 564.814909 312.585363 
L 558.798864 312.585363 
z
" clip-path="url(#pcd58699b01)" style="fill: #1f77b4; fill-opacity: 0.5; stroke: #000000; stroke-width: 0.507273; stroke-linejoin: miter"/>
   </g>
   <g id="patch_84">
    <path d="M 564.814909 318.76 
L 570.830955 318.76 
L 570.830955 315.672682 
L 564.814909 315.672682 
z
" clip-path="url(#pcd58699b01)" style="fill: #1f77b4; fill-opacity: 0.5; stroke: #000000; stroke-width: 0.507273; stroke-linejoin: miter"/>
   </g>
   <g id="patch_85">
    <path d="M 570.830955 318.76 
L 576.847 318.76 
L 576.847 315.672682 
L 570.830955 315.672682 
z
" clip-path="url(#pcd58699b01)" style="fill: #1f77b4; fill-opacity: 0.5; stroke: #000000; stroke-width: 0.507273; stroke-linejoin: miter"/>
   </g>
   <g id="patch_86">
    <path d="M 576.847 318.76 
L 582.863045 318.76 
L 582.863045 315.672682 
L 576.847 315.672682 
z
" clip-path="url(#pcd58699b01)" style="fill: #1f77b4; fill-opacity: 0.5; stroke: #000000; stroke-width: 0.507273; stroke-linejoin: miter"/>
   </g>
   <g id="patch_87">
    <path d="M 582.863045 318.76 
L 588.879091 318.76 
L 588.879091 312.585363 
L 582.863045 312.585363 
z
" clip-path="url(#pcd58699b01)" style="fill: #1f77b4; fill-opacity: 0.5; stroke: #000000; stroke-width: 0.507273; stroke-linejoin: miter"/>
   </g>
   <g id="patch_88">
    <path d="M 588.879091 318.76 
L 594.895136 318.76 
L 594.895136 318.76 
L 588.879091 318.76 
z
" clip-path="url(#pcd58699b01)" style="fill: #1f77b4; fill-opacity: 0.5; stroke: #000000; stroke-width: 0.507273; stroke-linejoin: miter"/>
   </g>
   <g id="patch_89">
    <path d="M 594.895136 318.76 
L 600.911182 318.76 
L 600.911182 315.672682 
L 594.895136 315.672682 
z
" clip-path="url(#pcd58699b01)" style="fill: #1f77b4; fill-opacity: 0.5; stroke: #000000; stroke-width: 0.507273; stroke-linejoin: miter"/>
   </g>
   <g id="patch_90">
    <path d="M 600.911182 318.76 
L 606.927227 318.76 
L 606.927227 315.672682 
L 600.911182 315.672682 
z
" clip-path="url(#pcd58699b01)" style="fill: #1f77b4; fill-opacity: 0.5; stroke: #000000; stroke-width: 0.507273; stroke-linejoin: miter"/>
   </g>
   <g id="patch_91">
    <path d="M 606.927227 318.76 
L 612.943273 318.76 
L 612.943273 315.672682 
L 606.927227 315.672682 
z
" clip-path="url(#pcd58699b01)" style="fill: #1f77b4; fill-opacity: 0.5; stroke: #000000; stroke-width: 0.507273; stroke-linejoin: miter"/>
   </g>
   <g id="patch_92">
    <path d="M 612.943273 318.76 
L 618.959318 318.76 
L 618.959318 315.672682 
L 612.943273 315.672682 
z
" clip-path="url(#pcd58699b01)" style="fill: #1f77b4; fill-opacity: 0.5; stroke: #000000; stroke-width: 0.507273; stroke-linejoin: miter"/>
   </g>
   <g id="patch_93">
    <path d="M 618.959318 318.76 
L 624.975364 318.76 
L 624.975364 318.76 
L 618.959318 318.76 
z
" clip-path="url(#pcd58699b01)" style="fill: #1f77b4; fill-opacity: 0.5; stroke: #000000; stroke-width: 0.507273; stroke-linejoin: miter"/>
   </g>
   <g id="patch_94">
    <path d="M 624.975364 318.76 
L 630.991409 318.76 
L 630.991409 312.585363 
L 624.975364 312.585363 
z
" clip-path="url(#pcd58699b01)" style="fill: #1f77b4; fill-opacity: 0.5; stroke: #000000; stroke-width: 0.507273; stroke-linejoin: miter"/>
   </g>
   <g id="patch_95">
    <path d="M 630.991409 318.76 
L 637.007455 318.76 
L 637.007455 318.76 
L 630.991409 318.76 
z
" clip-path="url(#pcd58699b01)" style="fill: #1f77b4; fill-opacity: 0.5; stroke: #000000; stroke-width: 0.507273; stroke-linejoin: miter"/>
   </g>
   <g id="patch_96">
    <path d="M 637.007455 318.76 
L 643.0235 318.76 
L 643.0235 315.672682 
L 637.007455 315.672682 
z
" clip-path="url(#pcd58699b01)" style="fill: #1f77b4; fill-opacity: 0.5; stroke: #000000; stroke-width: 0.507273; stroke-linejoin: miter"/>
   </g>
   <g id="patch_97">
    <path d="M 643.0235 318.76 
L 649.039545 318.76 
L 649.039545 315.672682 
L 643.0235 315.672682 
z
" clip-path="url(#pcd58699b01)" style="fill: #1f77b4; fill-opacity: 0.5; stroke: #000000; stroke-width: 0.507273; stroke-linejoin: miter"/>
   </g>
   <g id="patch_98">
    <path d="M 649.039545 318.76 
L 655.055591 318.76 
L 655.055591 318.76 
L 649.039545 318.76 
z
" clip-path="url(#pcd58699b01)" style="fill: #1f77b4; fill-opacity: 0.5; stroke: #000000; stroke-width: 0.507273; stroke-linejoin: miter"/>
   </g>
   <g id="patch_99">
    <path d="M 655.055591 318.76 
L 661.071636 318.76 
L 661.071636 315.672682 
L 655.055591 315.672682 
z
" clip-path="url(#pcd58699b01)" style="fill: #1f77b4; fill-opacity: 0.5; stroke: #000000; stroke-width: 0.507273; stroke-linejoin: miter"/>
   </g>
   <g id="patch_100">
    <path d="M 661.071636 318.76 
L 667.087682 318.76 
L 667.087682 315.672682 
L 661.071636 315.672682 
z
" clip-path="url(#pcd58699b01)" style="fill: #1f77b4; fill-opacity: 0.5; stroke: #000000; stroke-width: 0.507273; stroke-linejoin: miter"/>
   </g>
   <g id="patch_101">
    <path d="M 667.087682 318.76 
L 673.103727 318.76 
L 673.103727 318.76 
L 667.087682 318.76 
z
" clip-path="url(#pcd58699b01)" style="fill: #1f77b4; fill-opacity: 0.5; stroke: #000000; stroke-width: 0.507273; stroke-linejoin: miter"/>
   </g>
   <g id="patch_102">
    <path d="M 673.103727 318.76 
L 679.119773 318.76 
L 679.119773 315.672682 
L 673.103727 315.672682 
z
" clip-path="url(#pcd58699b01)" style="fill: #1f77b4; fill-opacity: 0.5; stroke: #000000; stroke-width: 0.507273; stroke-linejoin: miter"/>
   </g>
   <g id="matplotlib.axis_1">
    <g id="xtick_1">
     <g id="line2d_1">
      <path d="M 64.50464 318.76 
L 64.50464 10.8 
" clip-path="url(#pcd58699b01)" style="fill: none; stroke: #b0b0b0; stroke-opacity: 0.3; stroke-width: 0.8; stroke-linecap: square"/>
     </g>
     <g id="line2d_2">
      <defs>
       <path id="mf1d04a7aca" d="M 0 0 
L 0 3.5 
" style="stroke: #000000; stroke-width: 0.8"/>
      </defs>
      <g>
       <use xlink:href="#mf1d04a7aca" x="64.50464" y="318.76" style="stroke: #000000; stroke-width: 0.8"/>
      </g>
     </g>
     <g id="text_1">
      <!-- 7 -->
      <g transform="translate(61.32339 333.358438) scale(0.1 -0.1)">
       <defs>
        <path id="DejaVuSans-37" d="M 525 4666 
L 3525 4666 
L 3525 4397 
L 1831 0 
L 1172 0 
L 2766 4134 
L 525 4134 
L 525 4666 
z
" transform="scale(0.015625)"/>
       </defs>
       <use xlink:href="#DejaVuSans-37"/>
      </g>
     </g>
    </g>
    <g id="xtick_2">
     <g id="line2d_3">
      <path d="M 159.360321 318.76 
L 159.360321 10.8 
" clip-path="url(#pcd58699b01)" style="fill: none; stroke: #b0b0b0; stroke-opacity: 0.3; stroke-width: 0.8; stroke-linecap: square"/>
     </g>
     <g id="line2d_4">
      <g>
       <use xlink:href="#mf1d04a7aca" x="159.360321" y="318.76" style="stroke: #000000; stroke-width: 0.8"/>
      </g>
     </g>
     <g id="text_2">
      <!-- 8 -->
      <g transform="translate(156.179071 333.358438) scale(0.1 -0.1)">
       <defs>
        <path id="DejaVuSans-38" d="M 2034 2216 
Q 1584 2216 1326 1975 
Q 1069 1734 1069 1313 
Q 1069 891 1326 650 
Q 1584 409 2034 409 
Q 2484 409 2743 651 
Q 3003 894 3003 1313 
Q 3003 1734 2745 1975 
Q 2488 2216 2034 2216 
z
M 1403 2484 
Q 997 2584 770 2862 
Q 544 3141 544 3541 
Q 544 4100 942 4425 
Q 1341 4750 2034 4750 
Q 2731 4750 3128 4425 
Q 3525 4100 3525 3541 
Q 3525 3141 3298 2862 
Q 3072 2584 2669 2484 
Q 3125 2378 3379 2068 
Q 3634 1759 3634 1313 
Q 3634 634 3220 271 
Q 2806 -91 2034 -91 
Q 1263 -91 848 271 
Q 434 634 434 1313 
Q 434 1759 690 2068 
Q 947 2378 1403 2484 
z
M 1172 3481 
Q 1172 3119 1398 2916 
Q 1625 2713 2034 2713 
Q 2441 2713 2670 2916 
Q 2900 3119 2900 3481 
Q 2900 3844 2670 4047 
Q 2441 4250 2034 4250 
Q 1625 4250 1398 4047 
Q 1172 3844 1172 3481 
z
" transform="scale(0.015625)"/>
       </defs>
       <use xlink:href="#DejaVuSans-38"/>
      </g>
     </g>
    </g>
    <g id="xtick_3">
     <g id="line2d_5">
      <path d="M 254.216002 318.76 
L 254.216002 10.8 
" clip-path="url(#pcd58699b01)" style="fill: none; stroke: #b0b0b0; stroke-opacity: 0.3; stroke-width: 0.8; stroke-linecap: square"/>
     </g>
     <g id="line2d_6">
      <g>
       <use xlink:href="#mf1d04a7aca" x="254.216002" y="318.76" style="stroke: #000000; stroke-width: 0.8"/>
      </g>
     </g>
     <g id="text_3">
      <!-- 9 -->
      <g transform="translate(251.034752 333.358438) scale(0.1 -0.1)">
       <defs>
        <path id="DejaVuSans-39" d="M 703 97 
L 703 672 
Q 941 559 1184 500 
Q 1428 441 1663 441 
Q 2288 441 2617 861 
Q 2947 1281 2994 2138 
Q 2813 1869 2534 1725 
Q 2256 1581 1919 1581 
Q 1219 1581 811 2004 
Q 403 2428 403 3163 
Q 403 3881 828 4315 
Q 1253 4750 1959 4750 
Q 2769 4750 3195 4129 
Q 3622 3509 3622 2328 
Q 3622 1225 3098 567 
Q 2575 -91 1691 -91 
Q 1453 -91 1209 -44 
Q 966 3 703 97 
z
M 1959 2075 
Q 2384 2075 2632 2365 
Q 2881 2656 2881 3163 
Q 2881 3666 2632 3958 
Q 2384 4250 1959 4250 
Q 1534 4250 1286 3958 
Q 1038 3666 1038 3163 
Q 1038 2656 1286 2365 
Q 1534 2075 1959 2075 
z
" transform="scale(0.015625)"/>
       </defs>
       <use xlink:href="#DejaVuSans-39"/>
      </g>
     </g>
    </g>
    <g id="xtick_4">
     <g id="line2d_7">
      <path d="M 349.071683 318.76 
L 349.071683 10.8 
" clip-path="url(#pcd58699b01)" style="fill: none; stroke: #b0b0b0; stroke-opacity: 0.3; stroke-width: 0.8; stroke-linecap: square"/>
     </g>
     <g id="line2d_8">
      <g>
       <use xlink:href="#mf1d04a7aca" x="349.071683" y="318.76" style="stroke: #000000; stroke-width: 0.8"/>
      </g>
     </g>
     <g id="text_4">
      <!-- 10 -->
      <g transform="translate(342.709183 333.358438) scale(0.1 -0.1)">
       <defs>
        <path id="DejaVuSans-31" d="M 794 531 
L 1825 531 
L 1825 4091 
L 703 3866 
L 703 4441 
L 1819 4666 
L 2450 4666 
L 2450 531 
L 3481 531 
L 3481 0 
L 794 0 
L 794 531 
z
" transform="scale(0.015625)"/>
        <path id="DejaVuSans-30" d="M 2034 4250 
Q 1547 4250 1301 3770 
Q 1056 3291 1056 2328 
Q 1056 1369 1301 889 
Q 1547 409 2034 409 
Q 2525 409 2770 889 
Q 3016 1369 3016 2328 
Q 3016 3291 2770 3770 
Q 2525 4250 2034 4250 
z
M 2034 4750 
Q 2819 4750 3233 4129 
Q 3647 3509 3647 2328 
Q 3647 1150 3233 529 
Q 2819 -91 2034 -91 
Q 1250 -91 836 529 
Q 422 1150 422 2328 
Q 422 3509 836 4129 
Q 1250 4750 2034 4750 
z
" transform="scale(0.015625)"/>
       </defs>
       <use xlink:href="#DejaVuSans-31"/>
       <use xlink:href="#DejaVuSans-30" transform="translate(63.623047 0)"/>
      </g>
     </g>
    </g>
    <g id="xtick_5">
     <g id="line2d_9">
      <path d="M 443.927364 318.76 
L 443.927364 10.8 
" clip-path="url(#pcd58699b01)" style="fill: none; stroke: #b0b0b0; stroke-opacity: 0.3; stroke-width: 0.8; stroke-linecap: square"/>
     </g>
     <g id="line2d_10">
      <g>
       <use xlink:href="#mf1d04a7aca" x="443.927364" y="318.76" style="stroke: #000000; stroke-width: 0.8"/>
      </g>
     </g>
     <g id="text_5">
      <!-- 11 -->
      <g transform="translate(437.564864 333.358438) scale(0.1 -0.1)">
       <use xlink:href="#DejaVuSans-31"/>
       <use xlink:href="#DejaVuSans-31" transform="translate(63.623047 0)"/>
      </g>
     </g>
    </g>
    <g id="xtick_6">
     <g id="line2d_11">
      <path d="M 538.783045 318.76 
L 538.783045 10.8 
" clip-path="url(#pcd58699b01)" style="fill: none; stroke: #b0b0b0; stroke-opacity: 0.3; stroke-width: 0.8; stroke-linecap: square"/>
     </g>
     <g id="line2d_12">
      <g>
       <use xlink:href="#mf1d04a7aca" x="538.783045" y="318.76" style="stroke: #000000; stroke-width: 0.8"/>
      </g>
     </g>
     <g id="text_6">
      <!-- 12 -->
      <g transform="translate(532.420545 333.358438) scale(0.1 -0.1)">
       <defs>
        <path id="DejaVuSans-32" d="M 1228 531 
L 3431 531 
L 3431 0 
L 469 0 
L 469 531 
Q 828 903 1448 1529 
Q 2069 2156 2228 2338 
Q 2531 2678 2651 2914 
Q 2772 3150 2772 3378 
Q 2772 3750 2511 3984 
Q 2250 4219 1831 4219 
Q 1534 4219 1204 4116 
Q 875 4013 500 3803 
L 500 4441 
Q 881 4594 1212 4672 
Q 1544 4750 1819 4750 
Q 2544 4750 2975 4387 
Q 3406 4025 3406 3419 
Q 3406 3131 3298 2873 
Q 3191 2616 2906 2266 
Q 2828 2175 2409 1742 
Q 1991 1309 1228 531 
z
" transform="scale(0.015625)"/>
       </defs>
       <use xlink:href="#DejaVuSans-31"/>
       <use xlink:href="#DejaVuSans-32" transform="translate(63.623047 0)"/>
      </g>
     </g>
    </g>
    <g id="xtick_7">
     <g id="line2d_13">
      <path d="M 633.638725 318.76 
L 633.638725 10.8 
" clip-path="url(#pcd58699b01)" style="fill: none; stroke: #b0b0b0; stroke-opacity: 0.3; stroke-width: 0.8; stroke-linecap: square"/>
     </g>
     <g id="line2d_14">
      <g>
       <use xlink:href="#mf1d04a7aca" x="633.638725" y="318.76" style="stroke: #000000; stroke-width: 0.8"/>
      </g>
     </g>
     <g id="text_7">
      <!-- 13 -->
      <g transform="translate(627.276225 333.358438) scale(0.1 -0.1)">
       <defs>
        <path id="DejaVuSans-33" d="M 2597 2516 
Q 3050 2419 3304 2112 
Q 3559 1806 3559 1356 
Q 3559 666 3084 287 
Q 2609 -91 1734 -91 
Q 1441 -91 1130 -33 
Q 819 25 488 141 
L 488 750 
Q 750 597 1062 519 
Q 1375 441 1716 441 
Q 2309 441 2620 675 
Q 2931 909 2931 1356 
Q 2931 1769 2642 2001 
Q 2353 2234 1838 2234 
L 1294 2234 
L 1294 2753 
L 1863 2753 
Q 2328 2753 2575 2939 
Q 2822 3125 2822 3475 
Q 2822 3834 2567 4026 
Q 2313 4219 1838 4219 
Q 1578 4219 1281 4162 
Q 984 4106 628 3988 
L 628 4550 
Q 988 4650 1302 4700 
Q 1616 4750 1894 4750 
Q 2613 4750 3031 4423 
Q 3450 4097 3450 3541 
Q 3450 3153 3228 2886 
Q 3006 2619 2597 2516 
z
" transform="scale(0.015625)"/>
       </defs>
       <use xlink:href="#DejaVuSans-31"/>
       <use xlink:href="#DejaVuSans-33" transform="translate(63.623047 0)"/>
      </g>
     </g>
    </g>
    <g id="text_8">
     <!-- MTOM (kg) -->
     <g transform="translate(351.139375 347.036563) scale(0.1 -0.1)">
      <defs>
       <path id="DejaVuSans-4d" d="M 628 4666 
L 1569 4666 
L 2759 1491 
L 3956 4666 
L 4897 4666 
L 4897 0 
L 4281 0 
L 4281 4097 
L 3078 897 
L 2444 897 
L 1241 4097 
L 1241 0 
L 628 0 
L 628 4666 
z
" transform="scale(0.015625)"/>
       <path id="DejaVuSans-54" d="M -19 4666 
L 3928 4666 
L 3928 4134 
L 2272 4134 
L 2272 0 
L 1638 0 
L 1638 4134 
L -19 4134 
L -19 4666 
z
" transform="scale(0.015625)"/>
       <path id="DejaVuSans-4f" d="M 2522 4238 
Q 1834 4238 1429 3725 
Q 1025 3213 1025 2328 
Q 1025 1447 1429 934 
Q 1834 422 2522 422 
Q 3209 422 3611 934 
Q 4013 1447 4013 2328 
Q 4013 3213 3611 3725 
Q 3209 4238 2522 4238 
z
M 2522 4750 
Q 3503 4750 4090 4092 
Q 4678 3434 4678 2328 
Q 4678 1225 4090 567 
Q 3503 -91 2522 -91 
Q 1538 -91 948 565 
Q 359 1222 359 2328 
Q 359 3434 948 4092 
Q 1538 4750 2522 4750 
z
" transform="scale(0.015625)"/>
       <path id="DejaVuSans-20" transform="scale(0.015625)"/>
       <path id="DejaVuSans-28" d="M 1984 4856 
Q 1566 4138 1362 3434 
Q 1159 2731 1159 2009 
Q 1159 1288 1364 580 
Q 1569 -128 1984 -844 
L 1484 -844 
Q 1016 -109 783 600 
Q 550 1309 550 2009 
Q 550 2706 781 3412 
Q 1013 4119 1484 4856 
L 1984 4856 
z
" transform="scale(0.015625)"/>
       <path id="DejaVuSans-6b" d="M 581 4863 
L 1159 4863 
L 1159 1991 
L 2875 3500 
L 3609 3500 
L 1753 1863 
L 3688 0 
L 2938 0 
L 1159 1709 
L 1159 0 
L 581 0 
L 581 4863 
z
" transform="scale(0.015625)"/>
       <path id="DejaVuSans-67" d="M 2906 1791 
Q 2906 2416 2648 2759 
Q 2391 3103 1925 3103 
Q 1463 3103 1205 2759 
Q 947 2416 947 1791 
Q 947 1169 1205 825 
Q 1463 481 1925 481 
Q 2391 481 2648 825 
Q 2906 1169 2906 1791 
z
M 3481 434 
Q 3481 -459 3084 -895 
Q 2688 -1331 1869 -1331 
Q 1566 -1331 1297 -1286 
Q 1028 -1241 775 -1147 
L 775 -588 
Q 1028 -725 1275 -790 
Q 1522 -856 1778 -856 
Q 2344 -856 2625 -561 
Q 2906 -266 2906 331 
L 2906 616 
Q 2728 306 2450 153 
Q 2172 0 1784 0 
Q 1141 0 747 490 
Q 353 981 353 1791 
Q 353 2603 747 3093 
Q 1141 3584 1784 3584 
Q 2172 3584 2450 3431 
Q 2728 3278 2906 2969 
L 2906 3500 
L 3481 3500 
L 3481 434 
z
" transform="scale(0.015625)"/>
       <path id="DejaVuSans-29" d="M 513 4856 
L 1013 4856 
Q 1481 4119 1714 3412 
Q 1947 2706 1947 2009 
Q 1947 1309 1714 600 
Q 1481 -109 1013 -844 
L 513 -844 
Q 928 -128 1133 580 
Q 1338 1288 1338 2009 
Q 1338 2731 1133 3434 
Q 928 4138 513 4856 
z
" transform="scale(0.015625)"/>
      </defs>
      <use xlink:href="#DejaVuSans-4d"/>
      <use xlink:href="#DejaVuSans-54" transform="translate(86.279297 0)"/>
      <use xlink:href="#DejaVuSans-4f" transform="translate(147.363281 0)"/>
      <use xlink:href="#DejaVuSans-4d" transform="translate(226.074219 0)"/>
      <use xlink:href="#DejaVuSans-20" transform="translate(312.353516 0)"/>
      <use xlink:href="#DejaVuSans-28" transform="translate(344.140625 0)"/>
      <use xlink:href="#DejaVuSans-6b" transform="translate(383.154297 0)"/>
      <use xlink:href="#DejaVuSans-67" transform="translate(441.064453 0)"/>
      <use xlink:href="#DejaVuSans-29" transform="translate(504.541016 0)"/>
     </g>
    </g>
   </g>
   <g id="matplotlib.axis_2">
    <g id="ytick_1">
     <g id="line2d_15">
      <path d="M 47.435 318.76 
L 709.2 318.76 
" clip-path="url(#pcd58699b01)" style="fill: none; stroke: #b0b0b0; stroke-opacity: 0.3; stroke-width: 0.8; stroke-linecap: square"/>
     </g>
     <g id="line2d_16">
      <defs>
       <path id="m7875f1dffe" d="M 0 0 
L -3.5 0 
" style="stroke: #000000; stroke-width: 0.8"/>
      </defs>
      <g>
       <use xlink:href="#m7875f1dffe" x="47.435" y="318.76" style="stroke: #000000; stroke-width: 0.8"/>
      </g>
     </g>
     <g id="text_9">
      <!-- 0.0 -->
      <g transform="translate(24.531875 322.559219) scale(0.1 -0.1)">
       <defs>
        <path id="DejaVuSans-2e" d="M 684 794 
L 1344 794 
L 1344 0 
L 684 0 
L 684 794 
z
" transform="scale(0.015625)"/>
       </defs>
       <use xlink:href="#DejaVuSans-30"/>
       <use xlink:href="#DejaVuSans-2e" transform="translate(63.623047 0)"/>
       <use xlink:href="#DejaVuSans-30" transform="translate(95.410156 0)"/>
      </g>
     </g>
    </g>
    <g id="ytick_2">
     <g id="line2d_17">
      <path d="M 47.435 281.282458 
L 709.2 281.282458 
" clip-path="url(#pcd58699b01)" style="fill: none; stroke: #b0b0b0; stroke-opacity: 0.3; stroke-width: 0.8; stroke-linecap: square"/>
     </g>
     <g id="line2d_18">
      <g>
       <use xlink:href="#m7875f1dffe" x="47.435" y="281.282458" style="stroke: #000000; stroke-width: 0.8"/>
      </g>
     </g>
     <g id="text_10">
      <!-- 0.1 -->
      <g transform="translate(24.531875 285.081676) scale(0.1 -0.1)">
       <use xlink:href="#DejaVuSans-30"/>
       <use xlink:href="#DejaVuSans-2e" transform="translate(63.623047 0)"/>
       <use xlink:href="#DejaVuSans-31" transform="translate(95.410156 0)"/>
      </g>
     </g>
    </g>
    <g id="ytick_3">
     <g id="line2d_19">
      <path d="M 47.435 243.804915 
L 709.2 243.804915 
" clip-path="url(#pcd58699b01)" style="fill: none; stroke: #b0b0b0; stroke-opacity: 0.3; stroke-width: 0.8; stroke-linecap: square"/>
     </g>
     <g id="line2d_20">
      <g>
       <use xlink:href="#m7875f1dffe" x="47.435" y="243.804915" style="stroke: #000000; stroke-width: 0.8"/>
      </g>
     </g>
     <g id="text_11">
      <!-- 0.2 -->
      <g transform="translate(24.531875 247.604134) scale(0.1 -0.1)">
       <use xlink:href="#DejaVuSans-30"/>
       <use xlink:href="#DejaVuSans-2e" transform="translate(63.623047 0)"/>
       <use xlink:href="#DejaVuSans-32" transform="translate(95.410156 0)"/>
      </g>
     </g>
    </g>
    <g id="ytick_4">
     <g id="line2d_21">
      <path d="M 47.435 206.327373 
L 709.2 206.327373 
" clip-path="url(#pcd58699b01)" style="fill: none; stroke: #b0b0b0; stroke-opacity: 0.3; stroke-width: 0.8; stroke-linecap: square"/>
     </g>
     <g id="line2d_22">
      <g>
       <use xlink:href="#m7875f1dffe" x="47.435" y="206.327373" style="stroke: #000000; stroke-width: 0.8"/>
      </g>
     </g>
     <g id="text_12">
      <!-- 0.3 -->
      <g transform="translate(24.531875 210.126592) scale(0.1 -0.1)">
       <use xlink:href="#DejaVuSans-30"/>
       <use xlink:href="#DejaVuSans-2e" transform="translate(63.623047 0)"/>
       <use xlink:href="#DejaVuSans-33" transform="translate(95.410156 0)"/>
      </g>
     </g>
    </g>
    <g id="ytick_5">
     <g id="line2d_23">
      <path d="M 47.435 168.849831 
L 709.2 168.849831 
" clip-path="url(#pcd58699b01)" style="fill: none; stroke: #b0b0b0; stroke-opacity: 0.3; stroke-width: 0.8; stroke-linecap: square"/>
     </g>
     <g id="line2d_24">
      <g>
       <use xlink:href="#m7875f1dffe" x="47.435" y="168.849831" style="stroke: #000000; stroke-width: 0.8"/>
      </g>
     </g>
     <g id="text_13">
      <!-- 0.4 -->
      <g transform="translate(24.531875 172.64905) scale(0.1 -0.1)">
       <defs>
        <path id="DejaVuSans-34" d="M 2419 4116 
L 825 1625 
L 2419 1625 
L 2419 4116 
z
M 2253 4666 
L 3047 4666 
L 3047 1625 
L 3713 1625 
L 3713 1100 
L 3047 1100 
L 3047 0 
L 2419 0 
L 2419 1100 
L 313 1100 
L 313 1709 
L 2253 4666 
z
" transform="scale(0.015625)"/>
       </defs>
       <use xlink:href="#DejaVuSans-30"/>
       <use xlink:href="#DejaVuSans-2e" transform="translate(63.623047 0)"/>
       <use xlink:href="#DejaVuSans-34" transform="translate(95.410156 0)"/>
      </g>
     </g>
    </g>
    <g id="ytick_6">
     <g id="line2d_25">
      <path d="M 47.435 131.372289 
L 709.2 131.372289 
" clip-path="url(#pcd58699b01)" style="fill: none; stroke: #b0b0b0; stroke-opacity: 0.3; stroke-width: 0.8; stroke-linecap: square"/>
     </g>
     <g id="line2d_26">
      <g>
       <use xlink:href="#m7875f1dffe" x="47.435" y="131.372289" style="stroke: #000000; stroke-width: 0.8"/>
      </g>
     </g>
     <g id="text_14">
      <!-- 0.5 -->
      <g transform="translate(24.531875 135.171507) scale(0.1 -0.1)">
       <defs>
        <path id="DejaVuSans-35" d="M 691 4666 
L 3169 4666 
L 3169 4134 
L 1269 4134 
L 1269 2991 
Q 1406 3038 1543 3061 
Q 1681 3084 1819 3084 
Q 2600 3084 3056 2656 
Q 3513 2228 3513 1497 
Q 3513 744 3044 326 
Q 2575 -91 1722 -91 
Q 1428 -91 1123 -41 
Q 819 9 494 109 
L 494 744 
Q 775 591 1075 516 
Q 1375 441 1709 441 
Q 2250 441 2565 725 
Q 2881 1009 2881 1497 
Q 2881 1984 2565 2268 
Q 2250 2553 1709 2553 
Q 1456 2553 1204 2497 
Q 953 2441 691 2322 
L 691 4666 
z
" transform="scale(0.015625)"/>
       </defs>
       <use xlink:href="#DejaVuSans-30"/>
       <use xlink:href="#DejaVuSans-2e" transform="translate(63.623047 0)"/>
       <use xlink:href="#DejaVuSans-35" transform="translate(95.410156 0)"/>
      </g>
     </g>
    </g>
    <g id="ytick_7">
     <g id="line2d_27">
      <path d="M 47.435 93.894746 
L 709.2 93.894746 
" clip-path="url(#pcd58699b01)" style="fill: none; stroke: #b0b0b0; stroke-opacity: 0.3; stroke-width: 0.8; stroke-linecap: square"/>
     </g>
     <g id="line2d_28">
      <g>
       <use xlink:href="#m7875f1dffe" x="47.435" y="93.894746" style="stroke: #000000; stroke-width: 0.8"/>
      </g>
     </g>
     <g id="text_15">
      <!-- 0.6 -->
      <g transform="translate(24.531875 97.693965) scale(0.1 -0.1)">
       <defs>
        <path id="DejaVuSans-36" d="M 2113 2584 
Q 1688 2584 1439 2293 
Q 1191 2003 1191 1497 
Q 1191 994 1439 701 
Q 1688 409 2113 409 
Q 2538 409 2786 701 
Q 3034 994 3034 1497 
Q 3034 2003 2786 2293 
Q 2538 2584 2113 2584 
z
M 3366 4563 
L 3366 3988 
Q 3128 4100 2886 4159 
Q 2644 4219 2406 4219 
Q 1781 4219 1451 3797 
Q 1122 3375 1075 2522 
Q 1259 2794 1537 2939 
Q 1816 3084 2150 3084 
Q 2853 3084 3261 2657 
Q 3669 2231 3669 1497 
Q 3669 778 3244 343 
Q 2819 -91 2113 -91 
Q 1303 -91 875 529 
Q 447 1150 447 2328 
Q 447 3434 972 4092 
Q 1497 4750 2381 4750 
Q 2619 4750 2861 4703 
Q 3103 4656 3366 4563 
z
" transform="scale(0.015625)"/>
       </defs>
       <use xlink:href="#DejaVuSans-30"/>
       <use xlink:href="#DejaVuSans-2e" transform="translate(63.623047 0)"/>
       <use xlink:href="#DejaVuSans-36" transform="translate(95.410156 0)"/>
      </g>
     </g>
    </g>
    <g id="ytick_8">
     <g id="line2d_29">
      <path d="M 47.435 56.417204 
L 709.2 56.417204 
" clip-path="url(#pcd58699b01)" style="fill: none; stroke: #b0b0b0; stroke-opacity: 0.3; stroke-width: 0.8; stroke-linecap: square"/>
     </g>
     <g id="line2d_30">
      <g>
       <use xlink:href="#m7875f1dffe" x="47.435" y="56.417204" style="stroke: #000000; stroke-width: 0.8"/>
      </g>
     </g>
     <g id="text_16">
      <!-- 0.7 -->
      <g transform="translate(24.531875 60.216423) scale(0.1 -0.1)">
       <use xlink:href="#DejaVuSans-30"/>
       <use xlink:href="#DejaVuSans-2e" transform="translate(63.623047 0)"/>
       <use xlink:href="#DejaVuSans-37" transform="translate(95.410156 0)"/>
      </g>
     </g>
    </g>
    <g id="ytick_9">
     <g id="line2d_31">
      <path d="M 47.435 18.939662 
L 709.2 18.939662 
" clip-path="url(#pcd58699b01)" style="fill: none; stroke: #b0b0b0; stroke-opacity: 0.3; stroke-width: 0.8; stroke-linecap: square"/>
     </g>
     <g id="line2d_32">
      <g>
       <use xlink:href="#m7875f1dffe" x="47.435" y="18.939662" style="stroke: #000000; stroke-width: 0.8"/>
      </g>
     </g>
     <g id="text_17">
      <!-- 0.8 -->
      <g transform="translate(24.531875 22.73888) scale(0.1 -0.1)">
       <use xlink:href="#DejaVuSans-30"/>
       <use xlink:href="#DejaVuSans-2e" transform="translate(63.623047 0)"/>
       <use xlink:href="#DejaVuSans-38" transform="translate(95.410156 0)"/>
      </g>
     </g>
    </g>
    <g id="text_18">
     <!-- Density -->
     <g transform="translate(18.452188 183.788594) rotate(-90) scale(0.1 -0.1)">
      <defs>
       <path id="DejaVuSans-44" d="M 1259 4147 
L 1259 519 
L 2022 519 
Q 2988 519 3436 956 
Q 3884 1394 3884 2338 
Q 3884 3275 3436 3711 
Q 2988 4147 2022 4147 
L 1259 4147 
z
M 628 4666 
L 1925 4666 
Q 3281 4666 3915 4102 
Q 4550 3538 4550 2338 
Q 4550 1131 3912 565 
Q 3275 0 1925 0 
L 628 0 
L 628 4666 
z
" transform="scale(0.015625)"/>
       <path id="DejaVuSans-65" d="M 3597 1894 
L 3597 1613 
L 953 1613 
Q 991 1019 1311 708 
Q 1631 397 2203 397 
Q 2534 397 2845 478 
Q 3156 559 3463 722 
L 3463 178 
Q 3153 47 2828 -22 
Q 2503 -91 2169 -91 
Q 1331 -91 842 396 
Q 353 884 353 1716 
Q 353 2575 817 3079 
Q 1281 3584 2069 3584 
Q 2775 3584 3186 3129 
Q 3597 2675 3597 1894 
z
M 3022 2063 
Q 3016 2534 2758 2815 
Q 2500 3097 2075 3097 
Q 1594 3097 1305 2825 
Q 1016 2553 972 2059 
L 3022 2063 
z
" transform="scale(0.015625)"/>
       <path id="DejaVuSans-6e" d="M 3513 2113 
L 3513 0 
L 2938 0 
L 2938 2094 
Q 2938 2591 2744 2837 
Q 2550 3084 2163 3084 
Q 1697 3084 1428 2787 
Q 1159 2491 1159 1978 
L 1159 0 
L 581 0 
L 581 3500 
L 1159 3500 
L 1159 2956 
Q 1366 3272 1645 3428 
Q 1925 3584 2291 3584 
Q 2894 3584 3203 3211 
Q 3513 2838 3513 2113 
z
" transform="scale(0.015625)"/>
       <path id="DejaVuSans-73" d="M 2834 3397 
L 2834 2853 
Q 2591 2978 2328 3040 
Q 2066 3103 1784 3103 
Q 1356 3103 1142 2972 
Q 928 2841 928 2578 
Q 928 2378 1081 2264 
Q 1234 2150 1697 2047 
L 1894 2003 
Q 2506 1872 2764 1633 
Q 3022 1394 3022 966 
Q 3022 478 2636 193 
Q 2250 -91 1575 -91 
Q 1294 -91 989 -36 
Q 684 19 347 128 
L 347 722 
Q 666 556 975 473 
Q 1284 391 1588 391 
Q 1994 391 2212 530 
Q 2431 669 2431 922 
Q 2431 1156 2273 1281 
Q 2116 1406 1581 1522 
L 1381 1569 
Q 847 1681 609 1914 
Q 372 2147 372 2553 
Q 372 3047 722 3315 
Q 1072 3584 1716 3584 
Q 2034 3584 2315 3537 
Q 2597 3491 2834 3397 
z
" transform="scale(0.015625)"/>
       <path id="DejaVuSans-69" d="M 603 3500 
L 1178 3500 
L 1178 0 
L 603 0 
L 603 3500 
z
M 603 4863 
L 1178 4863 
L 1178 4134 
L 603 4134 
L 603 4863 
z
" transform="scale(0.015625)"/>
       <path id="DejaVuSans-74" d="M 1172 4494 
L 1172 3500 
L 2356 3500 
L 2356 3053 
L 1172 3053 
L 1172 1153 
Q 1172 725 1289 603 
Q 1406 481 1766 481 
L 2356 481 
L 2356 0 
L 1766 0 
Q 1100 0 847 248 
Q 594 497 594 1153 
L 594 3053 
L 172 3053 
L 172 3500 
L 594 3500 
L 594 4494 
L 1172 4494 
z
" transform="scale(0.015625)"/>
       <path id="DejaVuSans-79" d="M 2059 -325 
Q 1816 -950 1584 -1140 
Q 1353 -1331 966 -1331 
L 506 -1331 
L 506 -850 
L 844 -850 
Q 1081 -850 1212 -737 
Q 1344 -625 1503 -206 
L 1606 56 
L 191 3500 
L 800 3500 
L 1894 763 
L 2988 3500 
L 3597 3500 
L 2059 -325 
z
" transform="scale(0.015625)"/>
      </defs>
      <use xlink:href="#DejaVuSans-44"/>
      <use xlink:href="#DejaVuSans-65" transform="translate(77.001953 0)"/>
      <use xlink:href="#DejaVuSans-6e" transform="translate(138.525391 0)"/>
      <use xlink:href="#DejaVuSans-73" transform="translate(201.904297 0)"/>
      <use xlink:href="#DejaVuSans-69" transform="translate(254.003906 0)"/>
      <use xlink:href="#DejaVuSans-74" transform="translate(281.787109 0)"/>
      <use xlink:href="#DejaVuSans-79" transform="translate(320.996094 0)"/>
     </g>
    </g>
   </g>
   <g id="line2d_33">
    <path d="M 77.515227 260.491256 
L 80.538366 249.172471 
L 83.561504 236.786345 
L 86.584643 223.471929 
L 92.630919 194.833242 
L 101.700335 150.575041 
L 104.723473 136.564602 
L 107.746611 123.362246 
L 110.76975 111.1941 
L 113.792888 100.249803 
L 116.816027 90.676889 
L 119.839165 82.577931 
L 122.862304 76.010342 
L 125.885442 70.988543 
L 128.90858 67.488037 
L 131.931719 65.450858 
L 134.954857 64.791843 
L 137.977996 65.405204 
L 141.001134 67.17096 
L 144.024272 69.960873 
L 147.047411 73.643661 
L 150.070549 78.089347 
L 153.093688 83.172693 
L 156.116826 88.77576 
L 159.139965 94.789651 
L 165.186241 107.665238 
L 186.34821 154.459614 
L 192.394487 166.924502 
L 198.440764 178.673413 
L 204.487041 189.645966 
L 210.533318 199.82273 
L 216.579595 209.212882 
L 222.625871 217.844936 
L 228.672148 225.759635 
L 234.718425 233.00443 
L 240.764702 239.629308 
L 246.810979 245.683965 
L 252.857256 251.216206 
L 258.903532 256.271253 
L 264.949809 260.891488 
L 270.996086 265.116212 
L 277.042363 268.981356 
L 283.08864 272.519328 
L 289.134917 275.759176 
L 295.181193 278.727076 
L 301.22747 281.446946 
L 307.273747 283.940959 
L 313.320024 286.229892 
L 319.366301 288.33329 
L 328.435716 291.180239 
L 337.505131 293.706397 
L 346.574547 295.957974 
L 355.643962 297.969441 
L 364.713377 299.764499 
L 373.782792 301.361963 
L 385.875346 303.223582 
L 397.9679 304.84163 
L 413.083592 306.611472 
L 428.199284 308.142117 
L 443.314976 309.441066 
L 458.430668 310.528915 
L 479.592637 311.79368 
L 503.777744 312.998046 
L 527.962852 313.975282 
L 552.147959 314.76629 
L 576.333066 315.312859 
L 670.050357 317.350469 
L 679.119773 317.688496 
L 679.119773 317.688496 
" clip-path="url(#pcd58699b01)" style="fill: none; stroke: #1f77b4; stroke-width: 1.5; stroke-linecap: square"/>
   </g>
   <g id="line2d_34">
    <path d="M 189.074176 318.76 
L 189.074176 10.8 
" clip-path="url(#pcd58699b01)" style="fill: none; stroke-dasharray: 5.55,2.4; stroke-dashoffset: 0; stroke: #000000; stroke-width: 1.5"/>
   </g>
   <g id="line2d_35">
    <path d="M 94.170511 318.76 
L 94.170511 10.8 
" clip-path="url(#pcd58699b01)" style="fill: none; stroke-dasharray: 1.5,2.475; stroke-dashoffset: 0; stroke: #ff0000; stroke-width: 1.5"/>
   </g>
   <g id="line2d_36">
    <path d="M 457.97825 318.76 
L 457.97825 10.8 
" clip-path="url(#pcd58699b01)" style="fill: none; stroke-dasharray: 1.5,2.475; stroke-dashoffset: 0; stroke: #ff0000; stroke-width: 1.5"/>
   </g>
   <g id="patch_103">
    <path d="M 47.435 318.76 
L 47.435 10.8 
" style="fill: none; stroke: #000000; stroke-width: 0.8; stroke-linejoin: miter; stroke-linecap: square"/>
   </g>
   <g id="patch_104">
    <path d="M 709.2 318.76 
L 709.2 10.8 
" style="fill: none; stroke: #000000; stroke-width: 0.8; stroke-linejoin: miter; stroke-linecap: square"/>
   </g>
   <g id="patch_105">
    <path d="M 47.435 318.76 
L 709.2 318.76 
" style="fill: none; stroke: #000000; stroke-width: 0.8; stroke-linejoin: miter; stroke-linecap: square"/>
   </g>
   <g id="patch_106">
    <path d="M 47.435 10.8 
L 709.2 10.8 
" style="fill: none; stroke: #000000; stroke-width: 0.8; stroke-linejoin: miter; stroke-linecap: square"/>
   </g>
   <g id="legend_1">
    <g id="patch_107">
     <path d="M 584.946875 62.834375 
L 702.2 62.834375 
Q 704.2 62.834375 704.2 60.834375 
L 704.2 17.8 
Q 704.2 15.8 702.2 15.8 
L 584.946875 15.8 
Q 582.946875 15.8 582.946875 17.8 
L 582.946875 60.834375 
Q 582.946875 62.834375 584.946875 62.834375 
z
" style="fill: #ffffff; opacity: 0.8; stroke: #cccccc; stroke-linejoin: miter"/>
    </g>
    <g id="line2d_37">
     <path d="M 586.946875 23.898438 
L 596.946875 23.898438 
L 606.946875 23.898438 
" style="fill: none; stroke-dasharray: 5.55,2.4; stroke-dashoffset: 0; stroke: #000000; stroke-width: 1.5"/>
    </g>
    <g id="text_19">
     <!-- Mean 8.313 kg -->
     <g transform="translate(614.946875 27.398438) scale(0.1 -0.1)">
      <defs>
       <path id="DejaVuSans-61" d="M 2194 1759 
Q 1497 1759 1228 1600 
Q 959 1441 959 1056 
Q 959 750 1161 570 
Q 1363 391 1709 391 
Q 2188 391 2477 730 
Q 2766 1069 2766 1631 
L 2766 1759 
L 2194 1759 
z
M 3341 1997 
L 3341 0 
L 2766 0 
L 2766 531 
Q 2569 213 2275 61 
Q 1981 -91 1556 -91 
Q 1019 -91 701 211 
Q 384 513 384 1019 
Q 384 1609 779 1909 
Q 1175 2209 1959 2209 
L 2766 2209 
L 2766 2266 
Q 2766 2663 2505 2880 
Q 2244 3097 1772 3097 
Q 1472 3097 1187 3025 
Q 903 2953 641 2809 
L 641 3341 
Q 956 3463 1253 3523 
Q 1550 3584 1831 3584 
Q 2591 3584 2966 3190 
Q 3341 2797 3341 1997 
z
" transform="scale(0.015625)"/>
      </defs>
      <use xlink:href="#DejaVuSans-4d"/>
      <use xlink:href="#DejaVuSans-65" transform="translate(86.279297 0)"/>
      <use xlink:href="#DejaVuSans-61" transform="translate(147.802734 0)"/>
      <use xlink:href="#DejaVuSans-6e" transform="translate(209.082031 0)"/>
      <use xlink:href="#DejaVuSans-20" transform="translate(272.460938 0)"/>
      <use xlink:href="#DejaVuSans-38" transform="translate(304.248047 0)"/>
      <use xlink:href="#DejaVuSans-2e" transform="translate(367.871094 0)"/>
      <use xlink:href="#DejaVuSans-33" transform="translate(399.658203 0)"/>
      <use xlink:href="#DejaVuSans-31" transform="translate(463.28125 0)"/>
      <use xlink:href="#DejaVuSans-33" transform="translate(526.904297 0)"/>
      <use xlink:href="#DejaVuSans-20" transform="translate(590.527344 0)"/>
      <use xlink:href="#DejaVuSans-6b" transform="translate(622.314453 0)"/>
      <use xlink:href="#DejaVuSans-67" transform="translate(680.224609 0)"/>
     </g>
    </g>
    <g id="line2d_38">
     <path d="M 586.946875 38.576563 
L 596.946875 38.576563 
L 606.946875 38.576563 
" style="fill: none; stroke-dasharray: 1.5,2.475; stroke-dashoffset: 0; stroke: #ff0000; stroke-width: 1.5"/>
    </g>
    <g id="text_20">
     <!-- 2.5% 7.313 kg -->
     <g transform="translate(614.946875 42.076563) scale(0.1 -0.1)">
      <defs>
       <path id="DejaVuSans-25" d="M 4653 2053 
Q 4381 2053 4226 1822 
Q 4072 1591 4072 1178 
Q 4072 772 4226 539 
Q 4381 306 4653 306 
Q 4919 306 5073 539 
Q 5228 772 5228 1178 
Q 5228 1588 5073 1820 
Q 4919 2053 4653 2053 
z
M 4653 2450 
Q 5147 2450 5437 2106 
Q 5728 1763 5728 1178 
Q 5728 594 5436 251 
Q 5144 -91 4653 -91 
Q 4153 -91 3862 251 
Q 3572 594 3572 1178 
Q 3572 1766 3864 2108 
Q 4156 2450 4653 2450 
z
M 1428 4353 
Q 1159 4353 1004 4120 
Q 850 3888 850 3481 
Q 850 3069 1003 2837 
Q 1156 2606 1428 2606 
Q 1700 2606 1854 2837 
Q 2009 3069 2009 3481 
Q 2009 3884 1853 4118 
Q 1697 4353 1428 4353 
z
M 4250 4750 
L 4750 4750 
L 1831 -91 
L 1331 -91 
L 4250 4750 
z
M 1428 4750 
Q 1922 4750 2215 4408 
Q 2509 4066 2509 3481 
Q 2509 2891 2217 2550 
Q 1925 2209 1428 2209 
Q 931 2209 642 2551 
Q 353 2894 353 3481 
Q 353 4063 643 4406 
Q 934 4750 1428 4750 
z
" transform="scale(0.015625)"/>
      </defs>
      <use xlink:href="#DejaVuSans-32"/>
      <use xlink:href="#DejaVuSans-2e" transform="translate(63.623047 0)"/>
      <use xlink:href="#DejaVuSans-35" transform="translate(95.410156 0)"/>
      <use xlink:href="#DejaVuSans-25" transform="translate(159.033203 0)"/>
      <use xlink:href="#DejaVuSans-20" transform="translate(254.052734 0)"/>
      <use xlink:href="#DejaVuSans-37" transform="translate(285.839844 0)"/>
      <use xlink:href="#DejaVuSans-2e" transform="translate(349.462891 0)"/>
      <use xlink:href="#DejaVuSans-33" transform="translate(381.25 0)"/>
      <use xlink:href="#DejaVuSans-31" transform="translate(444.873047 0)"/>
      <use xlink:href="#DejaVuSans-33" transform="translate(508.496094 0)"/>
      <use xlink:href="#DejaVuSans-20" transform="translate(572.119141 0)"/>
      <use xlink:href="#DejaVuSans-6b" transform="translate(603.90625 0)"/>
      <use xlink:href="#DejaVuSans-67" transform="translate(661.816406 0)"/>
     </g>
    </g>
    <g id="line2d_39">
     <path d="M 586.946875 53.254687 
L 596.946875 53.254687 
L 606.946875 53.254687 
" style="fill: none; stroke-dasharray: 1.5,2.475; stroke-dashoffset: 0; stroke: #ff0000; stroke-width: 1.5"/>
    </g>
    <g id="text_21">
     <!-- 97.5% 11.148 kg -->
     <g transform="translate(614.946875 56.754687) scale(0.1 -0.1)">
      <use xlink:href="#DejaVuSans-39"/>
      <use xlink:href="#DejaVuSans-37" transform="translate(63.623047 0)"/>
      <use xlink:href="#DejaVuSans-2e" transform="translate(127.246094 0)"/>
      <use xlink:href="#DejaVuSans-35" transform="translate(159.033203 0)"/>
      <use xlink:href="#DejaVuSans-25" transform="translate(222.65625 0)"/>
      <use xlink:href="#DejaVuSans-20" transform="translate(317.675781 0)"/>
      <use xlink:href="#DejaVuSans-31" transform="translate(349.462891 0)"/>
      <use xlink:href="#DejaVuSans-31" transform="translate(413.085938 0)"/>
      <use xlink:href="#DejaVuSans-2e" transform="translate(476.708984 0)"/>
      <use xlink:href="#DejaVuSans-31" transform="translate(508.496094 0)"/>
      <use xlink:href="#DejaVuSans-34" transform="translate(572.119141 0)"/>
      <use xlink:href="#DejaVuSans-38" transform="translate(635.742188 0)"/>
      <use xlink:href="#DejaVuSans-20" transform="translate(699.365234 0)"/>
      <use xlink:href="#DejaVuSans-6b" transform="translate(731.152344 0)"/>
      <use xlink:href="#DejaVuSans-67" transform="translate(789.0625 0)"/>
     </g>
    </g>
   </g>
  </g>
 </g>
 <defs>
  <clipPath id="pcd58699b01">
   <rect x="47.435" y="10.8" width="661.765" height="307.96"/>
  </clipPath>
 </defs>
</svg>
