<?xml version="1.0" encoding="utf-8" standalone="no"?>
<!DOCTYPE svg PUBLIC "-//W3C//DTD SVG 1.1//EN"
  "http://www.w3.org/Graphics/SVG/1.1/DTD/svg11.dtd">
<svg xmlns:xlink="http://www.w3.org/1999/xlink" width="928.370625pt" height="355.634375pt" viewBox="0 0 928.370625 355.634375" xmlns="http://www.w3.org/2000/svg" version="1.1">
 <metadata>
  <rdf:RDF xmlns:dc="http://purl.org/dc/elements/1.1/" xmlns:cc="http://creativecommons.org/ns#" xmlns:rdf="http://www.w3.org/1999/02/22-rdf-syntax-ns#">
   <cc:Work>
    <dc:type rdf:resource="http://purl.org/dc/dcmitype/StillImage"/>
    <dc:date>2026-05-28T16:24:01.236724</dc:date>
    <dc:format>image/svg+xml</dc:format>
    <dc:creator>
     <cc:Agent>
      <dc:title>Matplotlib v3.10.9, https://matplotlib.org/</dc:title>
     </cc:Agent>
    </dc:creator>
   </cc:Work>
  </rdf:RDF>
 </metadata>
 <defs>
  <style type="text/css">*{stroke-linejoin: round; stroke-linecap: butt}</style>
 </defs>
 <g id="figure_1">
  <g id="patch_1">
   <path d="M 0 355.634375 
L 928.370625 355.634375 
L 928.370625 0 
L 0 0 
z
" style="fill: #ffffff"/>
  </g>
  <g id="axes_1">
   <g id="patch_2">
    <path d="M 34.240625 317.8 
L 453.800625 317.8 
L 453.800625 74.064 
L 34.240625 74.064 
z
" style="fill: #ffffff"/>
   </g>
   <g id="matplotlib.axis_1">
    <g id="xtick_1">
     <g id="line2d_1">
      <path d="M 35.148764 317.8 
L 35.148764 74.064 
" clip-path="url(#p27e6c165d9)" style="fill: none; stroke: #b0b0b0; stroke-opacity: 0.3; stroke-width: 0.8; stroke-linecap: square"/>
     </g>
     <g id="line2d_2">
      <defs>
       <path id="m1937a274b5" d="M 0 0 
L 0 3.5 
" style="stroke: #000000; stroke-width: 0.8"/>
      </defs>
      <g>
       <use xlink:href="#m1937a274b5" x="35.148764" y="317.8" style="stroke: #000000; stroke-width: 0.8"/>
      </g>
     </g>
     <g id="text_1">
      <!-- 20 -->
      <g transform="translate(28.786264 332.398438) scale(0.1 -0.1)">
       <defs>
        <path id="DejaVuSans-32" d="M 1228 531 
L 3431 531 
L 3431 0 
L 469 0 
L 469 531 
Q 828 903 1448 1529 
Q 2069 2156 2228 2338 
Q 2531 2678 2651 2914 
Q 2772 3150 2772 3378 
Q 2772 3750 2511 3984 
Q 2250 4219 1831 4219 
Q 1534 4219 1204 4116 
Q 875 4013 500 3803 
L 500 4441 
Q 881 4594 1212 4672 
Q 1544 4750 1819 4750 
Q 2544 4750 2975 4387 
Q 3406 4025 3406 3419 
Q 3406 3131 3298 2873 
Q 3191 2616 2906 2266 
Q 2828 2175 2409 1742 
Q 1991 1309 1228 531 
z
" transform="scale(0.015625)"/>
        <path id="DejaVuSans-30" d="M 2034 4250 
Q 1547 4250 1301 3770 
Q 1056 3291 1056 2328 
Q 1056 1369 1301 889 
Q 1547 409 2034 409 
Q 2525 409 2770 889 
Q 3016 1369 3016 2328 
Q 3016 3291 2770 3770 
Q 2525 4250 2034 4250 
z
M 2034 4750 
Q 2819 4750 3233 4129 
Q 3647 3509 3647 2328 
Q 3647 1150 3233 529 
Q 2819 -91 2034 -91 
Q 1250 -91 836 529 
Q 422 1150 422 2328 
Q 422 3509 836 4129 
Q 1250 4750 2034 4750 
z
" transform="scale(0.015625)"/>
       </defs>
       <use xlink:href="#DejaVuSans-32"/>
       <use xlink:href="#DejaVuSans-30" transform="translate(63.623047 0)"/>
      </g>
     </g>
    </g>
    <g id="xtick_2">
     <g id="line2d_3">
      <path d="M 107.799846 317.8 
L 107.799846 74.064 
" clip-path="url(#p27e6c165d9)" style="fill: none; stroke: #b0b0b0; stroke-opacity: 0.3; stroke-width: 0.8; stroke-linecap: square"/>
     </g>
     <g id="line2d_4">
      <g>
       <use xlink:href="#m1937a274b5" x="107.799846" y="317.8" style="stroke: #000000; stroke-width: 0.8"/>
      </g>
     </g>
     <g id="text_2">
      <!-- 40 -->
      <g transform="translate(101.437346 332.398438) scale(0.1 -0.1)">
       <defs>
        <path id="DejaVuSans-34" d="M 2419 4116 
L 825 1625 
L 2419 1625 
L 2419 4116 
z
M 2253 4666 
L 3047 4666 
L 3047 1625 
L 3713 1625 
L 3713 1100 
L 3047 1100 
L 3047 0 
L 2419 0 
L 2419 1100 
L 313 1100 
L 313 1709 
L 2253 4666 
z
" transform="scale(0.015625)"/>
       </defs>
       <use xlink:href="#DejaVuSans-34"/>
       <use xlink:href="#DejaVuSans-30" transform="translate(63.623047 0)"/>
      </g>
     </g>
    </g>
    <g id="xtick_3">
     <g id="line2d_5">
      <path d="M 180.450928 317.8 
L 180.450928 74.064 
" clip-path="url(#p27e6c165d9)" style="fill: none; stroke: #b0b0b0; stroke-opacity: 0.3; stroke-width: 0.8; stroke-linecap: square"/>
     </g>
     <g id="line2d_6">
      <g>
       <use xlink:href="#m1937a274b5" x="180.450928" y="317.8" style="stroke: #000000; stroke-width: 0.8"/>
      </g>
     </g>
     <g id="text_3">
      <!-- 60 -->
      <g transform="translate(174.088428 332.398438) scale(0.1 -0.1)">
       <defs>
        <path id="DejaVuSans-36" d="M 2113 2584 
Q 1688 2584 1439 2293 
Q 1191 2003 1191 1497 
Q 1191 994 1439 701 
Q 1688 409 2113 409 
Q 2538 409 2786 701 
Q 3034 994 3034 1497 
Q 3034 2003 2786 2293 
Q 2538 2584 2113 2584 
z
M 3366 4563 
L 3366 3988 
Q 3128 4100 2886 4159 
Q 2644 4219 2406 4219 
Q 1781 4219 1451 3797 
Q 1122 3375 1075 2522 
Q 1259 2794 1537 2939 
Q 1816 3084 2150 3084 
Q 2853 3084 3261 2657 
Q 3669 2231 3669 1497 
Q 3669 778 3244 343 
Q 2819 -91 2113 -91 
Q 1303 -91 875 529 
Q 447 1150 447 2328 
Q 447 3434 972 4092 
Q 1497 4750 2381 4750 
Q 2619 4750 2861 4703 
Q 3103 4656 3366 4563 
z
" transform="scale(0.015625)"/>
       </defs>
       <use xlink:href="#DejaVuSans-36"/>
       <use xlink:href="#DejaVuSans-30" transform="translate(63.623047 0)"/>
      </g>
     </g>
    </g>
    <g id="xtick_4">
     <g id="line2d_7">
      <path d="M 253.10201 317.8 
L 253.10201 74.064 
" clip-path="url(#p27e6c165d9)" style="fill: none; stroke: #b0b0b0; stroke-opacity: 0.3; stroke-width: 0.8; stroke-linecap: square"/>
     </g>
     <g id="line2d_8">
      <g>
       <use xlink:href="#m1937a274b5" x="253.10201" y="317.8" style="stroke: #000000; stroke-width: 0.8"/>
      </g>
     </g>
     <g id="text_4">
      <!-- 80 -->
      <g transform="translate(246.73951 332.398438) scale(0.1 -0.1)">
       <defs>
        <path id="DejaVuSans-38" d="M 2034 2216 
Q 1584 2216 1326 1975 
Q 1069 1734 1069 1313 
Q 1069 891 1326 650 
Q 1584 409 2034 409 
Q 2484 409 2743 651 
Q 3003 894 3003 1313 
Q 3003 1734 2745 1975 
Q 2488 2216 2034 2216 
z
M 1403 2484 
Q 997 2584 770 2862 
Q 544 3141 544 3541 
Q 544 4100 942 4425 
Q 1341 4750 2034 4750 
Q 2731 4750 3128 4425 
Q 3525 4100 3525 3541 
Q 3525 3141 3298 2862 
Q 3072 2584 2669 2484 
Q 3125 2378 3379 2068 
Q 3634 1759 3634 1313 
Q 3634 634 3220 271 
Q 2806 -91 2034 -91 
Q 1263 -91 848 271 
Q 434 634 434 1313 
Q 434 1759 690 2068 
Q 947 2378 1403 2484 
z
M 1172 3481 
Q 1172 3119 1398 2916 
Q 1625 2713 2034 2713 
Q 2441 2713 2670 2916 
Q 2900 3119 2900 3481 
Q 2900 3844 2670 4047 
Q 2441 4250 2034 4250 
Q 1625 4250 1398 4047 
Q 1172 3844 1172 3481 
z
" transform="scale(0.015625)"/>
       </defs>
       <use xlink:href="#DejaVuSans-38"/>
       <use xlink:href="#DejaVuSans-30" transform="translate(63.623047 0)"/>
      </g>
     </g>
    </g>
    <g id="xtick_5">
     <g id="line2d_9">
      <path d="M 325.753093 317.8 
L 325.753093 74.064 
" clip-path="url(#p27e6c165d9)" style="fill: none; stroke: #b0b0b0; stroke-opacity: 0.3; stroke-width: 0.8; stroke-linecap: square"/>
     </g>
     <g id="line2d_10">
      <g>
       <use xlink:href="#m1937a274b5" x="325.753093" y="317.8" style="stroke: #000000; stroke-width: 0.8"/>
      </g>
     </g>
     <g id="text_5">
      <!-- 100 -->
      <g transform="translate(316.209343 332.398438) scale(0.1 -0.1)">
       <defs>
        <path id="DejaVuSans-31" d="M 794 531 
L 1825 531 
L 1825 4091 
L 703 3866 
L 703 4441 
L 1819 4666 
L 2450 4666 
L 2450 531 
L 3481 531 
L 3481 0 
L 794 0 
L 794 531 
z
" transform="scale(0.015625)"/>
       </defs>
       <use xlink:href="#DejaVuSans-31"/>
       <use xlink:href="#DejaVuSans-30" transform="translate(63.623047 0)"/>
       <use xlink:href="#DejaVuSans-30" transform="translate(127.246094 0)"/>
      </g>
     </g>
    </g>
    <g id="xtick_6">
     <g id="line2d_11">
      <path d="M 398.404175 317.8 
L 398.404175 74.064 
" clip-path="url(#p27e6c165d9)" style="fill: none; stroke: #b0b0b0; stroke-opacity: 0.3; stroke-width: 0.8; stroke-linecap: square"/>
     </g>
     <g id="line2d_12">
      <g>
       <use xlink:href="#m1937a274b5" x="398.404175" y="317.8" style="stroke: #000000; stroke-width: 0.8"/>
      </g>
     </g>
     <g id="text_6">
      <!-- 120 -->
      <g transform="translate(388.860425 332.398438) scale(0.1 -0.1)">
       <use xlink:href="#DejaVuSans-31"/>
       <use xlink:href="#DejaVuSans-32" transform="translate(63.623047 0)"/>
       <use xlink:href="#DejaVuSans-30" transform="translate(127.246094 0)"/>
      </g>
     </g>
    </g>
    <g id="text_7">
     <!-- t_hover (s) -->
     <g transform="translate(217.145625 346.076562) scale(0.1 -0.1)">
      <defs>
       <path id="DejaVuSans-74" d="M 1172 4494 
L 1172 3500 
L 2356 3500 
L 2356 3053 
L 1172 3053 
L 1172 1153 
Q 1172 725 1289 603 
Q 1406 481 1766 481 
L 2356 481 
L 2356 0 
L 1766 0 
Q 1100 0 847 248 
Q 594 497 594 1153 
L 594 3053 
L 172 3053 
L 172 3500 
L 594 3500 
L 594 4494 
L 1172 4494 
z
" transform="scale(0.015625)"/>
       <path id="DejaVuSans-5f" d="M 3263 -1063 
L 3263 -1509 
L -63 -1509 
L -63 -1063 
L 3263 -1063 
z
" transform="scale(0.015625)"/>
       <path id="DejaVuSans-68" d="M 3513 2113 
L 3513 0 
L 2938 0 
L 2938 2094 
Q 2938 2591 2744 2837 
Q 2550 3084 2163 3084 
Q 1697 3084 1428 2787 
Q 1159 2491 1159 1978 
L 1159 0 
L 581 0 
L 581 4863 
L 1159 4863 
L 1159 2956 
Q 1366 3272 1645 3428 
Q 1925 3584 2291 3584 
Q 2894 3584 3203 3211 
Q 3513 2838 3513 2113 
z
" transform="scale(0.015625)"/>
       <path id="DejaVuSans-6f" d="M 1959 3097 
Q 1497 3097 1228 2736 
Q 959 2375 959 1747 
Q 959 1119 1226 758 
Q 1494 397 1959 397 
Q 2419 397 2687 759 
Q 2956 1122 2956 1747 
Q 2956 2369 2687 2733 
Q 2419 3097 1959 3097 
z
M 1959 3584 
Q 2709 3584 3137 3096 
Q 3566 2609 3566 1747 
Q 3566 888 3137 398 
Q 2709 -91 1959 -91 
Q 1206 -91 779 398 
Q 353 888 353 1747 
Q 353 2609 779 3096 
Q 1206 3584 1959 3584 
z
" transform="scale(0.015625)"/>
       <path id="DejaVuSans-76" d="M 191 3500 
L 800 3500 
L 1894 563 
L 2988 3500 
L 3597 3500 
L 2284 0 
L 1503 0 
L 191 3500 
z
" transform="scale(0.015625)"/>
       <path id="DejaVuSans-65" d="M 3597 1894 
L 3597 1613 
L 953 1613 
Q 991 1019 1311 708 
Q 1631 397 2203 397 
Q 2534 397 2845 478 
Q 3156 559 3463 722 
L 3463 178 
Q 3153 47 2828 -22 
Q 2503 -91 2169 -91 
Q 1331 -91 842 396 
Q 353 884 353 1716 
Q 353 2575 817 3079 
Q 1281 3584 2069 3584 
Q 2775 3584 3186 3129 
Q 3597 2675 3597 1894 
z
M 3022 2063 
Q 3016 2534 2758 2815 
Q 2500 3097 2075 3097 
Q 1594 3097 1305 2825 
Q 1016 2553 972 2059 
L 3022 2063 
z
" transform="scale(0.015625)"/>
       <path id="DejaVuSans-72" d="M 2631 2963 
Q 2534 3019 2420 3045 
Q 2306 3072 2169 3072 
Q 1681 3072 1420 2755 
Q 1159 2438 1159 1844 
L 1159 0 
L 581 0 
L 581 3500 
L 1159 3500 
L 1159 2956 
Q 1341 3275 1631 3429 
Q 1922 3584 2338 3584 
Q 2397 3584 2469 3576 
Q 2541 3569 2628 3553 
L 2631 2963 
z
" transform="scale(0.015625)"/>
       <path id="DejaVuSans-20" transform="scale(0.015625)"/>
       <path id="DejaVuSans-28" d="M 1984 4856 
Q 1566 4138 1362 3434 
Q 1159 2731 1159 2009 
Q 1159 1288 1364 580 
Q 1569 -128 1984 -844 
L 1484 -844 
Q 1016 -109 783 600 
Q 550 1309 550 2009 
Q 550 2706 781 3412 
Q 1013 4119 1484 4856 
L 1984 4856 
z
" transform="scale(0.015625)"/>
       <path id="DejaVuSans-73" d="M 2834 3397 
L 2834 2853 
Q 2591 2978 2328 3040 
Q 2066 3103 1784 3103 
Q 1356 3103 1142 2972 
Q 928 2841 928 2578 
Q 928 2378 1081 2264 
Q 1234 2150 1697 2047 
L 1894 2003 
Q 2506 1872 2764 1633 
Q 3022 1394 3022 966 
Q 3022 478 2636 193 
Q 2250 -91 1575 -91 
Q 1294 -91 989 -36 
Q 684 19 347 128 
L 347 722 
Q 666 556 975 473 
Q 1284 391 1588 391 
Q 1994 391 2212 530 
Q 2431 669 2431 922 
Q 2431 1156 2273 1281 
Q 2116 1406 1581 1522 
L 1381 1569 
Q 847 1681 609 1914 
Q 372 2147 372 2553 
Q 372 3047 722 3315 
Q 1072 3584 1716 3584 
Q 2034 3584 2315 3537 
Q 2597 3491 2834 3397 
z
" transform="scale(0.015625)"/>
       <path id="DejaVuSans-29" d="M 513 4856 
L 1013 4856 
Q 1481 4119 1714 3412 
Q 1947 2706 1947 2009 
Q 1947 1309 1714 600 
Q 1481 -109 1013 -844 
L 513 -844 
Q 928 -128 1133 580 
Q 1338 1288 1338 2009 
Q 1338 2731 1133 3434 
Q 928 4138 513 4856 
z
" transform="scale(0.015625)"/>
      </defs>
      <use xlink:href="#DejaVuSans-74"/>
      <use xlink:href="#DejaVuSans-5f" transform="translate(39.208984 0)"/>
      <use xlink:href="#DejaVuSans-68" transform="translate(89.208984 0)"/>
      <use xlink:href="#DejaVuSans-6f" transform="translate(152.587891 0)"/>
      <use xlink:href="#DejaVuSans-76" transform="translate(213.769531 0)"/>
      <use xlink:href="#DejaVuSans-65" transform="translate(272.949219 0)"/>
      <use xlink:href="#DejaVuSans-72" transform="translate(334.472656 0)"/>
      <use xlink:href="#DejaVuSans-20" transform="translate(375.585938 0)"/>
      <use xlink:href="#DejaVuSans-28" transform="translate(407.373047 0)"/>
      <use xlink:href="#DejaVuSans-73" transform="translate(446.386719 0)"/>
      <use xlink:href="#DejaVuSans-29" transform="translate(498.486328 0)"/>
     </g>
    </g>
   </g>
   <g id="matplotlib.axis_2">
    <g id="ytick_1">
     <g id="line2d_13">
      <path d="M 34.240625 296.756149 
L 453.800625 296.756149 
" clip-path="url(#p27e6c165d9)" style="fill: none; stroke: #b0b0b0; stroke-opacity: 0.3; stroke-width: 0.8; stroke-linecap: square"/>
     </g>
     <g id="line2d_14">
      <defs>
       <path id="md9cf9f4d1e" d="M 0 0 
L -3.5 0 
" style="stroke: #000000; stroke-width: 0.8"/>
      </defs>
      <g>
       <use xlink:href="#md9cf9f4d1e" x="34.240625" y="296.756149" style="stroke: #000000; stroke-width: 0.8"/>
      </g>
     </g>
     <g id="text_8">
      <!-- 3 -->
      <g transform="translate(20.878125 300.555368) scale(0.1 -0.1)">
       <defs>
        <path id="DejaVuSans-33" d="M 2597 2516 
Q 3050 2419 3304 2112 
Q 3559 1806 3559 1356 
Q 3559 666 3084 287 
Q 2609 -91 1734 -91 
Q 1441 -91 1130 -33 
Q 819 25 488 141 
L 488 750 
Q 750 597 1062 519 
Q 1375 441 1716 441 
Q 2309 441 2620 675 
Q 2931 909 2931 1356 
Q 2931 1769 2642 2001 
Q 2353 2234 1838 2234 
L 1294 2234 
L 1294 2753 
L 1863 2753 
Q 2328 2753 2575 2939 
Q 2822 3125 2822 3475 
Q 2822 3834 2567 4026 
Q 2313 4219 1838 4219 
Q 1578 4219 1281 4162 
Q 984 4106 628 3988 
L 628 4550 
Q 988 4650 1302 4700 
Q 1616 4750 1894 4750 
Q 2613 4750 3031 4423 
Q 3450 4097 3450 3541 
Q 3450 3153 3228 2886 
Q 3006 2619 2597 2516 
z
" transform="scale(0.015625)"/>
       </defs>
       <use xlink:href="#DejaVuSans-33"/>
      </g>
     </g>
    </g>
    <g id="ytick_2">
     <g id="line2d_15">
      <path d="M 34.240625 259.920973 
L 453.800625 259.920973 
" clip-path="url(#p27e6c165d9)" style="fill: none; stroke: #b0b0b0; stroke-opacity: 0.3; stroke-width: 0.8; stroke-linecap: square"/>
     </g>
     <g id="line2d_16">
      <g>
       <use xlink:href="#md9cf9f4d1e" x="34.240625" y="259.920973" style="stroke: #000000; stroke-width: 0.8"/>
      </g>
     </g>
     <g id="text_9">
      <!-- 4 -->
      <g transform="translate(20.878125 263.720192) scale(0.1 -0.1)">
       <use xlink:href="#DejaVuSans-34"/>
      </g>
     </g>
    </g>
    <g id="ytick_3">
     <g id="line2d_17">
      <path d="M 34.240625 223.085798 
L 453.800625 223.085798 
" clip-path="url(#p27e6c165d9)" style="fill: none; stroke: #b0b0b0; stroke-opacity: 0.3; stroke-width: 0.8; stroke-linecap: square"/>
     </g>
     <g id="line2d_18">
      <g>
       <use xlink:href="#md9cf9f4d1e" x="34.240625" y="223.085798" style="stroke: #000000; stroke-width: 0.8"/>
      </g>
     </g>
     <g id="text_10">
      <!-- 5 -->
      <g transform="translate(20.878125 226.885017) scale(0.1 -0.1)">
       <defs>
        <path id="DejaVuSans-35" d="M 691 4666 
L 3169 4666 
L 3169 4134 
L 1269 4134 
L 1269 2991 
Q 1406 3038 1543 3061 
Q 1681 3084 1819 3084 
Q 2600 3084 3056 2656 
Q 3513 2228 3513 1497 
Q 3513 744 3044 326 
Q 2575 -91 1722 -91 
Q 1428 -91 1123 -41 
Q 819 9 494 109 
L 494 744 
Q 775 591 1075 516 
Q 1375 441 1709 441 
Q 2250 441 2565 725 
Q 2881 1009 2881 1497 
Q 2881 1984 2565 2268 
Q 2250 2553 1709 2553 
Q 1456 2553 1204 2497 
Q 953 2441 691 2322 
L 691 4666 
z
" transform="scale(0.015625)"/>
       </defs>
       <use xlink:href="#DejaVuSans-35"/>
      </g>
     </g>
    </g>
    <g id="ytick_4">
     <g id="line2d_19">
      <path d="M 34.240625 186.250622 
L 453.800625 186.250622 
" clip-path="url(#p27e6c165d9)" style="fill: none; stroke: #b0b0b0; stroke-opacity: 0.3; stroke-width: 0.8; stroke-linecap: square"/>
     </g>
     <g id="line2d_20">
      <g>
       <use xlink:href="#md9cf9f4d1e" x="34.240625" y="186.250622" style="stroke: #000000; stroke-width: 0.8"/>
      </g>
     </g>
     <g id="text_11">
      <!-- 6 -->
      <g transform="translate(20.878125 190.049841) scale(0.1 -0.1)">
       <use xlink:href="#DejaVuSans-36"/>
      </g>
     </g>
    </g>
    <g id="ytick_5">
     <g id="line2d_21">
      <path d="M 34.240625 149.415447 
L 453.800625 149.415447 
" clip-path="url(#p27e6c165d9)" style="fill: none; stroke: #b0b0b0; stroke-opacity: 0.3; stroke-width: 0.8; stroke-linecap: square"/>
     </g>
     <g id="line2d_22">
      <g>
       <use xlink:href="#md9cf9f4d1e" x="34.240625" y="149.415447" style="stroke: #000000; stroke-width: 0.8"/>
      </g>
     </g>
     <g id="text_12">
      <!-- 7 -->
      <g transform="translate(20.878125 153.214666) scale(0.1 -0.1)">
       <defs>
        <path id="DejaVuSans-37" d="M 525 4666 
L 3525 4666 
L 3525 4397 
L 1831 0 
L 1172 0 
L 2766 4134 
L 525 4134 
L 525 4666 
z
" transform="scale(0.015625)"/>
       </defs>
       <use xlink:href="#DejaVuSans-37"/>
      </g>
     </g>
    </g>
    <g id="ytick_6">
     <g id="line2d_23">
      <path d="M 34.240625 112.580271 
L 453.800625 112.580271 
" clip-path="url(#p27e6c165d9)" style="fill: none; stroke: #b0b0b0; stroke-opacity: 0.3; stroke-width: 0.8; stroke-linecap: square"/>
     </g>
     <g id="line2d_24">
      <g>
       <use xlink:href="#md9cf9f4d1e" x="34.240625" y="112.580271" style="stroke: #000000; stroke-width: 0.8"/>
      </g>
     </g>
     <g id="text_13">
      <!-- 8 -->
      <g transform="translate(20.878125 116.37949) scale(0.1 -0.1)">
       <use xlink:href="#DejaVuSans-38"/>
      </g>
     </g>
    </g>
    <g id="ytick_7">
     <g id="line2d_25">
      <path d="M 34.240625 75.745096 
L 453.800625 75.745096 
" clip-path="url(#p27e6c165d9)" style="fill: none; stroke: #b0b0b0; stroke-opacity: 0.3; stroke-width: 0.8; stroke-linecap: square"/>
     </g>
     <g id="line2d_26">
      <g>
       <use xlink:href="#md9cf9f4d1e" x="34.240625" y="75.745096" style="stroke: #000000; stroke-width: 0.8"/>
      </g>
     </g>
     <g id="text_14">
      <!-- 9 -->
      <g transform="translate(20.878125 79.544315) scale(0.1 -0.1)">
       <defs>
        <path id="DejaVuSans-39" d="M 703 97 
L 703 672 
Q 941 559 1184 500 
Q 1428 441 1663 441 
Q 2288 441 2617 861 
Q 2947 1281 2994 2138 
Q 2813 1869 2534 1725 
Q 2256 1581 1919 1581 
Q 1219 1581 811 2004 
Q 403 2428 403 3163 
Q 403 3881 828 4315 
Q 1253 4750 1959 4750 
Q 2769 4750 3195 4129 
Q 3622 3509 3622 2328 
Q 3622 1225 3098 567 
Q 2575 -91 1691 -91 
Q 1453 -91 1209 -44 
Q 966 3 703 97 
z
M 1959 2075 
Q 2384 2075 2632 2365 
Q 2881 2656 2881 3163 
Q 2881 3666 2632 3958 
Q 2384 4250 1959 4250 
Q 1534 4250 1286 3958 
Q 1038 3666 1038 3163 
Q 1038 2656 1286 2365 
Q 1534 2075 1959 2075 
z
" transform="scale(0.015625)"/>
       </defs>
       <use xlink:href="#DejaVuSans-39"/>
      </g>
     </g>
    </g>
    <g id="text_15">
     <!-- Mass (kg) -->
     <g transform="translate(14.798438 220.079656) rotate(-90) scale(0.1 -0.1)">
      <defs>
       <path id="DejaVuSans-4d" d="M 628 4666 
L 1569 4666 
L 2759 1491 
L 3956 4666 
L 4897 4666 
L 4897 0 
L 4281 0 
L 4281 4097 
L 3078 897 
L 2444 897 
L 1241 4097 
L 1241 0 
L 628 0 
L 628 4666 
z
" transform="scale(0.015625)"/>
       <path id="DejaVuSans-61" d="M 2194 1759 
Q 1497 1759 1228 1600 
Q 959 1441 959 1056 
Q 959 750 1161 570 
Q 1363 391 1709 391 
Q 2188 391 2477 730 
Q 2766 1069 2766 1631 
L 2766 1759 
L 2194 1759 
z
M 3341 1997 
L 3341 0 
L 2766 0 
L 2766 531 
Q 2569 213 2275 61 
Q 1981 -91 1556 -91 
Q 1019 -91 701 211 
Q 384 513 384 1019 
Q 384 1609 779 1909 
Q 1175 2209 1959 2209 
L 2766 2209 
L 2766 2266 
Q 2766 2663 2505 2880 
Q 2244 3097 1772 3097 
Q 1472 3097 1187 3025 
Q 903 2953 641 2809 
L 641 3341 
Q 956 3463 1253 3523 
Q 1550 3584 1831 3584 
Q 2591 3584 2966 3190 
Q 3341 2797 3341 1997 
z
" transform="scale(0.015625)"/>
       <path id="DejaVuSans-6b" d="M 581 4863 
L 1159 4863 
L 1159 1991 
L 2875 3500 
L 3609 3500 
L 1753 1863 
L 3688 0 
L 2938 0 
L 1159 1709 
L 1159 0 
L 581 0 
L 581 4863 
z
" transform="scale(0.015625)"/>
       <path id="DejaVuSans-67" d="M 2906 1791 
Q 2906 2416 2648 2759 
Q 2391 3103 1925 3103 
Q 1463 3103 1205 2759 
Q 947 2416 947 1791 
Q 947 1169 1205 825 
Q 1463 481 1925 481 
Q 2391 481 2648 825 
Q 2906 1169 2906 1791 
z
M 3481 434 
Q 3481 -459 3084 -895 
Q 2688 -1331 1869 -1331 
Q 1566 -1331 1297 -1286 
Q 1028 -1241 775 -1147 
L 775 -588 
Q 1028 -725 1275 -790 
Q 1522 -856 1778 -856 
Q 2344 -856 2625 -561 
Q 2906 -266 2906 331 
L 2906 616 
Q 2728 306 2450 153 
Q 2172 0 1784 0 
Q 1141 0 747 490 
Q 353 981 353 1791 
Q 353 2603 747 3093 
Q 1141 3584 1784 3584 
Q 2172 3584 2450 3431 
Q 2728 3278 2906 2969 
L 2906 3500 
L 3481 3500 
L 3481 434 
z
" transform="scale(0.015625)"/>
      </defs>
      <use xlink:href="#DejaVuSans-4d"/>
      <use xlink:href="#DejaVuSans-61" transform="translate(86.279297 0)"/>
      <use xlink:href="#DejaVuSans-73" transform="translate(147.558594 0)"/>
      <use xlink:href="#DejaVuSans-73" transform="translate(199.658203 0)"/>
      <use xlink:href="#DejaVuSans-20" transform="translate(251.757812 0)"/>
      <use xlink:href="#DejaVuSans-28" transform="translate(283.544922 0)"/>
      <use xlink:href="#DejaVuSans-6b" transform="translate(322.558594 0)"/>
      <use xlink:href="#DejaVuSans-67" transform="translate(380.46875 0)"/>
      <use xlink:href="#DejaVuSans-29" transform="translate(443.945312 0)"/>
     </g>
    </g>
   </g>
   <g id="line2d_27">
    <path d="M 53.311534 166.195931 
L 63.091487 164.883289 
L 72.871441 163.547201 
L 82.651394 162.186819 
L 92.431348 160.801214 
L 102.211301 159.403633 
L 111.991254 157.964448 
L 121.771208 156.497102 
L 131.551161 155.001574 
L 141.331115 153.483952 
L 151.111068 151.932241 
L 160.891021 150.34894 
L 170.670975 148.732841 
L 180.450928 147.082665 
L 190.230881 145.397046 
L 200.010835 143.674516 
L 209.790788 141.913486 
L 219.570742 140.112201 
L 229.350695 138.268666 
L 239.130648 136.380498 
L 248.910602 134.46011 
L 258.690555 132.478076 
L 268.470508 130.450316 
L 278.250462 128.370511 
L 288.030415 126.235804 
L 297.810369 124.041379 
L 307.590322 121.798598 
L 317.370275 119.478653 
L 327.150229 117.09714 
L 336.930182 114.645056 
L 346.710135 112.118517 
L 356.490089 109.513107 
L 366.270042 106.824036 
L 376.049996 104.046062 
L 385.829949 101.173427 
L 395.609902 98.199791 
L 405.389856 95.118148 
L 415.169809 91.920726 
L 424.949763 88.598872 
L 434.729716 85.142909 
" clip-path="url(#p27e6c165d9)" style="fill: none; stroke-dasharray: 9.25,4; stroke-dashoffset: 0; stroke: #1f77b4; stroke-width: 2.5"/>
   </g>
   <g id="line2d_28">
    <path d="M 53.311534 306.721091 
L 63.091487 306.308265 
L 72.871441 305.887575 
L 82.651394 305.458726 
L 92.431348 305.021401 
L 102.211301 304.57976 
L 111.991254 304.124411 
L 121.771208 303.659568 
L 131.551161 303.185192 
L 141.331115 302.703186 
L 151.111068 302.209706 
L 160.891021 301.705507 
L 170.670975 301.190167 
L 180.450928 300.663235 
L 190.230881 300.124231 
L 200.010835 299.57264 
L 209.790788 299.007904 
L 219.570742 298.429406 
L 229.350695 297.83645 
L 239.130648 297.22821 
L 248.910602 296.608629 
L 258.690555 295.968146 
L 268.470508 295.311827 
L 278.250462 294.637551 
L 288.030415 293.944311 
L 297.810369 293.230453 
L 307.590322 292.499585 
L 317.370275 291.742217 
L 327.150229 290.963321 
L 336.930182 290.15984 
L 346.710135 289.330372 
L 356.490089 288.473327 
L 366.270042 287.586977 
L 376.049996 286.66943 
L 385.829949 285.7186 
L 395.609902 284.73219 
L 405.389856 283.707657 
L 415.169809 282.642174 
L 424.949763 281.532589 
L 434.729716 280.375371 
" clip-path="url(#p27e6c165d9)" style="fill: none; stroke-dasharray: 3.7,1.6; stroke-dashoffset: 0; stroke: #1f77b4; stroke-opacity: 0.5"/>
   </g>
   <g id="line2d_29">
    <path d="M 53.311534 156.402794 
L 63.091487 155.313557 
L 72.871441 154.209157 
L 82.651394 153.089204 
L 92.431348 151.953295 
L 102.211301 150.801009 
L 111.991254 149.631906 
L 121.771208 148.445526 
L 131.551161 147.241387 
L 141.331115 146.018981 
L 151.111068 144.777774 
L 160.891021 143.517199 
L 170.670975 142.236653 
L 180.450928 140.93549 
L 190.230881 139.613011 
L 200.010835 138.283782 
L 209.790788 136.916379 
L 219.570742 135.525272 
L 229.350695 134.114353 
L 239.130648 132.679141 
L 248.910602 131.218858 
L 258.690555 129.732687 
L 268.470508 128.219696 
L 278.250462 126.679115 
L 288.030415 125.109932 
L 297.810369 123.511141 
L 307.590322 121.881673 
L 317.370275 120.220387 
L 327.150229 118.526059 
L 336.930182 116.797355 
L 346.710135 115.032799 
L 356.490089 113.23071 
L 366.270042 111.405768 
L 376.049996 109.52221 
L 385.829949 107.601867 
L 395.609902 105.639709 
L 405.389856 103.632623 
L 415.169809 101.57855 
L 424.949763 99.475035 
L 434.729716 97.31827 
" clip-path="url(#p27e6c165d9)" style="fill: none; stroke-dasharray: 16,4,2.5,4; stroke-dashoffset: 0; stroke: #ff7f0e; stroke-width: 2.5"/>
   </g>
   <g id="line2d_30">
    <path d="M 53.311534 300.763546 
L 63.091487 300.444387 
L 72.871441 300.120512 
L 82.651394 299.791799 
L 92.431348 299.458115 
L 102.211301 299.119327 
L 111.991254 298.775292 
L 121.771208 298.425862 
L 131.551161 298.070884 
L 141.331115 297.710192 
L 151.111068 297.343616 
L 160.891021 296.970973 
L 170.670975 296.592069 
L 180.450928 296.206697 
L 190.230881 295.814633 
L 200.010835 295.420184 
L 209.790788 295.014006 
L 219.570742 294.600371 
L 229.350695 294.180418 
L 239.130648 293.752793 
L 248.910602 293.317245 
L 258.690555 292.873505 
L 268.470508 292.421272 
L 278.250462 291.96029 
L 288.030415 291.490231 
L 297.810369 291.010765 
L 307.590322 290.521543 
L 317.370275 290.022192 
L 327.150229 289.51231 
L 336.930182 288.991464 
L 346.710135 288.459171 
L 356.490089 287.914886 
L 366.270042 287.36301 
L 376.049996 286.792685 
L 385.829949 286.210468 
L 395.609902 285.614789 
L 405.389856 285.004653 
L 415.169809 284.379381 
L 424.949763 283.738167 
L 434.729716 283.079787 
" clip-path="url(#p27e6c165d9)" style="fill: none; stroke-dasharray: 6.4,1.6,1,1.6; stroke-dashoffset: 0; stroke: #ff7f0e; stroke-opacity: 0.5"/>
   </g>
   <g id="line2d_31">
    <path d="M 53.311534 161.930988 
L 63.091487 160.65362 
L 72.871441 159.354661 
L 82.651394 158.033418 
L 92.431348 156.689152 
L 102.211301 155.321074 
L 111.991254 153.928339 
L 121.771208 152.510025 
L 131.551161 151.065122 
L 141.331115 149.607265 
L 151.111068 148.105728 
L 160.891021 146.578712 
L 170.670975 145.022619 
L 180.450928 143.435601 
L 190.230881 141.816583 
L 200.010835 140.164325 
L 209.790788 138.47754 
L 219.570742 136.754863 
L 229.350695 134.994831 
L 239.130648 133.195869 
L 248.910602 131.356259 
L 258.690555 129.474096 
L 268.470508 127.547192 
L 278.250462 125.588867 
L 288.030415 123.563818 
L 297.810369 121.494277 
L 307.590322 119.373112 
L 317.370275 117.19685 
L 327.150229 114.962405 
L 336.930182 112.664771 
L 346.710135 110.305951 
L 356.490089 107.88512 
L 366.270042 105.38879 
L 376.049996 102.817804 
L 385.829949 100.167349 
L 395.609902 97.432901 
L 405.389856 94.609253 
L 415.169809 91.690706 
L 424.949763 88.670993 
L 434.729716 85.543195 
" clip-path="url(#p27e6c165d9)" style="fill: none; stroke: #2ca02c; stroke-width: 2.5; stroke-linecap: square"/>
   </g>
   <g id="line2d_32">
    <path d="M 53.311534 304.084662 
L 63.091487 303.687943 
L 72.871441 303.284076 
L 82.651394 302.872821 
L 92.431348 302.453929 
L 102.211301 302.027128 
L 111.991254 301.592131 
L 121.771208 301.148624 
L 131.551161 300.696262 
L 141.331115 300.239295 
L 151.111068 299.76806 
L 160.891021 299.288231 
L 170.670975 298.798646 
L 180.450928 298.298691 
L 190.230881 297.787989 
L 200.010835 297.266112 
L 209.790788 296.732612 
L 219.570742 296.187014 
L 229.350695 295.62881 
L 239.130648 295.057451 
L 248.910602 294.472341 
L 258.690555 293.872818 
L 268.470508 293.258128 
L 278.250462 292.632467 
L 288.030415 291.984489 
L 297.810369 291.321226 
L 307.590322 290.640325 
L 317.370275 289.940589 
L 327.150229 289.220942 
L 336.930182 288.479676 
L 346.710135 287.717338 
L 356.490089 286.933561 
L 366.270042 286.123864 
L 376.049996 285.288391 
L 385.829949 284.425443 
L 395.609902 283.533399 
L 405.389856 282.610401 
L 415.169809 281.654408 
L 424.949763 280.663178 
L 434.729716 279.634225 
" clip-path="url(#p27e6c165d9)" style="fill: none; stroke: #2ca02c; stroke-opacity: 0.5; stroke-linecap: square"/>
   </g>
   <g id="line2d_33">
    <path d="M 162.288157 317.8 
L 162.288157 74.064 
" clip-path="url(#p27e6c165d9)" style="fill: none; stroke-dasharray: 5.55,2.4; stroke-dashoffset: 0; stroke: #808080; stroke-opacity: 0.7; stroke-width: 1.5"/>
   </g>
   <g id="line2d_34">
    <path d="M 331.201924 317.8 
L 331.201924 74.064 
" clip-path="url(#p27e6c165d9)" style="fill: none; stroke-dasharray: 9.6,2.4,1.5,2.4; stroke-dashoffset: 0; stroke: #808080; stroke-opacity: 0.7; stroke-width: 1.5"/>
   </g>
   <g id="patch_3">
    <path d="M 34.240625 317.8 
L 34.240625 74.064 
" style="fill: none; stroke: #000000; stroke-width: 0.8; stroke-linejoin: miter; stroke-linecap: square"/>
   </g>
   <g id="patch_4">
    <path d="M 453.800625 317.8 
L 453.800625 74.064 
" style="fill: none; stroke: #000000; stroke-width: 0.8; stroke-linejoin: miter; stroke-linecap: square"/>
   </g>
   <g id="patch_5">
    <path d="M 34.240625 317.8 
L 453.800625 317.8 
" style="fill: none; stroke: #000000; stroke-width: 0.8; stroke-linejoin: miter; stroke-linecap: square"/>
   </g>
   <g id="patch_6">
    <path d="M 34.240625 74.064 
L 453.800625 74.064 
" style="fill: none; stroke: #000000; stroke-width: 0.8; stroke-linejoin: miter; stroke-linecap: square"/>
   </g>
   <g id="text_16">
    <!-- MTOM and W_empty vs hover time -->
    <g transform="translate(138.859375 54.292875) scale(0.12 -0.12)">
     <defs>
      <path id="DejaVuSans-54" d="M -19 4666 
L 3928 4666 
L 3928 4134 
L 2272 4134 
L 2272 0 
L 1638 0 
L 1638 4134 
L -19 4134 
L -19 4666 
z
" transform="scale(0.015625)"/>
      <path id="DejaVuSans-4f" d="M 2522 4238 
Q 1834 4238 1429 3725 
Q 1025 3213 1025 2328 
Q 1025 1447 1429 934 
Q 1834 422 2522 422 
Q 3209 422 3611 934 
Q 4013 1447 4013 2328 
Q 4013 3213 3611 3725 
Q 3209 4238 2522 4238 
z
M 2522 4750 
Q 3503 4750 4090 4092 
Q 4678 3434 4678 2328 
Q 4678 1225 4090 567 
Q 3503 -91 2522 -91 
Q 1538 -91 948 565 
Q 359 1222 359 2328 
Q 359 3434 948 4092 
Q 1538 4750 2522 4750 
z
" transform="scale(0.015625)"/>
      <path id="DejaVuSans-6e" d="M 3513 2113 
L 3513 0 
L 2938 0 
L 2938 2094 
Q 2938 2591 2744 2837 
Q 2550 3084 2163 3084 
Q 1697 3084 1428 2787 
Q 1159 2491 1159 1978 
L 1159 0 
L 581 0 
L 581 3500 
L 1159 3500 
L 1159 2956 
Q 1366 3272 1645 3428 
Q 1925 3584 2291 3584 
Q 2894 3584 3203 3211 
Q 3513 2838 3513 2113 
z
" transform="scale(0.015625)"/>
      <path id="DejaVuSans-64" d="M 2906 2969 
L 2906 4863 
L 3481 4863 
L 3481 0 
L 2906 0 
L 2906 525 
Q 2725 213 2448 61 
Q 2172 -91 1784 -91 
Q 1150 -91 751 415 
Q 353 922 353 1747 
Q 353 2572 751 3078 
Q 1150 3584 1784 3584 
Q 2172 3584 2448 3432 
Q 2725 3281 2906 2969 
z
M 947 1747 
Q 947 1113 1208 752 
Q 1469 391 1925 391 
Q 2381 391 2643 752 
Q 2906 1113 2906 1747 
Q 2906 2381 2643 2742 
Q 2381 3103 1925 3103 
Q 1469 3103 1208 2742 
Q 947 2381 947 1747 
z
" transform="scale(0.015625)"/>
      <path id="DejaVuSans-57" d="M 213 4666 
L 850 4666 
L 1831 722 
L 2809 4666 
L 3519 4666 
L 4500 722 
L 5478 4666 
L 6119 4666 
L 4947 0 
L 4153 0 
L 3169 4050 
L 2175 0 
L 1381 0 
L 213 4666 
z
" transform="scale(0.015625)"/>
      <path id="DejaVuSans-6d" d="M 3328 2828 
Q 3544 3216 3844 3400 
Q 4144 3584 4550 3584 
Q 5097 3584 5394 3201 
Q 5691 2819 5691 2113 
L 5691 0 
L 5113 0 
L 5113 2094 
Q 5113 2597 4934 2840 
Q 4756 3084 4391 3084 
Q 3944 3084 3684 2787 
Q 3425 2491 3425 1978 
L 3425 0 
L 2847 0 
L 2847 2094 
Q 2847 2600 2669 2842 
Q 2491 3084 2119 3084 
Q 1678 3084 1418 2786 
Q 1159 2488 1159 1978 
L 1159 0 
L 581 0 
L 581 3500 
L 1159 3500 
L 1159 2956 
Q 1356 3278 1631 3431 
Q 1906 3584 2284 3584 
Q 2666 3584 2933 3390 
Q 3200 3197 3328 2828 
z
" transform="scale(0.015625)"/>
      <path id="DejaVuSans-70" d="M 1159 525 
L 1159 -1331 
L 581 -1331 
L 581 3500 
L 1159 3500 
L 1159 2969 
Q 1341 3281 1617 3432 
Q 1894 3584 2278 3584 
Q 2916 3584 3314 3078 
Q 3713 2572 3713 1747 
Q 3713 922 3314 415 
Q 2916 -91 2278 -91 
Q 1894 -91 1617 61 
Q 1341 213 1159 525 
z
M 3116 1747 
Q 3116 2381 2855 2742 
Q 2594 3103 2138 3103 
Q 1681 3103 1420 2742 
Q 1159 2381 1159 1747 
Q 1159 1113 1420 752 
Q 1681 391 2138 391 
Q 2594 391 2855 752 
Q 3116 1113 3116 1747 
z
" transform="scale(0.015625)"/>
      <path id="DejaVuSans-79" d="M 2059 -325 
Q 1816 -950 1584 -1140 
Q 1353 -1331 966 -1331 
L 506 -1331 
L 506 -850 
L 844 -850 
Q 1081 -850 1212 -737 
Q 1344 -625 1503 -206 
L 1606 56 
L 191 3500 
L 800 3500 
L 1894 763 
L 2988 3500 
L 3597 3500 
L 2059 -325 
z
" transform="scale(0.015625)"/>
      <path id="DejaVuSans-69" d="M 603 3500 
L 1178 3500 
L 1178 0 
L 603 0 
L 603 3500 
z
M 603 4863 
L 1178 4863 
L 1178 4134 
L 603 4134 
L 603 4863 
z
" transform="scale(0.015625)"/>
     </defs>
     <use xlink:href="#DejaVuSans-4d"/>
     <use xlink:href="#DejaVuSans-54" transform="translate(86.279297 0)"/>
     <use xlink:href="#DejaVuSans-4f" transform="translate(147.363281 0)"/>
     <use xlink:href="#DejaVuSans-4d" transform="translate(226.074219 0)"/>
     <use xlink:href="#DejaVuSans-20" transform="translate(312.353516 0)"/>
     <use xlink:href="#DejaVuSans-61" transform="translate(344.140625 0)"/>
     <use xlink:href="#DejaVuSans-6e" transform="translate(405.419922 0)"/>
     <use xlink:href="#DejaVuSans-64" transform="translate(468.798828 0)"/>
     <use xlink:href="#DejaVuSans-20" transform="translate(532.275391 0)"/>
     <use xlink:href="#DejaVuSans-57" transform="translate(564.0625 0)"/>
     <use xlink:href="#DejaVuSans-5f" transform="translate(662.939453 0)"/>
     <use xlink:href="#DejaVuSans-65" transform="translate(712.939453 0)"/>
     <use xlink:href="#DejaVuSans-6d" transform="translate(774.462891 0)"/>
     <use xlink:href="#DejaVuSans-70" transform="translate(871.875 0)"/>
     <use xlink:href="#DejaVuSans-74" transform="translate(935.351562 0)"/>
     <use xlink:href="#DejaVuSans-79" transform="translate(974.560547 0)"/>
     <use xlink:href="#DejaVuSans-20" transform="translate(1033.740234 0)"/>
     <use xlink:href="#DejaVuSans-76" transform="translate(1065.527344 0)"/>
     <use xlink:href="#DejaVuSans-73" transform="translate(1124.707031 0)"/>
     <use xlink:href="#DejaVuSans-20" transform="translate(1176.806641 0)"/>
     <use xlink:href="#DejaVuSans-68" transform="translate(1208.59375 0)"/>
     <use xlink:href="#DejaVuSans-6f" transform="translate(1271.972656 0)"/>
     <use xlink:href="#DejaVuSans-76" transform="translate(1333.154297 0)"/>
     <use xlink:href="#DejaVuSans-65" transform="translate(1392.333984 0)"/>
     <use xlink:href="#DejaVuSans-72" transform="translate(1453.857422 0)"/>
     <use xlink:href="#DejaVuSans-20" transform="translate(1494.970703 0)"/>
     <use xlink:href="#DejaVuSans-74" transform="translate(1526.757812 0)"/>
     <use xlink:href="#DejaVuSans-69" transform="translate(1565.966797 0)"/>
     <use xlink:href="#DejaVuSans-6d" transform="translate(1593.75 0)"/>
     <use xlink:href="#DejaVuSans-65" transform="translate(1691.162109 0)"/>
    </g>
    <!-- (thick = MTOM, thin = W_empty) -->
    <g transform="translate(144.7 68.064) scale(0.12 -0.12)">
     <defs>
      <path id="DejaVuSans-63" d="M 3122 3366 
L 3122 2828 
Q 2878 2963 2633 3030 
Q 2388 3097 2138 3097 
Q 1578 3097 1268 2742 
Q 959 2388 959 1747 
Q 959 1106 1268 751 
Q 1578 397 2138 397 
Q 2388 397 2633 464 
Q 2878 531 3122 666 
L 3122 134 
Q 2881 22 2623 -34 
Q 2366 -91 2075 -91 
Q 1284 -91 818 406 
Q 353 903 353 1747 
Q 353 2603 823 3093 
Q 1294 3584 2113 3584 
Q 2378 3584 2631 3529 
Q 2884 3475 3122 3366 
z
" transform="scale(0.015625)"/>
      <path id="DejaVuSans-3d" d="M 678 2906 
L 4684 2906 
L 4684 2381 
L 678 2381 
L 678 2906 
z
M 678 1631 
L 4684 1631 
L 4684 1100 
L 678 1100 
L 678 1631 
z
" transform="scale(0.015625)"/>
      <path id="DejaVuSans-2c" d="M 750 794 
L 1409 794 
L 1409 256 
L 897 -744 
L 494 -744 
L 750 256 
L 750 794 
z
" transform="scale(0.015625)"/>
     </defs>
     <use xlink:href="#DejaVuSans-28"/>
     <use xlink:href="#DejaVuSans-74" transform="translate(39.013672 0)"/>
     <use xlink:href="#DejaVuSans-68" transform="translate(78.222656 0)"/>
     <use xlink:href="#DejaVuSans-69" transform="translate(141.601562 0)"/>
     <use xlink:href="#DejaVuSans-63" transform="translate(169.384766 0)"/>
     <use xlink:href="#DejaVuSans-6b" transform="translate(224.365234 0)"/>
     <use xlink:href="#DejaVuSans-20" transform="translate(282.275391 0)"/>
     <use xlink:href="#DejaVuSans-3d" transform="translate(314.0625 0)"/>
     <use xlink:href="#DejaVuSans-20" transform="translate(397.851562 0)"/>
     <use xlink:href="#DejaVuSans-4d" transform="translate(429.638672 0)"/>
     <use xlink:href="#DejaVuSans-54" transform="translate(515.917969 0)"/>
     <use xlink:href="#DejaVuSans-4f" transform="translate(577.001953 0)"/>
     <use xlink:href="#DejaVuSans-4d" transform="translate(655.712891 0)"/>
     <use xlink:href="#DejaVuSans-2c" transform="translate(741.992188 0)"/>
     <use xlink:href="#DejaVuSans-20" transform="translate(773.779297 0)"/>
     <use xlink:href="#DejaVuSans-74" transform="translate(805.566406 0)"/>
     <use xlink:href="#DejaVuSans-68" transform="translate(844.775391 0)"/>
     <use xlink:href="#DejaVuSans-69" transform="translate(908.154297 0)"/>
     <use xlink:href="#DejaVuSans-6e" transform="translate(935.9375 0)"/>
     <use xlink:href="#DejaVuSans-20" transform="translate(999.316406 0)"/>
     <use xlink:href="#DejaVuSans-3d" transform="translate(1031.103516 0)"/>
     <use xlink:href="#DejaVuSans-20" transform="translate(1114.892578 0)"/>
     <use xlink:href="#DejaVuSans-57" transform="translate(1146.679688 0)"/>
     <use xlink:href="#DejaVuSans-5f" transform="translate(1245.556641 0)"/>
     <use xlink:href="#DejaVuSans-65" transform="translate(1295.556641 0)"/>
     <use xlink:href="#DejaVuSans-6d" transform="translate(1357.080078 0)"/>
     <use xlink:href="#DejaVuSans-70" transform="translate(1454.492188 0)"/>
     <use xlink:href="#DejaVuSans-74" transform="translate(1517.96875 0)"/>
     <use xlink:href="#DejaVuSans-79" transform="translate(1557.177734 0)"/>
     <use xlink:href="#DejaVuSans-29" transform="translate(1616.357422 0)"/>
    </g>
   </g>
   <g id="legend_1">
    <g id="patch_7">
     <path d="M 173.933125 238.372781 
L 314.108125 238.372781 
Q 315.508125 238.372781 315.508125 236.972781 
L 315.508125 154.891219 
Q 315.508125 153.491219 314.108125 153.491219 
L 173.933125 153.491219 
Q 172.533125 153.491219 172.533125 154.891219 
L 172.533125 236.972781 
Q 172.533125 238.372781 173.933125 238.372781 
z
" style="fill: #ffffff; opacity: 0.8; stroke: #cccccc; stroke-linejoin: miter"/>
    </g>
    <g id="line2d_35">
     <path d="M 175.333125 159.160125 
L 182.333125 159.160125 
L 189.333125 159.160125 
" style="fill: none; stroke-dasharray: 9.25,4; stroke-dashoffset: 0; stroke: #1f77b4; stroke-width: 2.5"/>
    </g>
    <g id="text_17">
     <!-- Deterministic nominal (MTOM) -->
     <g transform="translate(194.933125 161.610125) scale(0.07 -0.07)">
      <defs>
       <path id="DejaVuSans-44" d="M 1259 4147 
L 1259 519 
L 2022 519 
Q 2988 519 3436 956 
Q 3884 1394 3884 2338 
Q 3884 3275 3436 3711 
Q 2988 4147 2022 4147 
L 1259 4147 
z
M 628 4666 
L 1925 4666 
Q 3281 4666 3915 4102 
Q 4550 3538 4550 2338 
Q 4550 1131 3912 565 
Q 3275 0 1925 0 
L 628 0 
L 628 4666 
z
" transform="scale(0.015625)"/>
       <path id="DejaVuSans-6c" d="M 603 4863 
L 1178 4863 
L 1178 0 
L 603 0 
L 603 4863 
z
" transform="scale(0.015625)"/>
      </defs>
      <use xlink:href="#DejaVuSans-44"/>
      <use xlink:href="#DejaVuSans-65" transform="translate(77.001953 0)"/>
      <use xlink:href="#DejaVuSans-74" transform="translate(138.525391 0)"/>
      <use xlink:href="#DejaVuSans-65" transform="translate(177.734375 0)"/>
      <use xlink:href="#DejaVuSans-72" transform="translate(239.257812 0)"/>
      <use xlink:href="#DejaVuSans-6d" transform="translate(278.621094 0)"/>
      <use xlink:href="#DejaVuSans-69" transform="translate(376.033203 0)"/>
      <use xlink:href="#DejaVuSans-6e" transform="translate(403.816406 0)"/>
      <use xlink:href="#DejaVuSans-69" transform="translate(467.195312 0)"/>
      <use xlink:href="#DejaVuSans-73" transform="translate(494.978516 0)"/>
      <use xlink:href="#DejaVuSans-74" transform="translate(547.078125 0)"/>
      <use xlink:href="#DejaVuSans-69" transform="translate(586.287109 0)"/>
      <use xlink:href="#DejaVuSans-63" transform="translate(614.070312 0)"/>
      <use xlink:href="#DejaVuSans-20" transform="translate(669.050781 0)"/>
      <use xlink:href="#DejaVuSans-6e" transform="translate(700.837891 0)"/>
      <use xlink:href="#DejaVuSans-6f" transform="translate(764.216797 0)"/>
      <use xlink:href="#DejaVuSans-6d" transform="translate(825.398438 0)"/>
      <use xlink:href="#DejaVuSans-69" transform="translate(922.810547 0)"/>
      <use xlink:href="#DejaVuSans-6e" transform="translate(950.59375 0)"/>
      <use xlink:href="#DejaVuSans-61" transform="translate(1013.972656 0)"/>
      <use xlink:href="#DejaVuSans-6c" transform="translate(1075.251953 0)"/>
      <use xlink:href="#DejaVuSans-20" transform="translate(1103.035156 0)"/>
      <use xlink:href="#DejaVuSans-28" transform="translate(1134.822266 0)"/>
      <use xlink:href="#DejaVuSans-4d" transform="translate(1173.835938 0)"/>
      <use xlink:href="#DejaVuSans-54" transform="translate(1260.115234 0)"/>
      <use xlink:href="#DejaVuSans-4f" transform="translate(1321.199219 0)"/>
      <use xlink:href="#DejaVuSans-4d" transform="translate(1399.910156 0)"/>
      <use xlink:href="#DejaVuSans-29" transform="translate(1486.189453 0)"/>
     </g>
    </g>
    <g id="line2d_36">
     <path d="M 175.333125 169.434813 
L 182.333125 169.434813 
L 189.333125 169.434813 
" style="fill: none; stroke-dasharray: 3.7,1.6; stroke-dashoffset: 0; stroke: #1f77b4; stroke-opacity: 0.5"/>
    </g>
    <g id="text_18">
     <!-- Deterministic nominal (W_empty) -->
     <g transform="translate(194.933125 171.884813) scale(0.07 -0.07)">
      <use xlink:href="#DejaVuSans-44"/>
      <use xlink:href="#DejaVuSans-65" transform="translate(77.001953 0)"/>
      <use xlink:href="#DejaVuSans-74" transform="translate(138.525391 0)"/>
      <use xlink:href="#DejaVuSans-65" transform="translate(177.734375 0)"/>
      <use xlink:href="#DejaVuSans-72" transform="translate(239.257812 0)"/>
      <use xlink:href="#DejaVuSans-6d" transform="translate(278.621094 0)"/>
      <use xlink:href="#DejaVuSans-69" transform="translate(376.033203 0)"/>
      <use xlink:href="#DejaVuSans-6e" transform="translate(403.816406 0)"/>
      <use xlink:href="#DejaVuSans-69" transform="translate(467.195312 0)"/>
      <use xlink:href="#DejaVuSans-73" transform="translate(494.978516 0)"/>
      <use xlink:href="#DejaVuSans-74" transform="translate(547.078125 0)"/>
      <use xlink:href="#DejaVuSans-69" transform="translate(586.287109 0)"/>
      <use xlink:href="#DejaVuSans-63" transform="translate(614.070312 0)"/>
      <use xlink:href="#DejaVuSans-20" transform="translate(669.050781 0)"/>
      <use xlink:href="#DejaVuSans-6e" transform="translate(700.837891 0)"/>
      <use xlink:href="#DejaVuSans-6f" transform="translate(764.216797 0)"/>
      <use xlink:href="#DejaVuSans-6d" transform="translate(825.398438 0)"/>
      <use xlink:href="#DejaVuSans-69" transform="translate(922.810547 0)"/>
      <use xlink:href="#DejaVuSans-6e" transform="translate(950.59375 0)"/>
      <use xlink:href="#DejaVuSans-61" transform="translate(1013.972656 0)"/>
      <use xlink:href="#DejaVuSans-6c" transform="translate(1075.251953 0)"/>
      <use xlink:href="#DejaVuSans-20" transform="translate(1103.035156 0)"/>
      <use xlink:href="#DejaVuSans-28" transform="translate(1134.822266 0)"/>
      <use xlink:href="#DejaVuSans-57" transform="translate(1173.835938 0)"/>
      <use xlink:href="#DejaVuSans-5f" transform="translate(1272.712891 0)"/>
      <use xlink:href="#DejaVuSans-65" transform="translate(1322.712891 0)"/>
      <use xlink:href="#DejaVuSans-6d" transform="translate(1384.236328 0)"/>
      <use xlink:href="#DejaVuSans-70" transform="translate(1481.648438 0)"/>
      <use xlink:href="#DejaVuSans-74" transform="translate(1545.125 0)"/>
      <use xlink:href="#DejaVuSans-79" transform="translate(1584.333984 0)"/>
      <use xlink:href="#DejaVuSans-29" transform="translate(1643.513672 0)"/>
     </g>
    </g>
    <g id="line2d_37">
     <path d="M 175.333125 179.904188 
L 182.333125 179.904188 
L 189.333125 179.904188 
" style="fill: none; stroke-dasharray: 16,4,2.5,4; stroke-dashoffset: 0; stroke: #ff7f0e; stroke-width: 2.5"/>
    </g>
    <g id="text_19">
     <!-- UIDD worst-case (MTOM) -->
     <g transform="translate(194.933125 182.354188) scale(0.07 -0.07)">
      <defs>
       <path id="DejaVuSans-55" d="M 556 4666 
L 1191 4666 
L 1191 1831 
Q 1191 1081 1462 751 
Q 1734 422 2344 422 
Q 2950 422 3222 751 
Q 3494 1081 3494 1831 
L 3494 4666 
L 4128 4666 
L 4128 1753 
Q 4128 841 3676 375 
Q 3225 -91 2344 -91 
Q 1459 -91 1007 375 
Q 556 841 556 1753 
L 556 4666 
z
" transform="scale(0.015625)"/>
       <path id="DejaVuSans-49" d="M 628 4666 
L 1259 4666 
L 1259 0 
L 628 0 
L 628 4666 
z
" transform="scale(0.015625)"/>
       <path id="DejaVuSans-77" d="M 269 3500 
L 844 3500 
L 1563 769 
L 2278 3500 
L 2956 3500 
L 3675 769 
L 4391 3500 
L 4966 3500 
L 4050 0 
L 3372 0 
L 2619 2869 
L 1863 0 
L 1184 0 
L 269 3500 
z
" transform="scale(0.015625)"/>
       <path id="DejaVuSans-2d" d="M 313 2009 
L 1997 2009 
L 1997 1497 
L 313 1497 
L 313 2009 
z
" transform="scale(0.015625)"/>
      </defs>
      <use xlink:href="#DejaVuSans-55"/>
      <use xlink:href="#DejaVuSans-49" transform="translate(73.193359 0)"/>
      <use xlink:href="#DejaVuSans-44" transform="translate(102.685547 0)"/>
      <use xlink:href="#DejaVuSans-44" transform="translate(179.6875 0)"/>
      <use xlink:href="#DejaVuSans-20" transform="translate(256.689453 0)"/>
      <use xlink:href="#DejaVuSans-77" transform="translate(288.476562 0)"/>
      <use xlink:href="#DejaVuSans-6f" transform="translate(370.263672 0)"/>
      <use xlink:href="#DejaVuSans-72" transform="translate(431.445312 0)"/>
      <use xlink:href="#DejaVuSans-73" transform="translate(472.558594 0)"/>
      <use xlink:href="#DejaVuSans-74" transform="translate(524.658203 0)"/>
      <use xlink:href="#DejaVuSans-2d" transform="translate(563.867188 0)"/>
      <use xlink:href="#DejaVuSans-63" transform="translate(599.951172 0)"/>
      <use xlink:href="#DejaVuSans-61" transform="translate(654.931641 0)"/>
      <use xlink:href="#DejaVuSans-73" transform="translate(716.210938 0)"/>
      <use xlink:href="#DejaVuSans-65" transform="translate(768.310547 0)"/>
      <use xlink:href="#DejaVuSans-20" transform="translate(829.833984 0)"/>
      <use xlink:href="#DejaVuSans-28" transform="translate(861.621094 0)"/>
      <use xlink:href="#DejaVuSans-4d" transform="translate(900.634766 0)"/>
      <use xlink:href="#DejaVuSans-54" transform="translate(986.914062 0)"/>
      <use xlink:href="#DejaVuSans-4f" transform="translate(1047.998047 0)"/>
      <use xlink:href="#DejaVuSans-4d" transform="translate(1126.708984 0)"/>
      <use xlink:href="#DejaVuSans-29" transform="translate(1212.988281 0)"/>
     </g>
    </g>
    <g id="line2d_38">
     <path d="M 175.333125 190.178875 
L 182.333125 190.178875 
L 189.333125 190.178875 
" style="fill: none; stroke-dasharray: 6.4,1.6,1,1.6; stroke-dashoffset: 0; stroke: #ff7f0e; stroke-opacity: 0.5"/>
    </g>
    <g id="text_20">
     <!-- UIDD worst-case (W_empty) -->
     <g transform="translate(194.933125 192.628875) scale(0.07 -0.07)">
      <use xlink:href="#DejaVuSans-55"/>
      <use xlink:href="#DejaVuSans-49" transform="translate(73.193359 0)"/>
      <use xlink:href="#DejaVuSans-44" transform="translate(102.685547 0)"/>
      <use xlink:href="#DejaVuSans-44" transform="translate(179.6875 0)"/>
      <use xlink:href="#DejaVuSans-20" transform="translate(256.689453 0)"/>
      <use xlink:href="#DejaVuSans-77" transform="translate(288.476562 0)"/>
      <use xlink:href="#DejaVuSans-6f" transform="translate(370.263672 0)"/>
      <use xlink:href="#DejaVuSans-72" transform="translate(431.445312 0)"/>
      <use xlink:href="#DejaVuSans-73" transform="translate(472.558594 0)"/>
      <use xlink:href="#DejaVuSans-74" transform="translate(524.658203 0)"/>
      <use xlink:href="#DejaVuSans-2d" transform="translate(563.867188 0)"/>
      <use xlink:href="#DejaVuSans-63" transform="translate(599.951172 0)"/>
      <use xlink:href="#DejaVuSans-61" transform="translate(654.931641 0)"/>
      <use xlink:href="#DejaVuSans-73" transform="translate(716.210938 0)"/>
      <use xlink:href="#DejaVuSans-65" transform="translate(768.310547 0)"/>
      <use xlink:href="#DejaVuSans-20" transform="translate(829.833984 0)"/>
      <use xlink:href="#DejaVuSans-28" transform="translate(861.621094 0)"/>
      <use xlink:href="#DejaVuSans-57" transform="translate(900.634766 0)"/>
      <use xlink:href="#DejaVuSans-5f" transform="translate(999.511719 0)"/>
      <use xlink:href="#DejaVuSans-65" transform="translate(1049.511719 0)"/>
      <use xlink:href="#DejaVuSans-6d" transform="translate(1111.035156 0)"/>
      <use xlink:href="#DejaVuSans-70" transform="translate(1208.447266 0)"/>
      <use xlink:href="#DejaVuSans-74" transform="translate(1271.923828 0)"/>
      <use xlink:href="#DejaVuSans-79" transform="translate(1311.132812 0)"/>
      <use xlink:href="#DejaVuSans-29" transform="translate(1370.3125 0)"/>
     </g>
    </g>
    <g id="line2d_39">
     <path d="M 175.333125 200.64825 
L 182.333125 200.64825 
L 189.333125 200.64825 
" style="fill: none; stroke: #2ca02c; stroke-width: 2.5; stroke-linecap: square"/>
    </g>
    <g id="text_21">
     <!-- RBDO/UMDO (MTOM) -->
     <g transform="translate(194.933125 203.09825) scale(0.07 -0.07)">
      <defs>
       <path id="DejaVuSans-52" d="M 2841 2188 
Q 3044 2119 3236 1894 
Q 3428 1669 3622 1275 
L 4263 0 
L 3584 0 
L 2988 1197 
Q 2756 1666 2539 1819 
Q 2322 1972 1947 1972 
L 1259 1972 
L 1259 0 
L 628 0 
L 628 4666 
L 2053 4666 
Q 2853 4666 3247 4331 
Q 3641 3997 3641 3322 
Q 3641 2881 3436 2590 
Q 3231 2300 2841 2188 
z
M 1259 4147 
L 1259 2491 
L 2053 2491 
Q 2509 2491 2742 2702 
Q 2975 2913 2975 3322 
Q 2975 3731 2742 3939 
Q 2509 4147 2053 4147 
L 1259 4147 
z
" transform="scale(0.015625)"/>
       <path id="DejaVuSans-42" d="M 1259 2228 
L 1259 519 
L 2272 519 
Q 2781 519 3026 730 
Q 3272 941 3272 1375 
Q 3272 1813 3026 2020 
Q 2781 2228 2272 2228 
L 1259 2228 
z
M 1259 4147 
L 1259 2741 
L 2194 2741 
Q 2656 2741 2882 2914 
Q 3109 3088 3109 3444 
Q 3109 3797 2882 3972 
Q 2656 4147 2194 4147 
L 1259 4147 
z
M 628 4666 
L 2241 4666 
Q 2963 4666 3353 4366 
Q 3744 4066 3744 3513 
Q 3744 3084 3544 2831 
Q 3344 2578 2956 2516 
Q 3422 2416 3680 2098 
Q 3938 1781 3938 1306 
Q 3938 681 3513 340 
Q 3088 0 2303 0 
L 628 0 
L 628 4666 
z
" transform="scale(0.015625)"/>
       <path id="DejaVuSans-2f" d="M 1625 4666 
L 2156 4666 
L 531 -594 
L 0 -594 
L 1625 4666 
z
" transform="scale(0.015625)"/>
      </defs>
      <use xlink:href="#DejaVuSans-52"/>
      <use xlink:href="#DejaVuSans-42" transform="translate(69.482422 0)"/>
      <use xlink:href="#DejaVuSans-44" transform="translate(138.085938 0)"/>
      <use xlink:href="#DejaVuSans-4f" transform="translate(215.087891 0)"/>
      <use xlink:href="#DejaVuSans-2f" transform="translate(293.798828 0)"/>
      <use xlink:href="#DejaVuSans-55" transform="translate(327.490234 0)"/>
      <use xlink:href="#DejaVuSans-4d" transform="translate(400.683594 0)"/>
      <use xlink:href="#DejaVuSans-44" transform="translate(486.962891 0)"/>
      <use xlink:href="#DejaVuSans-4f" transform="translate(563.964844 0)"/>
      <use xlink:href="#DejaVuSans-20" transform="translate(642.675781 0)"/>
      <use xlink:href="#DejaVuSans-28" transform="translate(674.462891 0)"/>
      <use xlink:href="#DejaVuSans-4d" transform="translate(713.476562 0)"/>
      <use xlink:href="#DejaVuSans-54" transform="translate(799.755859 0)"/>
      <use xlink:href="#DejaVuSans-4f" transform="translate(860.839844 0)"/>
      <use xlink:href="#DejaVuSans-4d" transform="translate(939.550781 0)"/>
      <use xlink:href="#DejaVuSans-29" transform="translate(1025.830078 0)"/>
     </g>
    </g>
    <g id="line2d_40">
     <path d="M 175.333125 210.922938 
L 182.333125 210.922938 
L 189.333125 210.922938 
" style="fill: none; stroke: #2ca02c; stroke-opacity: 0.5; stroke-linecap: square"/>
    </g>
    <g id="text_22">
     <!-- RBDO/UMDO (W_empty) -->
     <g transform="translate(194.933125 213.372938) scale(0.07 -0.07)">
      <use xlink:href="#DejaVuSans-52"/>
      <use xlink:href="#DejaVuSans-42" transform="translate(69.482422 0)"/>
      <use xlink:href="#DejaVuSans-44" transform="translate(138.085938 0)"/>
      <use xlink:href="#DejaVuSans-4f" transform="translate(215.087891 0)"/>
      <use xlink:href="#DejaVuSans-2f" transform="translate(293.798828 0)"/>
      <use xlink:href="#DejaVuSans-55" transform="translate(327.490234 0)"/>
      <use xlink:href="#DejaVuSans-4d" transform="translate(400.683594 0)"/>
      <use xlink:href="#DejaVuSans-44" transform="translate(486.962891 0)"/>
      <use xlink:href="#DejaVuSans-4f" transform="translate(563.964844 0)"/>
      <use xlink:href="#DejaVuSans-20" transform="translate(642.675781 0)"/>
      <use xlink:href="#DejaVuSans-28" transform="translate(674.462891 0)"/>
      <use xlink:href="#DejaVuSans-57" transform="translate(713.476562 0)"/>
      <use xlink:href="#DejaVuSans-5f" transform="translate(812.353516 0)"/>
      <use xlink:href="#DejaVuSans-65" transform="translate(862.353516 0)"/>
      <use xlink:href="#DejaVuSans-6d" transform="translate(923.876953 0)"/>
      <use xlink:href="#DejaVuSans-70" transform="translate(1021.289062 0)"/>
      <use xlink:href="#DejaVuSans-74" transform="translate(1084.765625 0)"/>
      <use xlink:href="#DejaVuSans-79" transform="translate(1123.974609 0)"/>
      <use xlink:href="#DejaVuSans-29" transform="translate(1183.154297 0)"/>
     </g>
    </g>
    <g id="line2d_41">
     <path d="M 175.333125 221.392313 
L 182.333125 221.392313 
L 189.333125 221.392313 
" style="fill: none; stroke-dasharray: 5.55,2.4; stroke-dashoffset: 0; stroke: #808080; stroke-opacity: 0.7; stroke-width: 1.5"/>
    </g>
    <g id="text_23">
     <!-- mean (55s) -->
     <g transform="translate(194.933125 223.842312) scale(0.07 -0.07)">
      <use xlink:href="#DejaVuSans-6d"/>
      <use xlink:href="#DejaVuSans-65" transform="translate(97.412109 0)"/>
      <use xlink:href="#DejaVuSans-61" transform="translate(158.935547 0)"/>
      <use xlink:href="#DejaVuSans-6e" transform="translate(220.214844 0)"/>
      <use xlink:href="#DejaVuSans-20" transform="translate(283.59375 0)"/>
      <use xlink:href="#DejaVuSans-28" transform="translate(315.380859 0)"/>
      <use xlink:href="#DejaVuSans-35" transform="translate(354.394531 0)"/>
      <use xlink:href="#DejaVuSans-35" transform="translate(418.017578 0)"/>
      <use xlink:href="#DejaVuSans-73" transform="translate(481.640625 0)"/>
      <use xlink:href="#DejaVuSans-29" transform="translate(533.740234 0)"/>
     </g>
    </g>
    <g id="line2d_42">
     <path d="M 175.333125 231.667 
L 182.333125 231.667 
L 189.333125 231.667 
" style="fill: none; stroke-dasharray: 9.6,2.4,1.5,2.4; stroke-dashoffset: 0; stroke: #808080; stroke-opacity: 0.7; stroke-width: 1.5"/>
    </g>
    <g id="text_24">
     <!-- 97.5% (101.5s) -->
     <g transform="translate(194.933125 234.117) scale(0.07 -0.07)">
      <defs>
       <path id="DejaVuSans-2e" d="M 684 794 
L 1344 794 
L 1344 0 
L 684 0 
L 684 794 
z
" transform="scale(0.015625)"/>
       <path id="DejaVuSans-25" d="M 4653 2053 
Q 4381 2053 4226 1822 
Q 4072 1591 4072 1178 
Q 4072 772 4226 539 
Q 4381 306 4653 306 
Q 4919 306 5073 539 
Q 5228 772 5228 1178 
Q 5228 1588 5073 1820 
Q 4919 2053 4653 2053 
z
M 4653 2450 
Q 5147 2450 5437 2106 
Q 5728 1763 5728 1178 
Q 5728 594 5436 251 
Q 5144 -91 4653 -91 
Q 4153 -91 3862 251 
Q 3572 594 3572 1178 
Q 3572 1766 3864 2108 
Q 4156 2450 4653 2450 
z
M 1428 4353 
Q 1159 4353 1004 4120 
Q 850 3888 850 3481 
Q 850 3069 1003 2837 
Q 1156 2606 1428 2606 
Q 1700 2606 1854 2837 
Q 2009 3069 2009 3481 
Q 2009 3884 1853 4118 
Q 1697 4353 1428 4353 
z
M 4250 4750 
L 4750 4750 
L 1831 -91 
L 1331 -91 
L 4250 4750 
z
M 1428 4750 
Q 1922 4750 2215 4408 
Q 2509 4066 2509 3481 
Q 2509 2891 2217 2550 
Q 1925 2209 1428 2209 
Q 931 2209 642 2551 
Q 353 2894 353 3481 
Q 353 4063 643 4406 
Q 934 4750 1428 4750 
z
" transform="scale(0.015625)"/>
      </defs>
      <use xlink:href="#DejaVuSans-39"/>
      <use xlink:href="#DejaVuSans-37" transform="translate(63.623047 0)"/>
      <use xlink:href="#DejaVuSans-2e" transform="translate(127.246094 0)"/>
      <use xlink:href="#DejaVuSans-35" transform="translate(159.033203 0)"/>
      <use xlink:href="#DejaVuSans-25" transform="translate(222.65625 0)"/>
      <use xlink:href="#DejaVuSans-20" transform="translate(317.675781 0)"/>
      <use xlink:href="#DejaVuSans-28" transform="translate(349.462891 0)"/>
      <use xlink:href="#DejaVuSans-31" transform="translate(388.476562 0)"/>
      <use xlink:href="#DejaVuSans-30" transform="translate(452.099609 0)"/>
      <use xlink:href="#DejaVuSans-31" transform="translate(515.722656 0)"/>
      <use xlink:href="#DejaVuSans-2e" transform="translate(579.345703 0)"/>
      <use xlink:href="#DejaVuSans-35" transform="translate(611.132812 0)"/>
      <use xlink:href="#DejaVuSans-73" transform="translate(674.755859 0)"/>
      <use xlink:href="#DejaVuSans-29" transform="translate(726.855469 0)"/>
     </g>
    </g>
   </g>
  </g>
  <g id="axes_2">
   <g id="patch_8">
    <path d="M 501.610625 317.8 
L 921.170625 317.8 
L 921.170625 74.064 
L 501.610625 74.064 
z
" style="fill: #ffffff"/>
   </g>
   <g id="matplotlib.axis_3">
    <g id="xtick_7">
     <g id="line2d_43">
      <path d="M 502.518764 317.8 
L 502.518764 74.064 
" clip-path="url(#p3cdf69606f)" style="fill: none; stroke: #b0b0b0; stroke-opacity: 0.3; stroke-width: 0.8; stroke-linecap: square"/>
     </g>
     <g id="line2d_44">
      <g>
       <use xlink:href="#m1937a274b5" x="502.518764" y="317.8" style="stroke: #000000; stroke-width: 0.8"/>
      </g>
     </g>
     <g id="text_25">
      <!-- 20 -->
      <g transform="translate(496.156264 332.398438) scale(0.1 -0.1)">
       <use xlink:href="#DejaVuSans-32"/>
       <use xlink:href="#DejaVuSans-30" transform="translate(63.623047 0)"/>
      </g>
     </g>
    </g>
    <g id="xtick_8">
     <g id="line2d_45">
      <path d="M 575.169846 317.8 
L 575.169846 74.064 
" clip-path="url(#p3cdf69606f)" style="fill: none; stroke: #b0b0b0; stroke-opacity: 0.3; stroke-width: 0.8; stroke-linecap: square"/>
     </g>
     <g id="line2d_46">
      <g>
       <use xlink:href="#m1937a274b5" x="575.169846" y="317.8" style="stroke: #000000; stroke-width: 0.8"/>
      </g>
     </g>
     <g id="text_26">
      <!-- 40 -->
      <g transform="translate(568.807346 332.398438) scale(0.1 -0.1)">
       <use xlink:href="#DejaVuSans-34"/>
       <use xlink:href="#DejaVuSans-30" transform="translate(63.623047 0)"/>
      </g>
     </g>
    </g>
    <g id="xtick_9">
     <g id="line2d_47">
      <path d="M 647.820928 317.8 
L 647.820928 74.064 
" clip-path="url(#p3cdf69606f)" style="fill: none; stroke: #b0b0b0; stroke-opacity: 0.3; stroke-width: 0.8; stroke-linecap: square"/>
     </g>
     <g id="line2d_48">
      <g>
       <use xlink:href="#m1937a274b5" x="647.820928" y="317.8" style="stroke: #000000; stroke-width: 0.8"/>
      </g>
     </g>
     <g id="text_27">
      <!-- 60 -->
      <g transform="translate(641.458428 332.398438) scale(0.1 -0.1)">
       <use xlink:href="#DejaVuSans-36"/>
       <use xlink:href="#DejaVuSans-30" transform="translate(63.623047 0)"/>
      </g>
     </g>
    </g>
    <g id="xtick_10">
     <g id="line2d_49">
      <path d="M 720.47201 317.8 
L 720.47201 74.064 
" clip-path="url(#p3cdf69606f)" style="fill: none; stroke: #b0b0b0; stroke-opacity: 0.3; stroke-width: 0.8; stroke-linecap: square"/>
     </g>
     <g id="line2d_50">
      <g>
       <use xlink:href="#m1937a274b5" x="720.47201" y="317.8" style="stroke: #000000; stroke-width: 0.8"/>
      </g>
     </g>
     <g id="text_28">
      <!-- 80 -->
      <g transform="translate(714.10951 332.398438) scale(0.1 -0.1)">
       <use xlink:href="#DejaVuSans-38"/>
       <use xlink:href="#DejaVuSans-30" transform="translate(63.623047 0)"/>
      </g>
     </g>
    </g>
    <g id="xtick_11">
     <g id="line2d_51">
      <path d="M 793.123093 317.8 
L 793.123093 74.064 
" clip-path="url(#p3cdf69606f)" style="fill: none; stroke: #b0b0b0; stroke-opacity: 0.3; stroke-width: 0.8; stroke-linecap: square"/>
     </g>
     <g id="line2d_52">
      <g>
       <use xlink:href="#m1937a274b5" x="793.123093" y="317.8" style="stroke: #000000; stroke-width: 0.8"/>
      </g>
     </g>
     <g id="text_29">
      <!-- 100 -->
      <g transform="translate(783.579343 332.398438) scale(0.1 -0.1)">
       <use xlink:href="#DejaVuSans-31"/>
       <use xlink:href="#DejaVuSans-30" transform="translate(63.623047 0)"/>
       <use xlink:href="#DejaVuSans-30" transform="translate(127.246094 0)"/>
      </g>
     </g>
    </g>
    <g id="xtick_12">
     <g id="line2d_53">
      <path d="M 865.774175 317.8 
L 865.774175 74.064 
" clip-path="url(#p3cdf69606f)" style="fill: none; stroke: #b0b0b0; stroke-opacity: 0.3; stroke-width: 0.8; stroke-linecap: square"/>
     </g>
     <g id="line2d_54">
      <g>
       <use xlink:href="#m1937a274b5" x="865.774175" y="317.8" style="stroke: #000000; stroke-width: 0.8"/>
      </g>
     </g>
     <g id="text_30">
      <!-- 120 -->
      <g transform="translate(856.230425 332.398438) scale(0.1 -0.1)">
       <use xlink:href="#DejaVuSans-31"/>
       <use xlink:href="#DejaVuSans-32" transform="translate(63.623047 0)"/>
       <use xlink:href="#DejaVuSans-30" transform="translate(127.246094 0)"/>
      </g>
     </g>
    </g>
    <g id="text_31">
     <!-- t_hover (s) -->
     <g transform="translate(684.515625 346.076562) scale(0.1 -0.1)">
      <use xlink:href="#DejaVuSans-74"/>
      <use xlink:href="#DejaVuSans-5f" transform="translate(39.208984 0)"/>
      <use xlink:href="#DejaVuSans-68" transform="translate(89.208984 0)"/>
      <use xlink:href="#DejaVuSans-6f" transform="translate(152.587891 0)"/>
      <use xlink:href="#DejaVuSans-76" transform="translate(213.769531 0)"/>
      <use xlink:href="#DejaVuSans-65" transform="translate(272.949219 0)"/>
      <use xlink:href="#DejaVuSans-72" transform="translate(334.472656 0)"/>
      <use xlink:href="#DejaVuSans-20" transform="translate(375.585938 0)"/>
      <use xlink:href="#DejaVuSans-28" transform="translate(407.373047 0)"/>
      <use xlink:href="#DejaVuSans-73" transform="translate(446.386719 0)"/>
      <use xlink:href="#DejaVuSans-29" transform="translate(498.486328 0)"/>
     </g>
    </g>
   </g>
   <g id="matplotlib.axis_4">
    <g id="ytick_8">
     <g id="line2d_55">
      <path d="M 501.610625 308.951638 
L 921.170625 308.951638 
" clip-path="url(#p3cdf69606f)" style="fill: none; stroke: #b0b0b0; stroke-opacity: 0.3; stroke-width: 0.8; stroke-linecap: square"/>
     </g>
     <g id="line2d_56">
      <g>
       <use xlink:href="#md9cf9f4d1e" x="501.610625" y="308.951638" style="stroke: #000000; stroke-width: 0.8"/>
      </g>
     </g>
     <g id="text_32">
      <!-- 0.8 -->
      <g transform="translate(478.7075 312.750857) scale(0.1 -0.1)">
       <use xlink:href="#DejaVuSans-30"/>
       <use xlink:href="#DejaVuSans-2e" transform="translate(63.623047 0)"/>
       <use xlink:href="#DejaVuSans-38" transform="translate(95.410156 0)"/>
      </g>
     </g>
    </g>
    <g id="ytick_9">
     <g id="line2d_57">
      <path d="M 501.610625 279.114252 
L 921.170625 279.114252 
" clip-path="url(#p3cdf69606f)" style="fill: none; stroke: #b0b0b0; stroke-opacity: 0.3; stroke-width: 0.8; stroke-linecap: square"/>
     </g>
     <g id="line2d_58">
      <g>
       <use xlink:href="#md9cf9f4d1e" x="501.610625" y="279.114252" style="stroke: #000000; stroke-width: 0.8"/>
      </g>
     </g>
     <g id="text_33">
      <!-- 1.0 -->
      <g transform="translate(478.7075 282.913471) scale(0.1 -0.1)">
       <use xlink:href="#DejaVuSans-31"/>
       <use xlink:href="#DejaVuSans-2e" transform="translate(63.623047 0)"/>
       <use xlink:href="#DejaVuSans-30" transform="translate(95.410156 0)"/>
      </g>
     </g>
    </g>
    <g id="ytick_10">
     <g id="line2d_59">
      <path d="M 501.610625 249.276867 
L 921.170625 249.276867 
" clip-path="url(#p3cdf69606f)" style="fill: none; stroke: #b0b0b0; stroke-opacity: 0.3; stroke-width: 0.8; stroke-linecap: square"/>
     </g>
     <g id="line2d_60">
      <g>
       <use xlink:href="#md9cf9f4d1e" x="501.610625" y="249.276867" style="stroke: #000000; stroke-width: 0.8"/>
      </g>
     </g>
     <g id="text_34">
      <!-- 1.2 -->
      <g transform="translate(478.7075 253.076085) scale(0.1 -0.1)">
       <use xlink:href="#DejaVuSans-31"/>
       <use xlink:href="#DejaVuSans-2e" transform="translate(63.623047 0)"/>
       <use xlink:href="#DejaVuSans-32" transform="translate(95.410156 0)"/>
      </g>
     </g>
    </g>
    <g id="ytick_11">
     <g id="line2d_61">
      <path d="M 501.610625 219.439481 
L 921.170625 219.439481 
" clip-path="url(#p3cdf69606f)" style="fill: none; stroke: #b0b0b0; stroke-opacity: 0.3; stroke-width: 0.8; stroke-linecap: square"/>
     </g>
     <g id="line2d_62">
      <g>
       <use xlink:href="#md9cf9f4d1e" x="501.610625" y="219.439481" style="stroke: #000000; stroke-width: 0.8"/>
      </g>
     </g>
     <g id="text_35">
      <!-- 1.4 -->
      <g transform="translate(478.7075 223.2387) scale(0.1 -0.1)">
       <use xlink:href="#DejaVuSans-31"/>
       <use xlink:href="#DejaVuSans-2e" transform="translate(63.623047 0)"/>
       <use xlink:href="#DejaVuSans-34" transform="translate(95.410156 0)"/>
      </g>
     </g>
    </g>
    <g id="ytick_12">
     <g id="line2d_63">
      <path d="M 501.610625 189.602095 
L 921.170625 189.602095 
" clip-path="url(#p3cdf69606f)" style="fill: none; stroke: #b0b0b0; stroke-opacity: 0.3; stroke-width: 0.8; stroke-linecap: square"/>
     </g>
     <g id="line2d_64">
      <g>
       <use xlink:href="#md9cf9f4d1e" x="501.610625" y="189.602095" style="stroke: #000000; stroke-width: 0.8"/>
      </g>
     </g>
     <g id="text_36">
      <!-- 1.6 -->
      <g transform="translate(478.7075 193.401314) scale(0.1 -0.1)">
       <use xlink:href="#DejaVuSans-31"/>
       <use xlink:href="#DejaVuSans-2e" transform="translate(63.623047 0)"/>
       <use xlink:href="#DejaVuSans-36" transform="translate(95.410156 0)"/>
      </g>
     </g>
    </g>
    <g id="ytick_13">
     <g id="line2d_65">
      <path d="M 501.610625 159.76471 
L 921.170625 159.76471 
" clip-path="url(#p3cdf69606f)" style="fill: none; stroke: #b0b0b0; stroke-opacity: 0.3; stroke-width: 0.8; stroke-linecap: square"/>
     </g>
     <g id="line2d_66">
      <g>
       <use xlink:href="#md9cf9f4d1e" x="501.610625" y="159.76471" style="stroke: #000000; stroke-width: 0.8"/>
      </g>
     </g>
     <g id="text_37">
      <!-- 1.8 -->
      <g transform="translate(478.7075 163.563928) scale(0.1 -0.1)">
       <use xlink:href="#DejaVuSans-31"/>
       <use xlink:href="#DejaVuSans-2e" transform="translate(63.623047 0)"/>
       <use xlink:href="#DejaVuSans-38" transform="translate(95.410156 0)"/>
      </g>
     </g>
    </g>
    <g id="ytick_14">
     <g id="line2d_67">
      <path d="M 501.610625 129.927324 
L 921.170625 129.927324 
" clip-path="url(#p3cdf69606f)" style="fill: none; stroke: #b0b0b0; stroke-opacity: 0.3; stroke-width: 0.8; stroke-linecap: square"/>
     </g>
     <g id="line2d_68">
      <g>
       <use xlink:href="#md9cf9f4d1e" x="501.610625" y="129.927324" style="stroke: #000000; stroke-width: 0.8"/>
      </g>
     </g>
     <g id="text_38">
      <!-- 2.0 -->
      <g transform="translate(478.7075 133.726543) scale(0.1 -0.1)">
       <use xlink:href="#DejaVuSans-32"/>
       <use xlink:href="#DejaVuSans-2e" transform="translate(63.623047 0)"/>
       <use xlink:href="#DejaVuSans-30" transform="translate(95.410156 0)"/>
      </g>
     </g>
    </g>
    <g id="ytick_15">
     <g id="line2d_69">
      <path d="M 501.610625 100.089938 
L 921.170625 100.089938 
" clip-path="url(#p3cdf69606f)" style="fill: none; stroke: #b0b0b0; stroke-opacity: 0.3; stroke-width: 0.8; stroke-linecap: square"/>
     </g>
     <g id="line2d_70">
      <g>
       <use xlink:href="#md9cf9f4d1e" x="501.610625" y="100.089938" style="stroke: #000000; stroke-width: 0.8"/>
      </g>
     </g>
     <g id="text_39">
      <!-- 2.2 -->
      <g transform="translate(478.7075 103.889157) scale(0.1 -0.1)">
       <use xlink:href="#DejaVuSans-32"/>
       <use xlink:href="#DejaVuSans-2e" transform="translate(63.623047 0)"/>
       <use xlink:href="#DejaVuSans-32" transform="translate(95.410156 0)"/>
      </g>
     </g>
    </g>
    <g id="text_40">
     <!-- Battery mass (kg) -->
     <g transform="translate(472.627813 240.731219) rotate(-90) scale(0.1 -0.1)">
      <use xlink:href="#DejaVuSans-42"/>
      <use xlink:href="#DejaVuSans-61" transform="translate(68.603516 0)"/>
      <use xlink:href="#DejaVuSans-74" transform="translate(129.882812 0)"/>
      <use xlink:href="#DejaVuSans-74" transform="translate(169.091797 0)"/>
      <use xlink:href="#DejaVuSans-65" transform="translate(208.300781 0)"/>
      <use xlink:href="#DejaVuSans-72" transform="translate(269.824219 0)"/>
      <use xlink:href="#DejaVuSans-79" transform="translate(310.9375 0)"/>
      <use xlink:href="#DejaVuSans-20" transform="translate(370.117188 0)"/>
      <use xlink:href="#DejaVuSans-6d" transform="translate(401.904297 0)"/>
      <use xlink:href="#DejaVuSans-61" transform="translate(499.316406 0)"/>
      <use xlink:href="#DejaVuSans-73" transform="translate(560.595703 0)"/>
      <use xlink:href="#DejaVuSans-73" transform="translate(612.695312 0)"/>
      <use xlink:href="#DejaVuSans-20" transform="translate(664.794922 0)"/>
      <use xlink:href="#DejaVuSans-28" transform="translate(696.582031 0)"/>
      <use xlink:href="#DejaVuSans-6b" transform="translate(735.595703 0)"/>
      <use xlink:href="#DejaVuSans-67" transform="translate(793.505859 0)"/>
      <use xlink:href="#DejaVuSans-29" transform="translate(856.982422 0)"/>
     </g>
    </g>
   </g>
   <g id="line2d_71">
    <path d="M 520.681534 306.721091 
L 530.461487 303.078013 
L 540.241441 299.372352 
L 550.021394 295.602064 
L 559.801348 291.764983 
L 569.581301 287.864938 
L 579.361254 283.887526 
L 589.141208 279.83614 
L 598.921161 275.708652 
L 608.701115 271.506077 
L 618.481068 267.220175 
L 628.261021 262.849769 
L 638.040975 258.391713 
L 647.820928 253.842675 
L 657.600881 249.199122 
L 667.380835 244.457301 
L 677.160788 239.613202 
L 686.940742 234.662515 
L 696.720695 229.600552 
L 706.500648 224.4221 
L 716.280602 219.133148 
L 726.060555 213.70738 
L 735.840508 208.152942 
L 745.620462 202.460597 
L 755.400415 196.623449 
L 765.180369 190.632488 
L 774.960322 184.493133 
L 784.740275 178.173633 
L 794.520229 171.68263 
L 804.300182 165.005574 
L 814.080135 158.132149 
L 823.860089 151.05095 
L 833.640042 143.749567 
L 843.419996 136.214426 
L 853.199949 128.430634 
L 862.979902 120.381803 
L 872.759856 112.049836 
L 882.539809 103.414677 
L 892.319763 94.454012 
L 902.099716 85.142909 
" clip-path="url(#p3cdf69606f)" style="fill: none; stroke-dasharray: 9.25,4; stroke-dashoffset: 0; stroke: #1f77b4; stroke-width: 2.5"/>
   </g>
   <g id="line2d_72">
    <path d="M 520.681534 291.183612 
L 530.461487 288.06479 
L 540.241441 284.903682 
L 550.021394 281.69923 
L 559.801348 278.450338 
L 569.581301 275.155867 
L 579.361254 271.814631 
L 589.141208 268.425398 
L 598.921161 264.986885 
L 608.701115 261.497752 
L 618.481068 257.956602 
L 628.261021 254.361972 
L 638.040975 250.71233 
L 647.820928 247.006065 
L 657.600881 243.241481 
L 667.380835 239.425315 
L 677.160788 235.538917 
L 686.940742 231.588535 
L 696.720695 227.575014 
L 706.500648 223.494176 
L 716.280602 219.343903 
L 726.060555 215.121976 
L 735.840508 210.826012 
L 745.620462 206.453656 
L 755.400415 202.002297 
L 765.180369 197.469224 
L 774.960322 192.85158 
L 784.740275 188.146341 
L 794.520229 183.3503 
L 804.300182 178.460032 
L 814.080135 173.471854 
L 823.860089 168.381754 
L 833.640042 163.20026 
L 843.419996 157.892683 
L 853.199949 152.475502 
L 862.979902 146.941149 
L 872.759856 141.283469 
L 882.539809 135.497059 
L 892.319763 129.575881 
L 902.099716 123.512202 
" clip-path="url(#p3cdf69606f)" style="fill: none; stroke-dasharray: 16,4,2.5,4; stroke-dashoffset: 0; stroke: #ff7f0e; stroke-width: 2.5"/>
   </g>
   <g id="line2d_73">
    <path d="M 520.681534 300.123396 
L 530.461487 296.55712 
L 540.241441 292.932538 
L 550.021394 289.24787 
L 559.801348 285.501245 
L 569.581301 281.690697 
L 579.361254 277.814151 
L 589.141208 273.869414 
L 598.921161 269.854153 
L 608.701115 265.773127 
L 618.481068 261.609501 
L 628.261021 257.369917 
L 638.040975 253.050446 
L 647.820928 248.647834 
L 657.600881 244.159104 
L 667.380835 239.581058 
L 677.160788 234.910326 
L 686.940742 230.143344 
L 696.720695 225.276324 
L 706.500648 220.305231 
L 716.280602 215.225747 
L 726.060555 210.033209 
L 735.840508 204.722519 
L 745.620462 199.300872 
L 755.400415 193.736187 
L 765.180369 188.042265 
L 774.960322 182.209107 
L 784.740275 176.22928 
L 794.520229 170.095304 
L 804.300182 163.797486 
L 814.080135 157.332442 
L 823.860089 150.694061 
L 833.640042 143.86296 
L 843.419996 136.83346 
L 853.199949 129.593716 
L 862.979902 122.131572 
L 872.759856 114.433476 
L 882.539809 106.484591 
L 892.319763 98.26861 
L 902.099716 89.767547 
" clip-path="url(#p3cdf69606f)" style="fill: none; stroke: #2ca02c; stroke-width: 2.5; stroke-linecap: square"/>
   </g>
   <g id="line2d_74">
    <path d="M 629.658157 317.8 
L 629.658157 74.064 
" clip-path="url(#p3cdf69606f)" style="fill: none; stroke-dasharray: 5.55,2.4; stroke-dashoffset: 0; stroke: #808080; stroke-opacity: 0.7; stroke-width: 1.5"/>
   </g>
   <g id="line2d_75">
    <path d="M 798.571924 317.8 
L 798.571924 74.064 
" clip-path="url(#p3cdf69606f)" style="fill: none; stroke-dasharray: 9.6,2.4,1.5,2.4; stroke-dashoffset: 0; stroke: #808080; stroke-opacity: 0.7; stroke-width: 1.5"/>
   </g>
   <g id="patch_9">
    <path d="M 501.610625 317.8 
L 501.610625 74.064 
" style="fill: none; stroke: #000000; stroke-width: 0.8; stroke-linejoin: miter; stroke-linecap: square"/>
   </g>
   <g id="patch_10">
    <path d="M 921.170625 317.8 
L 921.170625 74.064 
" style="fill: none; stroke: #000000; stroke-width: 0.8; stroke-linejoin: miter; stroke-linecap: square"/>
   </g>
   <g id="patch_11">
    <path d="M 501.610625 317.8 
L 921.170625 317.8 
" style="fill: none; stroke: #000000; stroke-width: 0.8; stroke-linejoin: miter; stroke-linecap: square"/>
   </g>
   <g id="patch_12">
    <path d="M 501.610625 74.064 
L 921.170625 74.064 
" style="fill: none; stroke: #000000; stroke-width: 0.8; stroke-linejoin: miter; stroke-linecap: square"/>
   </g>
   <g id="text_41">
    <!-- Battery mass vs hover time -->
    <g transform="translate(628.3675 54.626625) scale(0.12 -0.12)">
     <use xlink:href="#DejaVuSans-42"/>
     <use xlink:href="#DejaVuSans-61" transform="translate(68.603516 0)"/>
     <use xlink:href="#DejaVuSans-74" transform="translate(129.882812 0)"/>
     <use xlink:href="#DejaVuSans-74" transform="translate(169.091797 0)"/>
     <use xlink:href="#DejaVuSans-65" transform="translate(208.300781 0)"/>
     <use xlink:href="#DejaVuSans-72" transform="translate(269.824219 0)"/>
     <use xlink:href="#DejaVuSans-79" transform="translate(310.9375 0)"/>
     <use xlink:href="#DejaVuSans-20" transform="translate(370.117188 0)"/>
     <use xlink:href="#DejaVuSans-6d" transform="translate(401.904297 0)"/>
     <use xlink:href="#DejaVuSans-61" transform="translate(499.316406 0)"/>
     <use xlink:href="#DejaVuSans-73" transform="translate(560.595703 0)"/>
     <use xlink:href="#DejaVuSans-73" transform="translate(612.695312 0)"/>
     <use xlink:href="#DejaVuSans-20" transform="translate(664.794922 0)"/>
     <use xlink:href="#DejaVuSans-76" transform="translate(696.582031 0)"/>
     <use xlink:href="#DejaVuSans-73" transform="translate(755.761719 0)"/>
     <use xlink:href="#DejaVuSans-20" transform="translate(807.861328 0)"/>
     <use xlink:href="#DejaVuSans-68" transform="translate(839.648438 0)"/>
     <use xlink:href="#DejaVuSans-6f" transform="translate(903.027344 0)"/>
     <use xlink:href="#DejaVuSans-76" transform="translate(964.208984 0)"/>
     <use xlink:href="#DejaVuSans-65" transform="translate(1023.388672 0)"/>
     <use xlink:href="#DejaVuSans-72" transform="translate(1084.912109 0)"/>
     <use xlink:href="#DejaVuSans-20" transform="translate(1126.025391 0)"/>
     <use xlink:href="#DejaVuSans-74" transform="translate(1157.8125 0)"/>
     <use xlink:href="#DejaVuSans-69" transform="translate(1197.021484 0)"/>
     <use xlink:href="#DejaVuSans-6d" transform="translate(1224.804688 0)"/>
     <use xlink:href="#DejaVuSans-65" transform="translate(1322.216797 0)"/>
    </g>
    <!-- (dominant variable component) -->
    <g transform="translate(616.119063 68.064) scale(0.12 -0.12)">
     <defs>
      <path id="DejaVuSans-62" d="M 3116 1747 
Q 3116 2381 2855 2742 
Q 2594 3103 2138 3103 
Q 1681 3103 1420 2742 
Q 1159 2381 1159 1747 
Q 1159 1113 1420 752 
Q 1681 391 2138 391 
Q 2594 391 2855 752 
Q 3116 1113 3116 1747 
z
M 1159 2969 
Q 1341 3281 1617 3432 
Q 1894 3584 2278 3584 
Q 2916 3584 3314 3078 
Q 3713 2572 3713 1747 
Q 3713 922 3314 415 
Q 2916 -91 2278 -91 
Q 1894 -91 1617 61 
Q 1341 213 1159 525 
L 1159 0 
L 581 0 
L 581 4863 
L 1159 4863 
L 1159 2969 
z
" transform="scale(0.015625)"/>
     </defs>
     <use xlink:href="#DejaVuSans-28"/>
     <use xlink:href="#DejaVuSans-64" transform="translate(39.013672 0)"/>
     <use xlink:href="#DejaVuSans-6f" transform="translate(102.490234 0)"/>
     <use xlink:href="#DejaVuSans-6d" transform="translate(163.671875 0)"/>
     <use xlink:href="#DejaVuSans-69" transform="translate(261.083984 0)"/>
     <use xlink:href="#DejaVuSans-6e" transform="translate(288.867188 0)"/>
     <use xlink:href="#DejaVuSans-61" transform="translate(352.246094 0)"/>
     <use xlink:href="#DejaVuSans-6e" transform="translate(413.525391 0)"/>
     <use xlink:href="#DejaVuSans-74" transform="translate(476.904297 0)"/>
     <use xlink:href="#DejaVuSans-20" transform="translate(516.113281 0)"/>
     <use xlink:href="#DejaVuSans-76" transform="translate(547.900391 0)"/>
     <use xlink:href="#DejaVuSans-61" transform="translate(607.080078 0)"/>
     <use xlink:href="#DejaVuSans-72" transform="translate(668.359375 0)"/>
     <use xlink:href="#DejaVuSans-69" transform="translate(709.472656 0)"/>
     <use xlink:href="#DejaVuSans-61" transform="translate(737.255859 0)"/>
     <use xlink:href="#DejaVuSans-62" transform="translate(798.535156 0)"/>
     <use xlink:href="#DejaVuSans-6c" transform="translate(862.011719 0)"/>
     <use xlink:href="#DejaVuSans-65" transform="translate(889.794922 0)"/>
     <use xlink:href="#DejaVuSans-20" transform="translate(951.318359 0)"/>
     <use xlink:href="#DejaVuSans-63" transform="translate(983.105469 0)"/>
     <use xlink:href="#DejaVuSans-6f" transform="translate(1038.085938 0)"/>
     <use xlink:href="#DejaVuSans-6d" transform="translate(1099.267578 0)"/>
     <use xlink:href="#DejaVuSans-70" transform="translate(1196.679688 0)"/>
     <use xlink:href="#DejaVuSans-6f" transform="translate(1260.15625 0)"/>
     <use xlink:href="#DejaVuSans-6e" transform="translate(1321.337891 0)"/>
     <use xlink:href="#DejaVuSans-65" transform="translate(1384.716797 0)"/>
     <use xlink:href="#DejaVuSans-6e" transform="translate(1446.240234 0)"/>
     <use xlink:href="#DejaVuSans-74" transform="translate(1509.619141 0)"/>
     <use xlink:href="#DejaVuSans-29" transform="translate(1548.828125 0)"/>
    </g>
   </g>
   <g id="legend_2">
    <g id="patch_13">
     <path d="M 507.210625 139.1765 
L 621.050625 139.1765 
Q 622.650625 139.1765 622.650625 137.5765 
L 622.650625 79.664 
Q 622.650625 78.064 621.050625 78.064 
L 507.210625 78.064 
Q 505.610625 78.064 505.610625 79.664 
L 505.610625 137.5765 
Q 505.610625 139.1765 507.210625 139.1765 
z
" style="fill: #ffffff; opacity: 0.8; stroke: #cccccc; stroke-linejoin: miter"/>
    </g>
    <g id="line2d_76">
     <path d="M 508.810625 84.54275 
L 516.810625 84.54275 
L 524.810625 84.54275 
" style="fill: none; stroke-dasharray: 9.25,4; stroke-dashoffset: 0; stroke: #1f77b4; stroke-width: 2.5"/>
    </g>
    <g id="text_42">
     <!-- Deterministic nominal -->
     <g transform="translate(531.210625 87.34275) scale(0.08 -0.08)">
      <use xlink:href="#DejaVuSans-44"/>
      <use xlink:href="#DejaVuSans-65" transform="translate(77.001953 0)"/>
      <use xlink:href="#DejaVuSans-74" transform="translate(138.525391 0)"/>
      <use xlink:href="#DejaVuSans-65" transform="translate(177.734375 0)"/>
      <use xlink:href="#DejaVuSans-72" transform="translate(239.257812 0)"/>
      <use xlink:href="#DejaVuSans-6d" transform="translate(278.621094 0)"/>
      <use xlink:href="#DejaVuSans-69" transform="translate(376.033203 0)"/>
      <use xlink:href="#DejaVuSans-6e" transform="translate(403.816406 0)"/>
      <use xlink:href="#DejaVuSans-69" transform="translate(467.195312 0)"/>
      <use xlink:href="#DejaVuSans-73" transform="translate(494.978516 0)"/>
      <use xlink:href="#DejaVuSans-74" transform="translate(547.078125 0)"/>
      <use xlink:href="#DejaVuSans-69" transform="translate(586.287109 0)"/>
      <use xlink:href="#DejaVuSans-63" transform="translate(614.070312 0)"/>
      <use xlink:href="#DejaVuSans-20" transform="translate(669.050781 0)"/>
      <use xlink:href="#DejaVuSans-6e" transform="translate(700.837891 0)"/>
      <use xlink:href="#DejaVuSans-6f" transform="translate(764.216797 0)"/>
      <use xlink:href="#DejaVuSans-6d" transform="translate(825.398438 0)"/>
      <use xlink:href="#DejaVuSans-69" transform="translate(922.810547 0)"/>
      <use xlink:href="#DejaVuSans-6e" transform="translate(950.59375 0)"/>
      <use xlink:href="#DejaVuSans-61" transform="translate(1013.972656 0)"/>
      <use xlink:href="#DejaVuSans-6c" transform="translate(1075.251953 0)"/>
     </g>
    </g>
    <g id="line2d_77">
     <path d="M 508.810625 96.28525 
L 516.810625 96.28525 
L 524.810625 96.28525 
" style="fill: none; stroke-dasharray: 16,4,2.5,4; stroke-dashoffset: 0; stroke: #ff7f0e; stroke-width: 2.5"/>
    </g>
    <g id="text_43">
     <!-- UIDD worst-case -->
     <g transform="translate(531.210625 99.08525) scale(0.08 -0.08)">
      <use xlink:href="#DejaVuSans-55"/>
      <use xlink:href="#DejaVuSans-49" transform="translate(73.193359 0)"/>
      <use xlink:href="#DejaVuSans-44" transform="translate(102.685547 0)"/>
      <use xlink:href="#DejaVuSans-44" transform="translate(179.6875 0)"/>
      <use xlink:href="#DejaVuSans-20" transform="translate(256.689453 0)"/>
      <use xlink:href="#DejaVuSans-77" transform="translate(288.476562 0)"/>
      <use xlink:href="#DejaVuSans-6f" transform="translate(370.263672 0)"/>
      <use xlink:href="#DejaVuSans-72" transform="translate(431.445312 0)"/>
      <use xlink:href="#DejaVuSans-73" transform="translate(472.558594 0)"/>
      <use xlink:href="#DejaVuSans-74" transform="translate(524.658203 0)"/>
      <use xlink:href="#DejaVuSans-2d" transform="translate(563.867188 0)"/>
      <use xlink:href="#DejaVuSans-63" transform="translate(599.951172 0)"/>
      <use xlink:href="#DejaVuSans-61" transform="translate(654.931641 0)"/>
      <use xlink:href="#DejaVuSans-73" transform="translate(716.210938 0)"/>
      <use xlink:href="#DejaVuSans-65" transform="translate(768.310547 0)"/>
     </g>
    </g>
    <g id="line2d_78">
     <path d="M 508.810625 108.02775 
L 516.810625 108.02775 
L 524.810625 108.02775 
" style="fill: none; stroke: #2ca02c; stroke-width: 2.5; stroke-linecap: square"/>
    </g>
    <g id="text_44">
     <!-- RBDO/UMDO -->
     <g transform="translate(531.210625 110.82775) scale(0.08 -0.08)">
      <use xlink:href="#DejaVuSans-52"/>
      <use xlink:href="#DejaVuSans-42" transform="translate(69.482422 0)"/>
      <use xlink:href="#DejaVuSans-44" transform="translate(138.085938 0)"/>
      <use xlink:href="#DejaVuSans-4f" transform="translate(215.087891 0)"/>
      <use xlink:href="#DejaVuSans-2f" transform="translate(293.798828 0)"/>
      <use xlink:href="#DejaVuSans-55" transform="translate(327.490234 0)"/>
      <use xlink:href="#DejaVuSans-4d" transform="translate(400.683594 0)"/>
      <use xlink:href="#DejaVuSans-44" transform="translate(486.962891 0)"/>
      <use xlink:href="#DejaVuSans-4f" transform="translate(563.964844 0)"/>
     </g>
    </g>
    <g id="line2d_79">
     <path d="M 508.810625 119.77025 
L 516.810625 119.77025 
L 524.810625 119.77025 
" style="fill: none; stroke-dasharray: 5.55,2.4; stroke-dashoffset: 0; stroke: #808080; stroke-opacity: 0.7; stroke-width: 1.5"/>
    </g>
    <g id="text_45">
     <!-- mean (55s) -->
     <g transform="translate(531.210625 122.57025) scale(0.08 -0.08)">
      <use xlink:href="#DejaVuSans-6d"/>
      <use xlink:href="#DejaVuSans-65" transform="translate(97.412109 0)"/>
      <use xlink:href="#DejaVuSans-61" transform="translate(158.935547 0)"/>
      <use xlink:href="#DejaVuSans-6e" transform="translate(220.214844 0)"/>
      <use xlink:href="#DejaVuSans-20" transform="translate(283.59375 0)"/>
      <use xlink:href="#DejaVuSans-28" transform="translate(315.380859 0)"/>
      <use xlink:href="#DejaVuSans-35" transform="translate(354.394531 0)"/>
      <use xlink:href="#DejaVuSans-35" transform="translate(418.017578 0)"/>
      <use xlink:href="#DejaVuSans-73" transform="translate(481.640625 0)"/>
      <use xlink:href="#DejaVuSans-29" transform="translate(533.740234 0)"/>
     </g>
    </g>
    <g id="line2d_80">
     <path d="M 508.810625 131.51275 
L 516.810625 131.51275 
L 524.810625 131.51275 
" style="fill: none; stroke-dasharray: 9.6,2.4,1.5,2.4; stroke-dashoffset: 0; stroke: #808080; stroke-opacity: 0.7; stroke-width: 1.5"/>
    </g>
    <g id="text_46">
     <!-- 97.5% (101.5s) -->
     <g transform="translate(531.210625 134.31275) scale(0.08 -0.08)">
      <use xlink:href="#DejaVuSans-39"/>
      <use xlink:href="#DejaVuSans-37" transform="translate(63.623047 0)"/>
      <use xlink:href="#DejaVuSans-2e" transform="translate(127.246094 0)"/>
      <use xlink:href="#DejaVuSans-35" transform="translate(159.033203 0)"/>
      <use xlink:href="#DejaVuSans-25" transform="translate(222.65625 0)"/>
      <use xlink:href="#DejaVuSans-20" transform="translate(317.675781 0)"/>
      <use xlink:href="#DejaVuSans-28" transform="translate(349.462891 0)"/>
      <use xlink:href="#DejaVuSans-31" transform="translate(388.476562 0)"/>
      <use xlink:href="#DejaVuSans-30" transform="translate(452.099609 0)"/>
      <use xlink:href="#DejaVuSans-31" transform="translate(515.722656 0)"/>
      <use xlink:href="#DejaVuSans-2e" transform="translate(579.345703 0)"/>
      <use xlink:href="#DejaVuSans-35" transform="translate(611.132812 0)"/>
      <use xlink:href="#DejaVuSans-73" transform="translate(674.755859 0)"/>
      <use xlink:href="#DejaVuSans-29" transform="translate(726.855469 0)"/>
     </g>
    </g>
   </g>
  </g>
  <g id="text_47">
   <!-- Weight decomposition: structural vs battery sensitivity to t_hover -->
   <g transform="translate(283.338594 15.558281) scale(0.11 -0.11)">
    <defs>
     <path id="DejaVuSans-3a" d="M 750 794 
L 1409 794 
L 1409 0 
L 750 0 
L 750 794 
z
M 750 3309 
L 1409 3309 
L 1409 2516 
L 750 2516 
L 750 3309 
z
" transform="scale(0.015625)"/>
     <path id="DejaVuSans-75" d="M 544 1381 
L 544 3500 
L 1119 3500 
L 1119 1403 
Q 1119 906 1312 657 
Q 1506 409 1894 409 
Q 2359 409 2629 706 
Q 2900 1003 2900 1516 
L 2900 3500 
L 3475 3500 
L 3475 0 
L 2900 0 
L 2900 538 
Q 2691 219 2414 64 
Q 2138 -91 1772 -91 
Q 1169 -91 856 284 
Q 544 659 544 1381 
z
M 1991 3584 
L 1991 3584 
z
" transform="scale(0.015625)"/>
    </defs>
    <use xlink:href="#DejaVuSans-57"/>
    <use xlink:href="#DejaVuSans-65" transform="translate(93.001953 0)"/>
    <use xlink:href="#DejaVuSans-69" transform="translate(154.525391 0)"/>
    <use xlink:href="#DejaVuSans-67" transform="translate(182.308594 0)"/>
    <use xlink:href="#DejaVuSans-68" transform="translate(245.785156 0)"/>
    <use xlink:href="#DejaVuSans-74" transform="translate(309.164062 0)"/>
    <use xlink:href="#DejaVuSans-20" transform="translate(348.373047 0)"/>
    <use xlink:href="#DejaVuSans-64" transform="translate(380.160156 0)"/>
    <use xlink:href="#DejaVuSans-65" transform="translate(443.636719 0)"/>
    <use xlink:href="#DejaVuSans-63" transform="translate(505.160156 0)"/>
    <use xlink:href="#DejaVuSans-6f" transform="translate(560.140625 0)"/>
    <use xlink:href="#DejaVuSans-6d" transform="translate(621.322266 0)"/>
    <use xlink:href="#DejaVuSans-70" transform="translate(718.734375 0)"/>
    <use xlink:href="#DejaVuSans-6f" transform="translate(782.210938 0)"/>
    <use xlink:href="#DejaVuSans-73" transform="translate(843.392578 0)"/>
    <use xlink:href="#DejaVuSans-69" transform="translate(895.492188 0)"/>
    <use xlink:href="#DejaVuSans-74" transform="translate(923.275391 0)"/>
    <use xlink:href="#DejaVuSans-69" transform="translate(962.484375 0)"/>
    <use xlink:href="#DejaVuSans-6f" transform="translate(990.267578 0)"/>
    <use xlink:href="#DejaVuSans-6e" transform="translate(1051.449219 0)"/>
    <use xlink:href="#DejaVuSans-3a" transform="translate(1114.828125 0)"/>
    <use xlink:href="#DejaVuSans-20" transform="translate(1148.519531 0)"/>
    <use xlink:href="#DejaVuSans-73" transform="translate(1180.306641 0)"/>
    <use xlink:href="#DejaVuSans-74" transform="translate(1232.40625 0)"/>
    <use xlink:href="#DejaVuSans-72" transform="translate(1271.615234 0)"/>
    <use xlink:href="#DejaVuSans-75" transform="translate(1312.728516 0)"/>
    <use xlink:href="#DejaVuSans-63" transform="translate(1376.107422 0)"/>
    <use xlink:href="#DejaVuSans-74" transform="translate(1431.087891 0)"/>
    <use xlink:href="#DejaVuSans-75" transform="translate(1470.296875 0)"/>
    <use xlink:href="#DejaVuSans-72" transform="translate(1533.675781 0)"/>
    <use xlink:href="#DejaVuSans-61" transform="translate(1574.789062 0)"/>
    <use xlink:href="#DejaVuSans-6c" transform="translate(1636.068359 0)"/>
    <use xlink:href="#DejaVuSans-20" transform="translate(1663.851562 0)"/>
    <use xlink:href="#DejaVuSans-76" transform="translate(1695.638672 0)"/>
    <use xlink:href="#DejaVuSans-73" transform="translate(1754.818359 0)"/>
    <use xlink:href="#DejaVuSans-20" transform="translate(1806.917969 0)"/>
    <use xlink:href="#DejaVuSans-62" transform="translate(1838.705078 0)"/>
    <use xlink:href="#DejaVuSans-61" transform="translate(1902.181641 0)"/>
    <use xlink:href="#DejaVuSans-74" transform="translate(1963.460938 0)"/>
    <use xlink:href="#DejaVuSans-74" transform="translate(2002.669922 0)"/>
    <use xlink:href="#DejaVuSans-65" transform="translate(2041.878906 0)"/>
    <use xlink:href="#DejaVuSans-72" transform="translate(2103.402344 0)"/>
    <use xlink:href="#DejaVuSans-79" transform="translate(2144.515625 0)"/>
    <use xlink:href="#DejaVuSans-20" transform="translate(2203.695312 0)"/>
    <use xlink:href="#DejaVuSans-73" transform="translate(2235.482422 0)"/>
    <use xlink:href="#DejaVuSans-65" transform="translate(2287.582031 0)"/>
    <use xlink:href="#DejaVuSans-6e" transform="translate(2349.105469 0)"/>
    <use xlink:href="#DejaVuSans-73" transform="translate(2412.484375 0)"/>
    <use xlink:href="#DejaVuSans-69" transform="translate(2464.583984 0)"/>
    <use xlink:href="#DejaVuSans-74" transform="translate(2492.367188 0)"/>
    <use xlink:href="#DejaVuSans-69" transform="translate(2531.576172 0)"/>
    <use xlink:href="#DejaVuSans-76" transform="translate(2559.359375 0)"/>
    <use xlink:href="#DejaVuSans-69" transform="translate(2618.539062 0)"/>
    <use xlink:href="#DejaVuSans-74" transform="translate(2646.322266 0)"/>
    <use xlink:href="#DejaVuSans-79" transform="translate(2685.53125 0)"/>
    <use xlink:href="#DejaVuSans-20" transform="translate(2744.710938 0)"/>
    <use xlink:href="#DejaVuSans-74" transform="translate(2776.498047 0)"/>
    <use xlink:href="#DejaVuSans-6f" transform="translate(2815.707031 0)"/>
    <use xlink:href="#DejaVuSans-20" transform="translate(2876.888672 0)"/>
    <use xlink:href="#DejaVuSans-74" transform="translate(2908.675781 0)"/>
    <use xlink:href="#DejaVuSans-5f" transform="translate(2947.884766 0)"/>
    <use xlink:href="#DejaVuSans-68" transform="translate(2997.884766 0)"/>
    <use xlink:href="#DejaVuSans-6f" transform="translate(3061.263672 0)"/>
    <use xlink:href="#DejaVuSans-76" transform="translate(3122.445312 0)"/>
    <use xlink:href="#DejaVuSans-65" transform="translate(3181.625 0)"/>
    <use xlink:href="#DejaVuSans-72" transform="translate(3243.148438 0)"/>
   </g>
   <!-- (weight closure re-solved at each point) -->
   <g transform="translate(354.392578 28.181812) scale(0.11 -0.11)">
    <use xlink:href="#DejaVuSans-28"/>
    <use xlink:href="#DejaVuSans-77" transform="translate(39.013672 0)"/>
    <use xlink:href="#DejaVuSans-65" transform="translate(120.800781 0)"/>
    <use xlink:href="#DejaVuSans-69" transform="translate(182.324219 0)"/>
    <use xlink:href="#DejaVuSans-67" transform="translate(210.107422 0)"/>
    <use xlink:href="#DejaVuSans-68" transform="translate(273.583984 0)"/>
    <use xlink:href="#DejaVuSans-74" transform="translate(336.962891 0)"/>
    <use xlink:href="#DejaVuSans-20" transform="translate(376.171875 0)"/>
    <use xlink:href="#DejaVuSans-63" transform="translate(407.958984 0)"/>
    <use xlink:href="#DejaVuSans-6c" transform="translate(462.939453 0)"/>
    <use xlink:href="#DejaVuSans-6f" transform="translate(490.722656 0)"/>
    <use xlink:href="#DejaVuSans-73" transform="translate(551.904297 0)"/>
    <use xlink:href="#DejaVuSans-75" transform="translate(604.003906 0)"/>
    <use xlink:href="#DejaVuSans-72" transform="translate(667.382812 0)"/>
    <use xlink:href="#DejaVuSans-65" transform="translate(706.246094 0)"/>
    <use xlink:href="#DejaVuSans-20" transform="translate(767.769531 0)"/>
    <use xlink:href="#DejaVuSans-72" transform="translate(799.556641 0)"/>
    <use xlink:href="#DejaVuSans-65" transform="translate(838.419922 0)"/>
    <use xlink:href="#DejaVuSans-2d" transform="translate(899.943359 0)"/>
    <use xlink:href="#DejaVuSans-73" transform="translate(936.027344 0)"/>
    <use xlink:href="#DejaVuSans-6f" transform="translate(988.126953 0)"/>
    <use xlink:href="#DejaVuSans-6c" transform="translate(1049.308594 0)"/>
    <use xlink:href="#DejaVuSans-76" transform="translate(1077.091797 0)"/>
    <use xlink:href="#DejaVuSans-65" transform="translate(1136.271484 0)"/>
    <use xlink:href="#DejaVuSans-64" transform="translate(1197.794922 0)"/>
    <use xlink:href="#DejaVuSans-20" transform="translate(1261.271484 0)"/>
    <use xlink:href="#DejaVuSans-61" transform="translate(1293.058594 0)"/>
    <use xlink:href="#DejaVuSans-74" transform="translate(1354.337891 0)"/>
    <use xlink:href="#DejaVuSans-20" transform="translate(1393.546875 0)"/>
    <use xlink:href="#DejaVuSans-65" transform="translate(1425.333984 0)"/>
    <use xlink:href="#DejaVuSans-61" transform="translate(1486.857422 0)"/>
    <use xlink:href="#DejaVuSans-63" transform="translate(1548.136719 0)"/>
    <use xlink:href="#DejaVuSans-68" transform="translate(1603.117188 0)"/>
    <use xlink:href="#DejaVuSans-20" transform="translate(1666.496094 0)"/>
    <use xlink:href="#DejaVuSans-70" transform="translate(1698.283203 0)"/>
    <use xlink:href="#DejaVuSans-6f" transform="translate(1761.759766 0)"/>
    <use xlink:href="#DejaVuSans-69" transform="translate(1822.941406 0)"/>
    <use xlink:href="#DejaVuSans-6e" transform="translate(1850.724609 0)"/>
    <use xlink:href="#DejaVuSans-74" transform="translate(1914.103516 0)"/>
    <use xlink:href="#DejaVuSans-29" transform="translate(1953.3125 0)"/>
   </g>
  </g>
 </g>
 <defs>
  <clipPath id="p27e6c165d9">
   <rect x="34.240625" y="74.064" width="419.56" height="243.736"/>
  </clipPath>
  <clipPath id="p3cdf69606f">
   <rect x="501.610625" y="74.064" width="419.56" height="243.736"/>
  </clipPath>
 </defs>
</svg>
